<svg id="Layer_1" data-name="Layer 1" xmlns="http://www.w3.org/2000/svg" xmlns:xlink="http://www.w3.org/1999/xlink" viewBox="0 0 301.96 81.36"><defs><style>.cls-1{fill:none;}.cls-2{fill:#fff;}.cls-3{fill:#bddeb4;}.cls-4{fill:#00639b;}.cls-5{fill:#0be;}.cls-6{fill:#76c27a;}.cls-7{fill:#0a9f49;}.cls-8{fill:#0087c7;}.cls-14,.cls-17,.cls-9{fill-rule:evenodd;}.cls-9{fill:url(#linear-gradient);}.cls-10{clip-path:url(#clip-path);}.cls-11{fill:url(#linear-gradient-2);}.cls-12{clip-path:url(#clip-path-2);}.cls-13{fill:url(#linear-gradient-3);}.cls-14{fill:url(#linear-gradient-4);}.cls-15{clip-path:url(#clip-path-3);}.cls-16{fill:url(#linear-gradient-5);}.cls-17{fill:url(#linear-gradient-6);}.cls-18{clip-path:url(#clip-path-4);}.cls-19{fill:url(#linear-gradient-7);}.cls-20{clip-path:url(#clip-path-5);}.cls-21{fill:url(#linear-gradient-8);}.cls-22{clip-path:url(#clip-path-6);}.cls-23{fill:url(#linear-gradient-9);}.cls-24{clip-path:url(#clip-path-7);}.cls-25{fill:url(#linear-gradient-10);}</style><linearGradient id="linear-gradient" x1="54.39" y1="56.09" x2="54.55" y2="56.09" gradientTransform="matrix(6.1, 0, 0, -44.02, -485.73, 2521.56)" gradientUnits="userSpaceOnUse"><stop offset="0" stop-color="#c77351"/><stop offset="0.2" stop-color="#d97f60"/><stop offset="0.39" stop-color="#e39d8c"/><stop offset="0.54" stop-color="#c77351"/><stop offset="0.69" stop-color="#d97f60"/><stop offset="0.83" stop-color="#e39d8c"/><stop offset="1" stop-color="#c77351"/></linearGradient><clipPath id="clip-path" transform="translate(-0.5 0)"><path class="cls-1" d="M30.27,30.49V57.81a139.77,139.77,0,0,0,1.82,16.7h2.47a139.77,139.77,0,0,0,1.82-16.7V30.49Z"/></clipPath><linearGradient id="linear-gradient-2" x1="14.23" y1="56.09" x2="14.24" y2="56.09" gradientTransform="matrix(6.11, 0, 0, -44.02, -486.32, 2521.55)" xlink:href="#linear-gradient"/><clipPath id="clip-path-2" transform="translate(-0.5 0)"><path class="cls-1" d="M29.07,26.76V6.17c0-.63,0-2.88,0-3.91a.62.62,0,0,1,.42-.77.55.55,0,0,1,.18,0c.43,0,.82,0,.82.08v.13c0,.1-.39.14-.82.14V24.18h.18c.3,0,.77,1.66-.34,2.94-.42,0-.44,0-.44-.36"/></clipPath><linearGradient id="linear-gradient-3" x1="-559.76" y1="56.51" x2="-559.68" y2="56.51" gradientTransform="matrix(1.62, 0, 0, -25.66, -34.41, 1464.47)" gradientUnits="userSpaceOnUse"><stop offset="0" stop-color="#963"/><stop offset="0.17" stop-color="#b98633"/><stop offset="0.3" stop-color="#c93"/><stop offset="0.41" stop-color="#ffc"/><stop offset="0.77" stop-color="#c93"/><stop offset="1" stop-color="#633"/></linearGradient><linearGradient id="linear-gradient-4" x1="54.39" y1="56.43" x2="54.56" y2="56.43" gradientTransform="matrix(6.1, 0, 0, -28.07, -485.83, 1599.65)" xlink:href="#linear-gradient"/><clipPath id="clip-path-3" transform="translate(-0.5 0)"><polygon class="cls-1" points="30.27 29.63 30.27 7.01 30.5 1.55 30.5 1.59 36.14 1.59 36.38 7.11 36.38 29.63 30.27 29.63"/></clipPath><linearGradient id="linear-gradient-5" x1="14.23" y1="56.43" x2="14.24" y2="56.43" gradientTransform="matrix(6.11, 0, 0, -28.07, -486.32, 1599.64)" xlink:href="#linear-gradient"/><linearGradient id="linear-gradient-6" x1="14.5" y1="64.13" x2="14.9" y2="64.13" gradientTransform="matrix(2.47, 0, 0, -3.01, -117.18, 269.17)" gradientUnits="userSpaceOnUse"><stop offset="0"/><stop offset="0.32"/><stop offset="0.5" stop-color="#4c4c4c"/><stop offset="0.74"/><stop offset="1"/></linearGradient><clipPath id="clip-path-4" transform="translate(-0.5 0)"><polygon class="cls-1" points="32.09 74.5 32.59 77.51 34.06 77.51 34.56 74.5 32.09 74.5"/></clipPath><linearGradient id="linear-gradient-7" x1="-233.54" y1="64.13" x2="-233.51" y2="64.13" gradientTransform="matrix(2.48, 0, 0, -3.01, -117.98, 269.17)" xlink:href="#linear-gradient-6"/><clipPath id="clip-path-5" transform="translate(-0.5 0)"><path class="cls-1" d="M36.15,1.59V.21A.21.21,0,0,0,35.94,0H30.71a.22.22,0,0,0-.21.21V1.59Z"/></clipPath><linearGradient id="linear-gradient-8" x1="4.25" y1="71.86" x2="4.26" y2="71.86" gradientTransform="matrix(5.65, 0, 0, -1.59, -439.73, 114.98)" xlink:href="#linear-gradient-6"/><clipPath id="clip-path-6" transform="translate(-0.5 0)"><rect class="cls-1" x="30.27" y="29.63" width="6.11" height="0.86"/></clipPath><linearGradient id="linear-gradient-9" x1="14.21" y1="85.73" x2="14.22" y2="85.73" gradientTransform="matrix(6.11, 0, 0, -0.86, -486.32, 103.78)" xlink:href="#linear-gradient-6"/><clipPath id="clip-path-7" transform="translate(-0.5 0)"><path class="cls-1" d="M33.34,79c.28,0,.42-.74.54-1.5H32.76c.14.77.32,1.52.58,1.5"/></clipPath><linearGradient id="linear-gradient-10" x1="-1113.43" y1="72.61" x2="-1113.26" y2="72.61" gradientTransform="matrix(1.12, 0, 0, -1.52, 19.75, 188.58)" gradientUnits="userSpaceOnUse"><stop offset="0" stop-color="#4c4c4c"/><stop offset="0.04" stop-color="#e5e5e5"/><stop offset="0.18" stop-color="#7f7f7f"/><stop offset="0.41" stop-color="#333"/><stop offset="0.56" stop-color="#fff"/><stop offset="0.65" stop-color="#b2b2b2"/><stop offset="0.91" stop-color="#e5e5e5"/><stop offset="1" stop-color="#999"/></linearGradient></defs><g id="Group_600-2" data-name="Group 600-2"><path id="Path_1484" data-name="Path 1484" class="cls-2" d="M83,49.79a8.1,8.1,0,0,1-2.43,5.89,7.94,7.94,0,0,1-5.84,2.45H66.46V23.25h8.26a7.94,7.94,0,0,1,5.86,2.44A8.1,8.1,0,0,1,83,31.56ZM71.72,52.93h3.17A2.81,2.81,0,0,0,77,52a3,3,0,0,0,.86-2.13V31.64A2.94,2.94,0,0,0,77,29.51a2.81,2.81,0,0,0-2.1-.89H71.72Z" transform="translate(-0.5 0)"/><path id="Path_1485" data-name="Path 1485" class="cls-2" d="M95.82,22.82a8.35,8.35,0,0,1,8.36,8.33V50.21a8.34,8.34,0,0,1-8.33,8.36h0a7.94,7.94,0,0,1-5.88-2.45,8.08,8.08,0,0,1-2.42-5.91v-19a8.34,8.34,0,0,1,8.3-8.36Zm2.87,8.26a3,3,0,0,0-2.94-3h-.06a3,3,0,0,0-2.14.87,2.86,2.86,0,0,0-.88,2.13v19.1a2.88,2.88,0,0,0,.88,2.12,3,3,0,0,0,5.14-2.09V31.08Z" transform="translate(-0.5 0)"/><path id="Path_1486" data-name="Path 1486" class="cls-2" d="M117.05,58.57a8.3,8.3,0,0,1-8.34-8.26V31.14a8.33,8.33,0,1,1,16.66,0v4h-5.45V31.05a3,3,0,0,0-3-3h0a2.85,2.85,0,0,0-2.13.89,3,3,0,0,0-.88,2.15V50.19a3,3,0,0,0,3,3h0a2.89,2.89,0,0,0,2.15-.88,2.82,2.82,0,0,0,.89-2.14v-4.8h5.45v4.86a8.31,8.31,0,0,1-8.3,8.32h0Z" transform="translate(-0.5 0)"/><path id="Path_1487" data-name="Path 1487" class="cls-2" d="M134.57,28.5H129V23.24h16.41V28.5h-5.56V58.13h-5.26Z" transform="translate(-0.5 0)"/><path id="Path_1488" data-name="Path 1488" class="cls-2" d="M157.31,22.82a8.35,8.35,0,0,1,8.35,8.33V50.21a8.34,8.34,0,0,1-8.32,8.36h0a8,8,0,0,1-5.89-2.45A8.12,8.12,0,0,1,149,50.21v-19a8.36,8.36,0,0,1,8.3-8.36Zm2.86,8.26a3,3,0,0,0-2.93-3h-.07A3,3,0,0,0,155,29a2.91,2.91,0,0,0-.89,2.13v19.1A2.89,2.89,0,0,0,155,52.3a2.94,2.94,0,0,0,2.13.88,3,3,0,0,0,3-3V31.08Z" transform="translate(-0.5 0)"/><path id="Path_1489" data-name="Path 1489" class="cls-2" d="M178.59,23.25c2.93,0,5.08.8,6.45,2.42a8.81,8.81,0,0,1,1.81,5.89v5.07a8.11,8.11,0,0,1-2.8,6.26L188,58.13h-5.68L179.07,45l-.48,0h-3V58.13h-5.26V23.25Zm3.14,8.41q0-3-3-3h-3.17V39.77h3.17a2.87,2.87,0,0,0,2.12-.89,2.93,2.93,0,0,0,.87-2.13Z" transform="translate(-0.5 0)"/><path id="Path_1490" data-name="Path 1490" class="cls-2" d="M208,49.46a9.75,9.75,0,0,1-1.89,6.24,6.79,6.79,0,0,1-3.61,2.47,10,10,0,0,1-2.93.4A8.34,8.34,0,0,1,194.48,57a8.78,8.78,0,0,1-2.67-3.42,13.27,13.27,0,0,1-1.15-5l5-.34a7.53,7.53,0,0,0,1.63,4.4,2.66,2.66,0,0,0,2.16,1A3.28,3.28,0,0,0,202.19,52a4.28,4.28,0,0,0,.54-2.32,6.51,6.51,0,0,0-2-4.34l-4.69-4.41a19.44,19.44,0,0,1-3.69-4.54,10.53,10.53,0,0,1-1.17-4.9,8.55,8.55,0,0,1,3.2-7.21,8,8,0,0,1,4.9-1.47,8.86,8.86,0,0,1,4.82,1.26,7.32,7.32,0,0,1,2.51,2.73,10.36,10.36,0,0,1,1.17,4l-5.05.91a5.93,5.93,0,0,0-1.23-3.33,2.58,2.58,0,0,0-2.08-.88,2.43,2.43,0,0,0-2.2,1.29,4.87,4.87,0,0,0-.61,2.56,7.72,7.72,0,0,0,2.06,4.88A18.74,18.74,0,0,0,201,38.48c1.23,1,2,1.74,2.43,2.15a18,18,0,0,1,3,3.84,14,14,0,0,1,.8,1.65A9.64,9.64,0,0,1,208,49.46Z" transform="translate(-0.5 0)"/><path id="Path_1491" data-name="Path 1491" class="cls-2" d="M223.61,58.57a8.32,8.32,0,0,1-8.34-8.31h0V31.14a8.33,8.33,0,0,1,16.66,0v4h-5.45V31.05a3,3,0,0,0-3-3h0a2.83,2.83,0,0,0-2.12.89,2.89,2.89,0,0,0-.88,2.15V50.19a3,3,0,1,0,6,0V43.33h-2.93V38.07h8.38V50.25a8.32,8.32,0,0,1-8.3,8.32Z" transform="translate(-0.5 0)"/><path id="Path_1492" data-name="Path 1492" class="cls-2" d="M241.74,58.13h-5.26V23.25h5.26Z" transform="translate(-0.5 0)"/><path id="Path_1493" data-name="Path 1493" class="cls-2" d="M251.71,58.13h-5.26V23.25h15V28.5h-9.71v9.57h7.1v5.26h-7.1Z" transform="translate(-0.5 0)"/><path id="Path_1494" data-name="Path 1494" class="cls-2" d="M270.62,28.5H265V23.24h16.41V28.5h-5.57V58.13h-5.26Z" transform="translate(-0.5 0)"/><path id="Path_1495" data-name="Path 1495" class="cls-2" d="M302.44,49.46a9.75,9.75,0,0,1-1.89,6.24,6.79,6.79,0,0,1-3.61,2.47,10,10,0,0,1-2.93.4A8.34,8.34,0,0,1,288.88,57a8.78,8.78,0,0,1-2.67-3.42,13.27,13.27,0,0,1-1.15-5l5-.34a7.53,7.53,0,0,0,1.63,4.4,2.66,2.66,0,0,0,2.16,1A3.28,3.28,0,0,0,296.59,52a4.28,4.28,0,0,0,.54-2.32,6.47,6.47,0,0,0-2-4.34l-4.69-4.41a19.44,19.44,0,0,1-3.69-4.54,10.53,10.53,0,0,1-1.17-4.9,8.55,8.55,0,0,1,3.2-7.21,8,8,0,0,1,4.89-1.47,8.86,8.86,0,0,1,4.82,1.26A7.32,7.32,0,0,1,301,26.81a10.36,10.36,0,0,1,1.17,4l-5.05.91a5.93,5.93,0,0,0-1.23-3.33,2.58,2.58,0,0,0-2.08-.88,2.43,2.43,0,0,0-2.2,1.29,4.87,4.87,0,0,0-.61,2.56,7.72,7.72,0,0,0,2.06,4.88,18.74,18.74,0,0,0,2.33,2.21c1.23,1,2,1.74,2.43,2.15a18,18,0,0,1,3,3.84,12.55,12.55,0,0,1,.8,1.65A9.65,9.65,0,0,1,302.44,49.46Z" transform="translate(-0.5 0)"/></g><g id="Group_615" data-name="Group 615"><path id="Path_1443" data-name="Path 1443" d="M33.33,79.07A13.62,13.62,0,0,1,35,78.18a13.14,13.14,0,0,1,1.82-.65.6.6,0,0,1,.62.25.89.89,0,0,1,.1.6,6.37,6.37,0,0,1-.26,1,14,14,0,0,0-.54,1.78l-.16-.31a.72.72,0,0,0,.47-.13c.2-.1.4-.25.63-.37.43-.26.87-.5,1.33-.72a19.94,19.94,0,0,1,2.8-1.12,12.61,12.61,0,0,1,3-.54,10.32,10.32,0,0,1,3,.31,13.23,13.23,0,0,0-2.95,0A12.12,12.12,0,0,0,42,79a26.85,26.85,0,0,0-2.71,1.15l-1.3.7c-.21.12-.41.26-.65.38a1.17,1.17,0,0,1-1,.14.26.26,0,0,1-.17-.3v0a15.3,15.3,0,0,1,.62-1.84c.11-.28.21-.56.3-.86s0-.42-.22-.4a17.19,17.19,0,0,0-1.8.49A16.54,16.54,0,0,0,33.33,79.07Z" transform="translate(-0.5 0)"/><path id="Path_1444" data-name="Path 1444" class="cls-3" d="M32.72,17.12h-.1l.1.2Z" transform="translate(-0.5 0)"/><path id="Path_1445" data-name="Path 1445" class="cls-4" d="M16.64,29.37c-.43-2.24-1.13-5.85-1.34-8a4.44,4.44,0,0,1-.06-.89v-.09a7.77,7.77,0,0,1,.08-.83c.26-1.52,2.86-3.87,6.11-3.73s6.57,1.68,7,2.63c.28.66.16,3.21-1.75,4-.83.36-3.05-.43-4.47-.11a4.71,4.71,0,0,0-2,1.66c2.23,1.21,4.94,2.56,7.55,3.85A19.87,19.87,0,0,0,31,24.49a21.31,21.31,0,0,0,1.54-3.77V17.54l-.09-.21c-1.13-2.34-4.55-5.54-8.51-5.43C19,12,13.56,15.74,10.68,16.39c-1.8.41-6-.44-8.83-2.35s-.44,3.52-.13,4.17A27.83,27.83,0,0,0,8.4,25.55c.7.47,1.48.93,2.3,1.37a33.23,33.23,0,0,0,3,1.42C14.68,28.73,15.65,29.07,16.64,29.37Z" transform="translate(-0.5 0)"/><path id="Path_1446" data-name="Path 1446" class="cls-4" d="M64.93,18.21c.31-.65,2.67-6.07-.14-4.17s-7,2.76-8.82,2.35c-2.88-.65-8.31-4.35-13.23-4.49-4-.11-7.36,3.08-8.5,5.41l-.17.38v2.77a20.39,20.39,0,0,0,1.61,4A18.76,18.76,0,0,0,40,28.72c2.57-1.44,5.2-2.94,7.34-4.3-.54-.7-1.5-1.84-2.29-2-1.43-.32-3.64.47-4.48.11-1.9-.81-2-3.37-1.74-4,.41-.95,3.72-2.5,7-2.63s5.86,2.21,6.11,3.73a6.11,6.11,0,0,1,.08.85v.42a3.87,3.87,0,0,1-.05.49,80.39,80.39,0,0,1-1.8,8,32.26,32.26,0,0,0,5.11-2l.48-.25a27.68,27.68,0,0,0,2.52-1.48A27.83,27.83,0,0,0,64.93,18.21Z" transform="translate(-0.5 0)"/><path id="Path_1447" data-name="Path 1447" class="cls-5" d="M30.6,66.2c.6-.47,1.24-.92,1.91-1.35V64a37,37,0,0,1-4.93-3.59,3.61,3.61,0,0,0-.67,2.64C27.29,64.26,28.58,64.71,30.6,66.2Z" transform="translate(-0.5 0)"/><path id="Path_1448" data-name="Path 1448" class="cls-5" d="M34.07,69.34c3.27,3.7.82,7.23,0,8.29a.92.92,0,0,1-.16.31,4.85,4.85,0,0,0,.49-.29c1-.68,3.1-2.26,3.3-2.81A7.61,7.61,0,0,0,38.93,72c.25-2-.82-3.59-2.47-5.06-.6.48-1.38,1.08-2.4,1.86Z" transform="translate(-0.5 0)"/><path id="Path_1449" data-name="Path 1449" class="cls-5" d="M34.07,56.6a16.1,16.1,0,0,1,4.38,4.17,6.65,6.65,0,0,0,1.87-2.71c0-.18.08-.36.11-.54.23-1.65-1.07-3.14-3.22-4.79-1,.7-2.08,1.44-3.14,2.28Z" transform="translate(-0.5 0)"/><path id="Path_1450" data-name="Path 1450" class="cls-6" d="M40.42,58.34,40,60C40.15,59.48,40.3,58.91,40.42,58.34Z" transform="translate(-0.5 0)"/><path id="Path_1451" data-name="Path 1451" class="cls-6" d="M39.2,63.23" transform="translate(-0.5 0)"/><path id="Path_1452" data-name="Path 1452" class="cls-5" d="M28.51,52.72c1.16-.83,2.55-1.7,4-2.63v-.61c-2.42-1.58-5.17-2.93-7.22-4.18-1.27,1-2.1,2.08-1.93,3.09C23.72,49.87,26,51.16,28.51,52.72Z" transform="translate(-0.5 0)"/><path id="Path_1453" data-name="Path 1453" class="cls-7" d="M15.51,21.2a7.79,7.79,0,0,1-.06-.89A4.39,4.39,0,0,0,15.51,21.2Z" transform="translate(-0.5 0)"/><path id="Path_1454" data-name="Path 1454" class="cls-8" d="M20.18,24.07a4.82,4.82,0,0,1,2-1.66c1.43-.32,3.64.47,4.48.11,1.9-.81,2-3.36,1.74-4-.4-.95-3.72-2.49-7-2.63s-5.86,2.21-6.11,3.74a5.56,5.56,0,0,0-.08.82C15.31,21.19,17.36,22.52,20.18,24.07Z" transform="translate(-0.5 0)"/><path id="Path_1455" data-name="Path 1455" class="cls-5" d="M34.28,30.94v.9l.8-.45Z" transform="translate(-0.5 0)"/><path id="Path_1456" data-name="Path 1456" class="cls-5" d="M26.91,36.45c1.24-.76,2.58-1.57,3.89-2.44.45-.3,1-.66,1.71-1.06V30.32c-1.44-.74-3.08-1.56-4.78-2.4-2.6-1.29-5.32-2.63-7.55-3.85-2.83-1.54-4.87-2.88-4.94-3.64v0c0,.05,0,.09,0,.13,0,.25,0,.55.06.89.21,2.11.91,5.73,1.34,8,.1.53.19,1,.25,1.33C17.22,32,22.5,34.54,26.91,36.45Z" transform="translate(-0.5 0)"/><path id="Path_1457" data-name="Path 1457" class="cls-5" d="M42,44.29a4.82,4.82,0,0,0,2.13-2.37,11,11,0,0,0,.32-1.35c.19-1.39-.87-2.74-2.58-4.17-2.63,1.49-5.24,2.84-6.66,3.58C37.42,41,40.58,42.57,42,44.29Z" transform="translate(-0.5 0)"/><path id="Path_1458" data-name="Path 1458" class="cls-6" d="M52.2,20.35Z" transform="translate(-0.5 0)"/><path id="Path_1459" data-name="Path 1459" class="cls-6" d="M52.19,20.67c0,.15,0,.31,0,.49C52.16,21,52.18,20.85,52.19,20.67Z" transform="translate(-0.5 0)"/><path id="Path_1460" data-name="Path 1460" class="cls-5" d="M52,20.46a4.8,4.8,0,0,0-.08-.85c-.25-1.53-2.85-3.88-6.11-3.74s-6.56,1.68-7,2.63c-.28.66-.16,3.21,1.74,4,.84.36,3-.43,4.48-.11.78.18,1.76,1.32,2.29,2C50,22.72,52,21.25,52,20.46Z" transform="translate(-0.5 0)"/><g id="Group_584" data-name="Group 584"><path id="Path_1461" data-name="Path 1461" class="cls-9" d="M30.27,30.49V57.81a139.77,139.77,0,0,0,1.82,16.7h2.47a139.77,139.77,0,0,0,1.82-16.7V30.49Z" transform="translate(-0.5 0)"/><g id="Group_602" data-name="Group 602"><g class="cls-10"><g id="Group_601" data-name="Group 601"><g id="Group_583" data-name="Group 583"><rect id="Rectangle_33" data-name="Rectangle 33" class="cls-11" x="29.78" y="30.48" width="6.11" height="44.02"/></g></g></g></g></g><g id="Group_586" data-name="Group 586"><g id="Group_604" data-name="Group 604"><g class="cls-12"><g id="Group_603" data-name="Group 603"><g id="Group_585" data-name="Group 585"><rect id="Rectangle_34" data-name="Rectangle 34" class="cls-13" x="28.5" y="1.45" width="1.62" height="25.66"/></g></g></g></g></g><g id="Group_588" data-name="Group 588"><path id="Path_1464" data-name="Path 1464" class="cls-14" d="M30.27,29.63V7l.23-5.46v0h5.64l.24,5.52V29.63Z" transform="translate(-0.5 0)"/><g id="Group_606" data-name="Group 606"><g class="cls-15"><g id="Group_605" data-name="Group 605"><g id="Group_587" data-name="Group 587"><rect id="Rectangle_35" data-name="Rectangle 35" class="cls-16" x="29.78" y="1.55" width="6.11" height="28.07"/></g></g></g></g></g><g id="Group_590" data-name="Group 590"><path id="Path_1466" data-name="Path 1466" class="cls-17" d="M32.09,74.5l.5,3h1.47l.5-3Z" transform="translate(-0.5 0)"/><g id="Group_608" data-name="Group 608"><g class="cls-18"><g id="Group_607" data-name="Group 607"><g id="Group_589" data-name="Group 589"><rect id="Rectangle_36" data-name="Rectangle 36" class="cls-19" x="31.59" y="74.5" width="2.48" height="3.01"/></g></g></g></g></g><g id="Group_592" data-name="Group 592"><g id="Group_610" data-name="Group 610"><g class="cls-20"><g id="Group_609" data-name="Group 609"><g id="Group_591" data-name="Group 591"><rect id="Rectangle_37" data-name="Rectangle 37" class="cls-21" x="30.01" width="5.65" height="1.59"/></g></g></g></g></g><g id="Group_594" data-name="Group 594"><g id="Group_612" data-name="Group 612"><g class="cls-22"><g id="Group_611" data-name="Group 611"><g id="Group_593" data-name="Group 593"><rect id="Rectangle_38" data-name="Rectangle 38" class="cls-23" x="29.78" y="29.62" width="6.11" height="0.86"/></g></g></g></g></g><g id="Group_596" data-name="Group 596"><g id="Group_614" data-name="Group 614"><g class="cls-24"><g id="Group_613" data-name="Group 613"><g id="Group_595" data-name="Group 595"><rect id="Rectangle_40" data-name="Rectangle 40" class="cls-25" x="32.27" y="77.52" width="1.12" height="1.52"/></g></g></g></g></g><path id="Path_1470" data-name="Path 1470" class="cls-8" d="M34.07,32l-1.56.9c-.68.4-1.26.77-1.71,1.07-1.31.87-2.65,1.67-3.88,2.44-3.1,1.91-5.57,3.57-5.3,5.43C22,44,23,46.34,23.36,48.38c-.17-1,.66-2.07,1.93-3.09a35.94,35.94,0,0,1,7.22-4l1.56-.68.06,0,1.1-.57c1.42-.74,4-2.1,6.66-3.58,3.81-2.16,7.66-4.57,7.94-5.71.06-.34.17-.81.31-1.36.55-2.25,1.55-5.87,1.8-8,0-.17,0-.34,0-.49v-.41c0,.79-2,2.25-4.66,4-2.14,1.36-4.77,2.86-7.34,4.3-1.8,1-3.57,2-5.12,2.87Z" transform="translate(-0.5 0)"/><path id="Path_1471" data-name="Path 1471" class="cls-8" d="M42,44.29c-2,1.43-5.17,2.94-8,4.77l-.16.1c-.47.32-.94.62-1.4.92-1.45.94-2.84,1.81-4,2.64-2,1.46-3.38,2.82-3.17,4.32.33,2,1.21,4,1.58,6a3.61,3.61,0,0,1,.67-2.64c1.06-1.62,3.15-3,4.93-4.27.55-.39,1.08-.76,1.53-1.12l0,0c1.06-.85,2.13-1.59,3.14-2.29,2.61-1.78,4.79-3.18,5.2-4.81.38-2,1.36-3.92,1.76-6v0A4.84,4.84,0,0,1,42,44.29Z" transform="translate(-0.5 0)"/><path id="Path_1472" data-name="Path 1472" class="cls-8" d="M38.45,60.77a28.37,28.37,0,0,1-4.38,3.09l-1.56,1c-.67.43-1.31.88-1.91,1.35-2,1.59-3.49,3.45-3.33,6.06a3.46,3.46,0,0,0,.94,2.4c.21.5,2.48,2,3.73,2.81l.81.52h0a1.35,1.35,0,0,0-.22-.47c-1-1.43-4.87-3.7,0-7.6.31-.25.65-.51,1-.77l.52-.4c1-.77,1.8-1.37,2.4-1.85,2.05-1.62,2.07-1.87,2.45-3.18l.07-.29h0l.14-.53.66-2.65.42-1.71.2-.77-.09.29A6.72,6.72,0,0,1,38.45,60.77Z" transform="translate(-0.5 0)"/></g></svg>