<svg id="Layer_1" data-name="Layer 1" xmlns="http://www.w3.org/2000/svg" viewBox="0 0 96 14.55"><defs><style>.cls-1{fill:#fff;}</style></defs><g id="Group_600-2" data-name="Group 600-2"><path id="Path_1484" data-name="Path 1484" class="cls-1" d="M8.72,18.7a3.25,3.25,0,0,1-1,2.4,3.22,3.22,0,0,1-2.37,1H2V7.9H5.36a3.23,3.23,0,0,1,2.38,1,3.25,3.25,0,0,1,1,2.39ZM4.14,20H5.43a1.17,1.17,0,0,0,.86-.37,1.28,1.28,0,0,0,.35-.87V11.32a1.23,1.23,0,0,0-.36-.87,1.14,1.14,0,0,0-.85-.36H4.14Z" transform="translate(-2 -7.73)"/><path id="Path_1485" data-name="Path 1485" class="cls-1" d="M13.94,7.73a3.39,3.39,0,0,1,3.4,3.39h0v7.74A3.38,3.38,0,0,1,14,22.27h0a3.21,3.21,0,0,1-2.39-1,3.31,3.31,0,0,1-1-2.41V11.13a3.38,3.38,0,0,1,3.37-3.4Zm1.17,3.36a1.21,1.21,0,0,0-1.2-1.22h0a1.22,1.22,0,0,0-.87.35,1.15,1.15,0,0,0-.36.87v7.77a1.16,1.16,0,0,0,.36.86,1.22,1.22,0,0,0,2.09-.85h0Z" transform="translate(-2 -7.73)"/><path id="Path_1486" data-name="Path 1486" class="cls-1" d="M22.58,22.27a3.36,3.36,0,0,1-3.39-3.36v-7.8a3.39,3.39,0,0,1,6.77,0v1.62H23.75V11.08a1.24,1.24,0,0,0-1.24-1.24h0a1.19,1.19,0,0,0-.87.36,1.2,1.2,0,0,0-.35.88v7.78a1.21,1.21,0,0,0,1.21,1.23h0a1.21,1.21,0,0,0,1.23-1.23V16.91H26v2a3.38,3.38,0,0,1-3.38,3.38Z" transform="translate(-2 -7.73)"/><path id="Path_1487" data-name="Path 1487" class="cls-1" d="M29.7,10H27.43V7.9h6.68V10H31.85V22.09H29.71Z" transform="translate(-2 -7.73)"/><path id="Path_1488" data-name="Path 1488" class="cls-1" d="M39,7.73a3.39,3.39,0,0,1,3.4,3.39h0v7.74A3.38,3.38,0,0,1,39,22.27h0a3.22,3.22,0,0,1-2.39-1,3.31,3.31,0,0,1-1-2.41V11.13A3.38,3.38,0,0,1,39,7.73Zm1.17,3.36a1.21,1.21,0,0,0-1.19-1.22h0a1.21,1.21,0,0,0-1.23,1.22v7.77a1.2,1.2,0,0,0,.36.86,1.24,1.24,0,0,0,.87.36,1.22,1.22,0,0,0,1.22-1.21h0Z" transform="translate(-2 -7.73)"/><path id="Path_1489" data-name="Path 1489" class="cls-1" d="M47.61,7.9a3.25,3.25,0,0,1,2.63,1,3.55,3.55,0,0,1,.73,2.4v2.06a3.27,3.27,0,0,1-1.14,2.54l1.59,6.2H49.11l-1.3-5.36H46.39v5.35H44.25V7.9Zm1.28,3.43a1.09,1.09,0,0,0-1.22-1.24H46.38v4.53h1.29a1.15,1.15,0,0,0,.87-.36,1.22,1.22,0,0,0,.35-.87Z" transform="translate(-2 -7.73)"/><path id="Path_1490" data-name="Path 1490" class="cls-1" d="M59.59,18.57a3.89,3.89,0,0,1-.77,2.53,2.71,2.71,0,0,1-1.47,1,3.93,3.93,0,0,1-1.19.16,3.37,3.37,0,0,1-2.08-.62A3.52,3.52,0,0,1,53,20.26a5.63,5.63,0,0,1-.47-2l2-.14a3.14,3.14,0,0,0,.66,1.79,1.11,1.11,0,0,0,.88.4,1.33,1.33,0,0,0,1.12-.69,1.62,1.62,0,0,0,.22-.94,2.6,2.6,0,0,0-.8-1.76l-1.91-1.8a8.11,8.11,0,0,1-1.5-1.85,4.29,4.29,0,0,1-.47-2,3.45,3.45,0,0,1,1.3-2.93,3.16,3.16,0,0,1,2-.6,3.64,3.64,0,0,1,2,.51,2.94,2.94,0,0,1,1,1.11A4.31,4.31,0,0,1,59.5,11l-2.06.37A2.37,2.37,0,0,0,57,10a1,1,0,0,0-.85-.36,1,1,0,0,0-.9.52,2.1,2.1,0,0,0-.25,1,3.19,3.19,0,0,0,.84,2,7.34,7.34,0,0,0,1,.9q.75.63,1,.87A7.43,7.43,0,0,1,59,16.54a7,7,0,0,1,.33.67A4,4,0,0,1,59.59,18.57Z" transform="translate(-2 -7.73)"/><path id="Path_1491" data-name="Path 1491" class="cls-1" d="M65.93,22.27a3.38,3.38,0,0,1-3.39-3.38h0V11.11a3.39,3.39,0,0,1,6.77,0v1.62H67.09V11.08a1.23,1.23,0,0,0-1.23-1.24h0a1.19,1.19,0,0,0-.87.36,1.2,1.2,0,0,0-.35.88v7.78a1.23,1.23,0,1,0,2.45,0V16.07H65.9V13.93h3.41v5a3.38,3.38,0,0,1-3.37,3.38Z" transform="translate(-2 -7.73)"/><path id="Path_1492" data-name="Path 1492" class="cls-1" d="M73.3,22.09H71.16V7.9H73.3Z" transform="translate(-2 -7.73)"/><path id="Path_1493" data-name="Path 1493" class="cls-1" d="M77.36,22.09H75.22V7.9h6.09V10h-4v3.89h2.88v2.14H77.36Z" transform="translate(-2 -7.73)"/><path id="Path_1494" data-name="Path 1494" class="cls-1" d="M85.05,10H82.78V7.9h6.67V10H87.19V22.09H85.05Z" transform="translate(-2 -7.73)"/><path id="Path_1495" data-name="Path 1495" class="cls-1" d="M98,18.57a4,4,0,0,1-.77,2.53,2.79,2.79,0,0,1-1.47,1,4,4,0,0,1-1.19.16,3.38,3.38,0,0,1-2.09-.62,3.62,3.62,0,0,1-1.09-1.39,5.63,5.63,0,0,1-.47-2l2-.14a3.08,3.08,0,0,0,.67,1.79,1.09,1.09,0,0,0,.87.4,1.36,1.36,0,0,0,1.13-.69,1.69,1.69,0,0,0,.21-.94A2.6,2.6,0,0,0,95,16.9l-1.9-1.8a7.9,7.9,0,0,1-1.51-1.85,4.29,4.29,0,0,1-.47-2,3.45,3.45,0,0,1,1.3-2.93,3.16,3.16,0,0,1,2-.6,3.64,3.64,0,0,1,2,.51,3,3,0,0,1,1,1.11A4.31,4.31,0,0,1,97.9,11l-2.06.37a2.38,2.38,0,0,0-.5-1.35,1,1,0,0,0-.85-.36,1,1,0,0,0-.89.52,2,2,0,0,0-.25,1,3.19,3.19,0,0,0,.84,2,7.34,7.34,0,0,0,1,.9q.75.63,1,.87a7.78,7.78,0,0,1,1.22,1.57,5.16,5.16,0,0,1,.32.67A4,4,0,0,1,98,18.57Z" transform="translate(-2 -7.73)"/></g></svg>