<svg width="209" height="195" xmlns="http://www.w3.org/2000/svg" xmlns:xlink="http://www.w3.org/1999/xlink" xmlns:svgjs="http://svgjs.com/svgjs" viewBox="140 3476 209 195"><svg width="175" height="195" xmlns="http://www.w3.org/2000/svg" xmlns:xlink="http://www.w3.org/1999/xlink" xmlns:svgjs="http://svgjs.com/svgjs" viewBox="160 3476 175 195" x="160" y="3476"><svg width="151" height="47" xmlns="http://www.w3.org/2000/svg" xmlns:xlink="http://www.w3.org/1999/xlink" xmlns:svgjs="http://svgjs.com/svgjs" viewBox="0 0.388 151 46.225" fill="#fff" x="172" y="3496"><svg xmlns="http://www.w3.org/2000/svg" xmlns:xlink="http://www.w3.org/1999/xlink" width="151" height="47" viewBox="0.394 0.238 150.36 46.029"><path paint-order="stroke fill markers" fill-rule="evenodd" d="M150.554 7.937s-10.529 9.528-29.14 9.528c-3.642 0-7.591-.363-11.832-1.235C84.896 11.154 75.575.238 75.575.238S66.254 11.154 41.568 16.23c-4.241.872-8.191 1.235-11.832 1.235-18.612 0-29.14-9.528-29.14-9.528S-.563 22.633 2.68 46.267h145.786c3.244-23.634 2.087-38.33 2.087-38.33z"/></svg></svg><svg width="175" height="67" xmlns="http://www.w3.org/2000/svg" xmlns:xlink="http://www.w3.org/1999/xlink" xmlns:svgjs="http://svgjs.com/svgjs" viewBox="0 0.423 175 66.154" fill="#fff" x="160" y="3476"><svg xmlns="http://www.w3.org/2000/svg" xmlns:xlink="http://www.w3.org/1999/xlink" width="175" height="67" viewBox="0.183 0.194 174.785 66.072"><path paint-order="stroke fill markers" fill-rule="evenodd" d="M11.244 66.267c-3.159-23.25-2.097-37.81-2.032-38.632l.563-6.909 5.008 4.46c.099.084 9.946 8.676 26.953 8.676 3.644 0 7.407-.394 11.187-1.171C75.97 27.95 84.986 17.9 85.073 17.8l2.485-2.874 2.514 2.874c.092.099 9.107 10.15 32.154 14.89 3.78.777 7.543 1.17 11.187 1.17 17.007 0 26.854-8.591 26.942-8.666l5.022-4.547.557 6.984c.067.824 1.126 15.384-2.03 38.635h8.894c3.084-23.634 1.999-38.571 1.928-39.43l-1.864-25.272-18.085 16.365c-.312.268-7.893 6.56-21.364 6.56-3.084 0-6.284-.336-9.515-1.001-19.466-4.001-27.26-11.972-27.277-11.972L88.199.194l-9.48 11.11c-.075.078-7.836 8.147-27.469 12.185-3.23.665-6.433 1-9.514 1-13.472 0-21.049-6.29-21.218-6.43L2.432 1.694.424 26.838C.356 27.696-.73 42.633 2.35 66.267h8.894z"/></svg></svg><svg width="129" height="60" xmlns="http://www.w3.org/2000/svg" xmlns:xlink="http://www.w3.org/1999/xlink" xmlns:svgjs="http://svgjs.com/svgjs" viewBox="0 0.56 128.999 58.881" fill="#fff" x="183" y="3611"><svg xmlns="http://www.w3.org/2000/svg" xmlns:xlink="http://www.w3.org/1999/xlink" width="129" height="60" viewBox="0.324 0.994 128.498 58.651"><path paint-order="stroke fill markers" fill-rule="evenodd" d="M118.208.994c-14.395 22.014-33.77 35.56-51.93 46.761l-1.703 1.052-1.704-1.052C44.71 36.555 25.336 23.008 10.94.994H.325c15.524 26.633 37.56 42.187 58.115 54.868l6.136 3.783 6.131-3.783c20.556-12.68 42.595-28.239 58.116-54.868h-10.614z"/></svg></svg><svg width="101" height="45" xmlns="http://www.w3.org/2000/svg" xmlns:xlink="http://www.w3.org/1999/xlink" xmlns:svgjs="http://svgjs.com/svgjs" viewBox="0 0.281 101 44.437" fill="#fff" x="197" y="3611"><svg xmlns="http://www.w3.org/2000/svg" xmlns:xlink="http://www.w3.org/1999/xlink" width="101" height="45" viewBox="0.973 0.994 99.204 43.647"><path paint-order="stroke fill markers" fill-rule="evenodd" d="M50.575 44.64C69.692 32.845 87.147 20.02 100.176.994H.973c13.03 19.025 30.484 31.851 49.602 43.646z"/></svg></svg></svg><svg width="202" height="48" xmlns="http://www.w3.org/2000/svg" xmlns:xlink="http://www.w3.org/1999/xlink" xmlns:svgjs="http://svgjs.com/svgjs" viewBox="147 3553 202 48" x="147" y="3553"><svg width="125" height="20" xmlns="http://www.w3.org/2000/svg" xmlns:xlink="http://www.w3.org/1999/xlink" xmlns:svgjs="http://svgjs.com/svgjs" viewBox="147 3553 125 20" x="147" y="3553"><svg width="10" height="20" xmlns="http://www.w3.org/2000/svg" xmlns:xlink="http://www.w3.org/1999/xlink" xmlns:svgjs="http://svgjs.com/svgjs" viewBox="0 0.201 10 19.597" fill="#fff" x="147" y="3553"><svg xmlns="http://www.w3.org/2000/svg" xmlns:xlink="http://www.w3.org/1999/xlink" width="10" height="20" viewBox="0.064 0.824 9.528 18.673"><path paint-order="stroke fill markers" fill-rule="evenodd" d="M1.727 19.497H.064C1.812 10.837 2.01 9.493 3.756.824h2.148l3.689 18.673h-1.67l-.933-4.863H2.68l-.953 4.863zm1.15-5.959H6.78l-1.96-11-1.941 11z"/></svg></svg><svg width="10" height="20" xmlns="http://www.w3.org/2000/svg" xmlns:xlink="http://www.w3.org/1999/xlink" xmlns:svgjs="http://svgjs.com/svgjs" viewBox="0.406 0 9.188 20" fill="#fff" x="158" y="3553"><svg xmlns="http://www.w3.org/2000/svg" xmlns:xlink="http://www.w3.org/1999/xlink" width="10" height="20" viewBox="0.747 0.824 8.579 18.673"><path paint-order="stroke fill markers" fill-rule="evenodd" d="M.747 19.497V.824h1.269L7.927 15.61V.824h1.398v18.673H8.09L2.165 5.02v14.476H.747z"/></svg></svg><svg width="10" height="20" xmlns="http://www.w3.org/2000/svg" xmlns:xlink="http://www.w3.org/1999/xlink" xmlns:svgjs="http://svgjs.com/svgjs" viewBox="0.206 0 9.587 20" fill="#fff" x="168" y="3553"><svg xmlns="http://www.w3.org/2000/svg" xmlns:xlink="http://www.w3.org/1999/xlink" width="10" height="20" viewBox="0.547 0.824 8.951 18.673"><path paint-order="stroke fill markers" fill-rule="evenodd" d="M4.181 19.497V2.147H.547V.824h8.95v1.323H5.83v17.35H4.181z"/></svg></svg><svg width="3" height="20" xmlns="http://www.w3.org/2000/svg" xmlns:xlink="http://www.w3.org/1999/xlink" xmlns:svgjs="http://svgjs.com/svgjs" viewBox="0.617 0 1.767 20" fill="#fff" x="178" y="3553"><svg xmlns="http://www.w3.org/2000/svg" xmlns:xlink="http://www.w3.org/1999/xlink" width="3" height="20" viewBox="0.699 0.824 1.65 18.673"><path paint-order="stroke fill markers" fill-rule="evenodd" d="M.699 19.497V.824h1.65v18.673H.699z"/></svg></svg><svg width="12" height="20" xmlns="http://www.w3.org/2000/svg" xmlns:xlink="http://www.w3.org/1999/xlink" xmlns:svgjs="http://svgjs.com/svgjs" viewBox="0 0.049 12 19.902" fill="#fff" x="183" y="3553"><svg xmlns="http://www.w3.org/2000/svg" xmlns:xlink="http://www.w3.org/1999/xlink" width="12" height="20" viewBox="0.534 0.824 11.259 18.673"><path paint-order="stroke fill markers" fill-rule="evenodd" d="M.534 19.497V.824h2.03l3.6 16.12c1.476-7.05 2.212-9.066 3.6-16.12h2.03v18.673h-1.467V4.557L6.88 19.496H5.448L1.997 4.567v14.93H.534z"/></svg></svg><svg width="3" height="20" xmlns="http://www.w3.org/2000/svg" xmlns:xlink="http://www.w3.org/1999/xlink" xmlns:svgjs="http://svgjs.com/svgjs" viewBox="0.617 0 1.766 20" fill="#fff" x="197" y="3553"><svg xmlns="http://www.w3.org/2000/svg" xmlns:xlink="http://www.w3.org/1999/xlink" width="3" height="20" viewBox="0.973 0.824 1.649 18.673"><path paint-order="stroke fill markers" fill-rule="evenodd" d="M.973 19.497V.824h1.649v18.673H.972z"/></svg></svg><svg width="10" height="20" xmlns="http://www.w3.org/2000/svg" xmlns:xlink="http://www.w3.org/1999/xlink" xmlns:svgjs="http://svgjs.com/svgjs" viewBox="0.254 0 9.492 20" fill="#fff" x="202" y="3553"><svg xmlns="http://www.w3.org/2000/svg" xmlns:xlink="http://www.w3.org/1999/xlink" width="10" height="20" viewBox="0.513 0.563 9.124 19.226"><path paint-order="stroke fill markers" fill-rule="evenodd" d="M.513 14.081V6.26c0-3.156 1.116-5.697 4.74-5.697 3.366 0 4.384 2.541 4.384 5.697v.76H8.063V5.89c0-2.277-.642-4-2.81-4-2.43 0-3.091 1.723-3.091 4v8.56c0 2.281.661 4.015 3.091 4.015 2.168 0 2.81-1.734 2.81-4.014v-1.28h1.574v.91c0 3.135-.933 5.707-4.384 5.707-3.709 0-4.74-2.572-4.74-5.707z"/></svg></svg><svg width="10" height="20" xmlns="http://www.w3.org/2000/svg" xmlns:xlink="http://www.w3.org/1999/xlink" xmlns:svgjs="http://svgjs.com/svgjs" viewBox="0.041 0 9.918 20" fill="#fff" x="214" y="3553"><svg xmlns="http://www.w3.org/2000/svg" xmlns:xlink="http://www.w3.org/1999/xlink" width="10" height="20" viewBox="0.477 0.824 9.26 18.673"><path paint-order="stroke fill markers" fill-rule="evenodd" d="M.477 19.497V.824h4.978c3.24 0 4 2.236 4 4.828 0 1.91-.55 3.777-2.602 4.524l2.884 9.32H7.983l-2.725-9.114H2.123v9.115H.477zM2.123 9.059h3.322c1.974 0 2.365-1.714 2.365-3.46 0-1.857-.438-3.452-2.365-3.452H2.123V9.06z"/></svg></svg><svg width="11" height="20" xmlns="http://www.w3.org/2000/svg" xmlns:xlink="http://www.w3.org/1999/xlink" xmlns:svgjs="http://svgjs.com/svgjs" viewBox="0.546 0 9.908 20" fill="#fff" x="225" y="3553"><svg xmlns="http://www.w3.org/2000/svg" xmlns:xlink="http://www.w3.org/1999/xlink" width="11" height="20" viewBox="0.794 0.563 9.525 19.226"><path paint-order="stroke fill markers" fill-rule="evenodd" d="M.794 14.081V6.26C.794 3.104 1.93.563 5.554.563c3.627 0 4.764 2.541 4.764 5.697v7.821c0 3.135-1.052 5.707-4.764 5.707-3.709 0-4.76-2.572-4.76-5.707zm7.879.37V5.89c0-2.212-.69-4-3.119-4-2.43 0-3.112 1.788-3.112 4v8.56c0 2.213.683 4.015 3.112 4.015 2.43 0 3.119-1.802 3.119-4.014z"/></svg></svg><svg width="9" height="20" xmlns="http://www.w3.org/2000/svg" xmlns:xlink="http://www.w3.org/1999/xlink" xmlns:svgjs="http://svgjs.com/svgjs" viewBox="0 0.243 9 19.515" fill="#fff" x="238" y="3553"><svg xmlns="http://www.w3.org/2000/svg" xmlns:xlink="http://www.w3.org/1999/xlink" width="9" height="20" viewBox="0.213 0.824 8.612 18.673"><path paint-order="stroke fill markers" fill-rule="evenodd" d="M.213 19.497V.824h4.01c3.333 0 4.221 2.399 4.221 4.74 0 1.422-.685 3.203-2.019 3.81 1.857.747 2.4 2.973 2.4 4.554 0 2.963-.628 5.569-4.272 5.569H.213zM1.858 8.842h2.647c1.67 0 2.172-1.571 2.172-3.244 0-1.92-.597-3.515-2.671-3.515H1.858v6.759zm0 9.396H4.81c1.945 0 2.365-2.01 2.365-4.31 0-2.025-.39-3.817-2.365-3.817H1.858v8.127z"/></svg></svg><svg width="3" height="20" xmlns="http://www.w3.org/2000/svg" xmlns:xlink="http://www.w3.org/1999/xlink" xmlns:svgjs="http://svgjs.com/svgjs" viewBox="0.617 0 1.766 20" fill="#fff" x="249" y="3553"><svg xmlns="http://www.w3.org/2000/svg" xmlns:xlink="http://www.w3.org/1999/xlink" width="3" height="20" viewBox="0.39 0.824 1.649 18.673"><path paint-order="stroke fill markers" fill-rule="evenodd" d="M.39 19.497V.824h1.649v18.673H.389z"/></svg></svg><svg width="10" height="20" xmlns="http://www.w3.org/2000/svg" xmlns:xlink="http://www.w3.org/1999/xlink" xmlns:svgjs="http://svgjs.com/svgjs" viewBox="0 0.201 10 19.598" fill="#fff" x="253" y="3553"><svg xmlns="http://www.w3.org/2000/svg" xmlns:xlink="http://www.w3.org/1999/xlink" width="10" height="20" viewBox="0.19 0.824 9.528 18.673"><path paint-order="stroke fill markers" fill-rule="evenodd" d="M1.853 19.497H.19C1.938 10.837 2.135 9.493 3.882.824H6.03l3.688 18.673H8.05l-.933-4.863h-4.31l-.953 4.863zm1.15-5.959h3.903l-1.962-11-1.941 11z"/></svg></svg><svg width="8" height="20" xmlns="http://www.w3.org/2000/svg" xmlns:xlink="http://www.w3.org/1999/xlink" xmlns:svgjs="http://svgjs.com/svgjs" viewBox="0.322 0 7.356 20" fill="#fff" x="264" y="3553"><svg xmlns="http://www.w3.org/2000/svg" xmlns:xlink="http://www.w3.org/1999/xlink" width="8" height="20" viewBox="0.87 0.824 6.868 18.673"><path paint-order="stroke fill markers" fill-rule="evenodd" d="M.87 19.497V.824h1.649v17.35h5.219v1.323H.87z"/></svg></svg></svg><svg width="124" height="21" xmlns="http://www.w3.org/2000/svg" xmlns:xlink="http://www.w3.org/1999/xlink" xmlns:svgjs="http://svgjs.com/svgjs" viewBox="147 3580 124 21" x="147" y="3580"><svg width="10" height="20" xmlns="http://www.w3.org/2000/svg" xmlns:xlink="http://www.w3.org/1999/xlink" xmlns:svgjs="http://svgjs.com/svgjs" viewBox="0 0.198 10 19.604" fill="#fff" x="147" y="3580"><svg xmlns="http://www.w3.org/2000/svg" xmlns:xlink="http://www.w3.org/1999/xlink" width="10" height="20" viewBox="0.084 0.627 9.79 19.192"><path paint-order="stroke fill markers" fill-rule="evenodd" d="M1.791 19.819H.084c1.799-8.897 2-10.282 3.791-19.192h2.212l3.787 19.192H8.157L7.2 14.824H2.772l-.98 4.995zm1.181-6.122H6.99L4.97 2.391 2.973 13.697z"/></svg></svg><svg width="9" height="20" xmlns="http://www.w3.org/2000/svg" xmlns:xlink="http://www.w3.org/1999/xlink" xmlns:svgjs="http://svgjs.com/svgjs" viewBox="0 0.211 9 19.579" fill="#fff" x="159" y="3580"><svg xmlns="http://www.w3.org/2000/svg" xmlns:xlink="http://www.w3.org/1999/xlink" width="9" height="20" viewBox="0.059 0.627 8.822 19.192"><path paint-order="stroke fill markers" fill-rule="evenodd" d="M.06 19.819V.627h1.302l6.08 15.198V.627h1.44v19.192H7.605L1.52 4.943v14.876H.059z"/></svg></svg><svg width="10" height="20" xmlns="http://www.w3.org/2000/svg" xmlns:xlink="http://www.w3.org/1999/xlink" xmlns:svgjs="http://svgjs.com/svgjs" viewBox="0.207 0 9.586 20" fill="#fff" x="169" y="3580"><svg xmlns="http://www.w3.org/2000/svg" xmlns:xlink="http://www.w3.org/1999/xlink" width="10" height="20" viewBox="0.1 0.627 9.199 19.192"><path paint-order="stroke fill markers" fill-rule="evenodd" d="M3.833 19.819V1.99H.1V.627h9.199V1.99h-3.77v17.828H3.833z"/></svg></svg><svg width="3" height="20" xmlns="http://www.w3.org/2000/svg" xmlns:xlink="http://www.w3.org/1999/xlink" xmlns:svgjs="http://svgjs.com/svgjs" viewBox="0.616 0 1.768 20" fill="#fff" x="179" y="3580"><svg xmlns="http://www.w3.org/2000/svg" xmlns:xlink="http://www.w3.org/1999/xlink" width="3" height="20" viewBox="0.51 0.627 1.697 19.192"><path paint-order="stroke fill markers" fill-rule="evenodd" d="M.51 19.819V.627h1.697v19.192H.51z"/></svg></svg><svg width="10" height="20" xmlns="http://www.w3.org/2000/svg" xmlns:xlink="http://www.w3.org/1999/xlink" xmlns:svgjs="http://svgjs.com/svgjs" viewBox="0.387 0 9.226 20" fill="#fff" x="184" y="3580"><svg xmlns="http://www.w3.org/2000/svg" xmlns:xlink="http://www.w3.org/1999/xlink" width="10" height="20" viewBox="0.467 0.627 8.853 19.192"><path paint-order="stroke fill markers" fill-rule="evenodd" d="M.467 19.819V.627h4.127c3.424 0 4.336 2.466 4.336 4.876 0 1.459-.702 3.288-2.073 3.912 1.907.77 2.463 3.054 2.463 4.683 0 3.047-.644 5.72-4.393 5.72H.467zm1.694-10.95h2.725c1.717 0 2.229-1.615 2.229-3.336 0-1.971-.614-3.61-2.742-3.61H2.161v6.946zm0 9.657h3.037c1.995 0 2.43-2.063 2.43-4.428 0-2.084-.401-3.926-2.43-3.926H2.161v8.354z"/></svg></svg><svg width="11" height="20" xmlns="http://www.w3.org/2000/svg" xmlns:xlink="http://www.w3.org/1999/xlink" xmlns:svgjs="http://svgjs.com/svgjs" viewBox="0.399 0 10.202 20" fill="#fff" x="194" y="3580"><svg xmlns="http://www.w3.org/2000/svg" xmlns:xlink="http://www.w3.org/1999/xlink" width="11" height="20" viewBox="0.752 0.627 9.79 19.192"><path paint-order="stroke fill markers" fill-rule="evenodd" d="M2.46 19.819H.751c1.799-8.897 2-10.282 3.791-19.192h2.212l3.787 19.192H8.825l-.957-4.995H3.44l-.98 4.995zm1.18-6.122h4.018L5.638 2.391 3.64 13.697z"/></svg></svg><svg width="10" height="21" xmlns="http://www.w3.org/2000/svg" xmlns:xlink="http://www.w3.org/1999/xlink" xmlns:svgjs="http://svgjs.com/svgjs" viewBox="0.016 0 9.968 21" fill="#fff" x="206" y="3580"><svg xmlns="http://www.w3.org/2000/svg" xmlns:xlink="http://www.w3.org/1999/xlink" width="10" height="21" viewBox="0.283 0.362 9.379 19.759"><path paint-order="stroke fill markers" fill-rule="evenodd" d="M.283 14.254V6.215c0-3.243 1.15-5.853 4.872-5.853 3.454 0 4.507 2.61 4.507 5.853v.78h-1.62v-1.16c0-2.341-.658-4.112-2.887-4.112-2.497 0-3.18 1.771-3.18 4.112v8.799c0 2.341.683 4.126 3.18 4.126 2.23 0 2.888-1.785 2.888-4.126v-1.317h1.619v.937c0 3.223-.964 5.867-4.507 5.867-3.81 0-4.872-2.644-4.872-5.867z"/></svg></svg><svg width="10" height="20" xmlns="http://www.w3.org/2000/svg" xmlns:xlink="http://www.w3.org/1999/xlink" xmlns:svgjs="http://svgjs.com/svgjs" viewBox="0.205 0 9.59 20" fill="#fff" x="216" y="3580"><svg xmlns="http://www.w3.org/2000/svg" xmlns:xlink="http://www.w3.org/1999/xlink" width="10" height="20" viewBox="0.523 0.627 9.203 19.192"><path paint-order="stroke fill markers" fill-rule="evenodd" d="M4.26 19.819V1.99H.522V.627h9.203V1.99h-3.77v17.828H4.259z"/></svg></svg><svg width="8" height="20" xmlns="http://www.w3.org/2000/svg" xmlns:xlink="http://www.w3.org/1999/xlink" xmlns:svgjs="http://svgjs.com/svgjs" viewBox="0.515 0 6.97 20" fill="#fff" x="226" y="3580"><svg xmlns="http://www.w3.org/2000/svg" xmlns:xlink="http://www.w3.org/1999/xlink" width="8" height="20" viewBox="0.947 0.627 6.688 19.192"><path paint-order="stroke fill markers" fill-rule="evenodd" d="M.947 19.819V.627h6.688V1.99H2.64v7.268h3.57v1.283H2.64v7.916h4.995v1.36H.947z"/></svg></svg><svg width="11" height="20" xmlns="http://www.w3.org/2000/svg" xmlns:xlink="http://www.w3.org/1999/xlink" xmlns:svgjs="http://svgjs.com/svgjs" viewBox="0.537 0 9.926 20" fill="#fff" x="235" y="3580"><svg xmlns="http://www.w3.org/2000/svg" xmlns:xlink="http://www.w3.org/1999/xlink" width="11" height="20" viewBox="0.936 0.627 9.525 19.192"><path paint-order="stroke fill markers" fill-rule="evenodd" d="M.936 19.819V.627h5.117c3.335 0 4.112 2.297 4.112 4.964 0 1.961-.566 3.878-2.673 4.649l2.969 9.579H8.652l-2.8-9.366H2.63v9.366H.936zm1.693-10.73h3.413c2.03 0 2.43-1.757 2.43-3.556 0-1.903-.448-3.542-2.43-3.542H2.63v7.098z"/></svg></svg><svg width="3" height="20" xmlns="http://www.w3.org/2000/svg" xmlns:xlink="http://www.w3.org/1999/xlink" xmlns:svgjs="http://svgjs.com/svgjs" viewBox="0.616 0 1.768 20" fill="#fff" x="247" y="3580"><svg xmlns="http://www.w3.org/2000/svg" xmlns:xlink="http://www.w3.org/1999/xlink" width="3" height="20" viewBox="0.825 0.627 1.697 19.192"><path paint-order="stroke fill markers" fill-rule="evenodd" d="M.825 19.819V.627h1.697v19.192H.825z"/></svg></svg><svg width="11" height="20" xmlns="http://www.w3.org/2000/svg" xmlns:xlink="http://www.w3.org/1999/xlink" xmlns:svgjs="http://svgjs.com/svgjs" viewBox="0.399 0 10.201 20" fill="#fff" x="251" y="3580"><svg xmlns="http://www.w3.org/2000/svg" xmlns:xlink="http://www.w3.org/1999/xlink" width="11" height="20" viewBox="0.721 0.627 9.789 19.192"><path paint-order="stroke fill markers" fill-rule="evenodd" d="M2.428 19.819H.72C2.519 10.922 2.719 9.537 4.511.627h2.213l3.786 19.192H8.793l-.957-4.995H3.41l-.981 4.995zm1.18-6.122h4.018L5.607 2.391 3.608 13.697z"/></svg></svg><svg width="8" height="20" xmlns="http://www.w3.org/2000/svg" xmlns:xlink="http://www.w3.org/1999/xlink" xmlns:svgjs="http://svgjs.com/svgjs" viewBox="0.323 0 7.355 20" fill="#fff" x="263" y="3580"><svg xmlns="http://www.w3.org/2000/svg" xmlns:xlink="http://www.w3.org/1999/xlink" width="8" height="20" viewBox="0.696 0.627 7.058 19.192"><path paint-order="stroke fill markers" fill-rule="evenodd" d="M.696 19.819V.627h1.693v17.831h5.364v1.36H.696z"/></svg></svg></svg><svg width="72" height="47" xmlns="http://www.w3.org/2000/svg" xmlns:xlink="http://www.w3.org/1999/xlink" xmlns:svgjs="http://svgjs.com/svgjs" viewBox="277 3553 72 47" x="277" y="3553"><svg width="24" height="47" xmlns="http://www.w3.org/2000/svg" xmlns:xlink="http://www.w3.org/1999/xlink" xmlns:svgjs="http://svgjs.com/svgjs" viewBox="0.694 0 22.612 47" fill="#fff" x="277" y="3553"><svg xmlns="http://www.w3.org/2000/svg" xmlns:xlink="http://www.w3.org/1999/xlink" width="24" height="47" viewBox="0.893 0.508 22.209 46.161"><path paint-order="stroke fill markers" fill-rule="evenodd" d="M.893 46.67V.507h11.293C20.42.508 23.1 6.277 23.1 12.928c0 6.572-2.144 13.223-10.943 13.223H4.972v20.518H.892zm4.079-23.79l7.671.027c4.666.027 6.383-3.22 6.383-9.898 0-6.41-2.12-9.226-6.383-9.226H4.972V22.88z"/></svg></svg><svg width="17" height="47" xmlns="http://www.w3.org/2000/svg" xmlns:xlink="http://www.w3.org/1999/xlink" xmlns:svgjs="http://svgjs.com/svgjs" viewBox="0.307 0 16.387 47" fill="#fff" x="305" y="3553"><svg xmlns="http://www.w3.org/2000/svg" xmlns:xlink="http://www.w3.org/1999/xlink" width="17" height="47" viewBox="0.235 0.508 16.094 46.161"><path paint-order="stroke fill markers" fill-rule="evenodd" d="M.235 46.67V.507H16.33v3.275H4.314V21.27h8.581v3.085H4.314v19.042h12.015v3.271H.235z"/></svg></svg><svg width="23" height="47" xmlns="http://www.w3.org/2000/svg" xmlns:xlink="http://www.w3.org/1999/xlink" xmlns:svgjs="http://svgjs.com/svgjs" viewBox="0.7 0 21.6 47" fill="#fff" x="326" y="3553"><svg xmlns="http://www.w3.org/2000/svg" xmlns:xlink="http://www.w3.org/1999/xlink" width="23" height="47" viewBox="0.87 0.508 21.214 46.161"><path paint-order="stroke fill markers" fill-rule="evenodd" d="M.87 46.67V.507H4.01L18.627 37.07V.508h3.457V46.67h-3.057L4.382 10.89v35.78H.87z"/></svg></svg></svg></svg><svg width="209" height="4" xmlns="http://www.w3.org/2000/svg" xmlns:xlink="http://www.w3.org/1999/xlink" xmlns:svgjs="http://svgjs.com/svgjs" viewBox="0 0.298 209 3.405" fill="#fff" x="140" y="3540"><svg xmlns="http://www.w3.org/2000/svg" xmlns:xlink="http://www.w3.org/1999/xlink" width="209" height="4" viewBox="0 0.57 208.085 3.39"><path paint-order="stroke fill markers" fill-rule="evenodd" d="M0 2.267c17.34-.7 34.678-1.029 52.02-1.3C69.36.689 86.704.712 104.043.57c17.34.132 34.682.119 52.022.39l26.012.475c8.67.282 17.339.445 26.008.832-8.67.383-17.339.55-26.008.83l-26.012.472c-17.34.272-34.683.258-52.022.39-17.34-.142-34.681-.115-52.021-.393-17.343-.271-34.682-.6-52.021-1.3z"/></svg></svg><svg width="209" height="4" xmlns="http://www.w3.org/2000/svg" xmlns:xlink="http://www.w3.org/1999/xlink" xmlns:svgjs="http://svgjs.com/svgjs" viewBox="0 0.298 209 3.405" fill="#fff" x="140" y="3610"><svg xmlns="http://www.w3.org/2000/svg" width="209" height="4" viewBox="0 0.09 208.085 3.39"><path paint-order="stroke fill markers" fill-rule="evenodd" d="M0 1.786C17.34 1.087 34.678.758 52.02.486 69.36.21 86.704.233 104.043.09c17.34.136 34.682.122 52.022.39l26.012.475c8.67.282 17.339.448 26.008.831-8.67.384-17.339.55-26.008.832l-26.012.471c-17.34.272-34.683.258-52.022.39-17.34-.138-34.681-.115-52.021-.393-17.343-.271-34.682-.6-52.021-1.3z"/></svg></svg></svg>