<svg xmlns="http://www.w3.org/2000/svg" xmlns:xlink="http://www.w3.org/1999/xlink" width="302.95" height="81.369" viewBox="0 0 302.95 81.369">
  <defs>
    <linearGradient id="linear-gradient" x1="-30.148" y1="-31.337" x2="-29.984" y2="-31.337" gradientUnits="objectBoundingBox">
      <stop offset="0" stop-color="#c77351"/>
      <stop offset="0.198" stop-color="#d97f60"/>
      <stop offset="0.394" stop-color="#e39d8c"/>
      <stop offset="0.54" stop-color="#c77351"/>
      <stop offset="0.685" stop-color="#d97f60"/>
      <stop offset="0.831" stop-color="#e39d8c"/>
      <stop offset="1" stop-color="#c77351"/>
    </linearGradient>
    <clipPath id="clip-path">
      <path id="Path_1496" data-name="Path 1496" d="M534.343,2036.185v27.326a139.584,139.584,0,0,0,1.814,16.693h2.476a139.584,139.584,0,0,0,1.814-16.693v-27.326Z" fill="none"/>
    </clipPath>
    <linearGradient id="linear-gradient-2" x1="-70.305" y1="-31.337" x2="-70.299" y2="-31.337" xlink:href="#linear-gradient"/>
    <clipPath id="clip-path-2">
      <path id="Path_1497" data-name="Path 1497" d="M533.139,2032.458v-20.589c-.015-.628.012-2.881,0-3.913a.618.618,0,0,1,.42-.766.609.609,0,0,1,.18-.025c.433,0,.822-.01.822.087v.123c0,.1-.389.144-.822.144v22.356h.181c.3,0,.768,1.66-.339,2.941-.422,0-.439-.012-.439-.358" fill="none"/>
    </clipPath>
    <linearGradient id="linear-gradient-3" x1="-598.648" y1="-53.844" x2="-598.565" y2="-53.844" gradientUnits="objectBoundingBox">
      <stop offset="0" stop-color="#963"/>
      <stop offset="0.17" stop-color="#b98633"/>
      <stop offset="0.3" stop-color="#c93"/>
      <stop offset="0.41" stop-color="#ffc"/>
      <stop offset="0.77" stop-color="#c93"/>
      <stop offset="1" stop-color="#633"/>
    </linearGradient>
    <linearGradient id="linear-gradient-4" x1="-30.143" y1="-48.992" x2="-29.98" y2="-48.992" xlink:href="#linear-gradient"/>
    <clipPath id="clip-path-3">
      <path id="Path_1498" data-name="Path 1498" d="M534.342,2035.325v-22.612l.232-5.461v.038h5.64l.233,5.518v22.517Z" fill="none"/>
    </clipPath>
    <linearGradient id="linear-gradient-5" x1="-70.305" y1="-48.992" x2="-70.299" y2="-48.992" xlink:href="#linear-gradient"/>
    <linearGradient id="linear-gradient-6" x1="-45.861" y1="-670.345" x2="-45.457" y2="-670.345" gradientUnits="objectBoundingBox">
      <stop offset="0"/>
      <stop offset="0.32"/>
      <stop offset="0.5" stop-color="#4c4c4c"/>
      <stop offset="0.74"/>
      <stop offset="1"/>
    </linearGradient>
    <clipPath id="clip-path-4">
      <path id="Path_1499" data-name="Path 1499" d="M536.157,2080.2l.5,3.012h1.473l.5-3.012Z" fill="none"/>
    </clipPath>
    <linearGradient id="linear-gradient-7" x1="-293.95" y1="-670.343" x2="-293.916" y2="-670.343" xlink:href="#linear-gradient-6"/>
    <clipPath id="clip-path-5">
      <path id="Path_1500" data-name="Path 1500" d="M540.22,2007.29v-1.379a.209.209,0,0,0-.208-.21h-5.228a.21.21,0,0,0-.21.21v1.379Z" fill="none"/>
    </clipPath>
    <linearGradient id="linear-gradient-8" x1="-78.948" y1="-1584.086" x2="-78.942" y2="-1584.086" xlink:href="#linear-gradient-6"/>
    <clipPath id="clip-path-6">
      <rect id="Rectangle_41" data-name="Rectangle 41" width="6.105" height="0.86" transform="translate(534.342 2035.324)" fill="none"/>
    </clipPath>
    <linearGradient id="linear-gradient-9" x1="-70.326" y1="-4155.897" x2="-70.321" y2="-4155.897" xlink:href="#linear-gradient-6"/>
    <clipPath id="clip-path-7">
      <path id="Path_1501" data-name="Path 1501" d="M537.411,2084.713c.277-.048.418-.747.543-1.5h-1.119c.135.762.316,1.519.576,1.5" fill="none"/>
    </clipPath>
    <linearGradient id="linear-gradient-10" x1="-1124.618" y1="-1744.821" x2="-1124.446" y2="-1744.821" gradientUnits="objectBoundingBox">
      <stop offset="0" stop-color="#4c4c4c"/>
      <stop offset="0.04" stop-color="#e5e5e5"/>
      <stop offset="0.18" stop-color="#7f7f7f"/>
      <stop offset="0.41" stop-color="#333"/>
      <stop offset="0.56" stop-color="#fff"/>
      <stop offset="0.65" stop-color="#b2b2b2"/>
      <stop offset="0.91" stop-color="#e5e5e5"/>
      <stop offset="1" stop-color="#999"/>
    </linearGradient>
  </defs>
  <g id="Group_600" data-name="Group 600" transform="translate(-504.566 -2005.701)">
    <g id="Group_600-2" data-name="Group 600">
      <path id="Path_1484" data-name="Path 1484" d="M588.057,2055.489a8.062,8.062,0,0,1-2.429,5.89,7.922,7.922,0,0,1-5.833,2.449h-8.263v-34.884h8.263a7.9,7.9,0,0,1,5.851,2.448,8.071,8.071,0,0,1,2.411,5.871Zm-11.265,3.136h3.165a2.793,2.793,0,0,0,2.116-.908,3,3,0,0,0,.858-2.133v-18.245a2.928,2.928,0,0,0-.877-2.132,2.843,2.843,0,0,0-2.1-.889h-3.165Z"/>
      <path id="Path_1485" data-name="Path 1485" d="M600.89,2028.523a8.341,8.341,0,0,1,8.357,8.357v19.03a8.341,8.341,0,0,1-8.357,8.357,7.956,7.956,0,0,1-5.881-2.447,8.1,8.1,0,0,1-2.42-5.91v-19.03a8.341,8.341,0,0,1,8.3-8.357Zm2.868,8.26a2.969,2.969,0,0,0-3-3,2.942,2.942,0,0,0-2.133.869,2.865,2.865,0,0,0-.889,2.131v19.091a2.877,2.877,0,0,0,.889,2.122,2.93,2.93,0,0,0,2.133.878,2.984,2.984,0,0,0,3-3Z"/>
      <path id="Path_1486" data-name="Path 1486" d="M622.118,2064.267a8.3,8.3,0,0,1-8.339-8.319v-19.106a8.329,8.329,0,1,1,16.658,0v3.979h-5.45v-4.075a3.037,3.037,0,0,0-3.041-3.041,2.877,2.877,0,0,0-2.123.89,2.945,2.945,0,0,0-.88,2.151v19.145a3,3,0,0,0,3,3.021,2.944,2.944,0,0,0,2.152-.879,2.9,2.9,0,0,0,.889-2.142v-4.8h5.45v4.858a8.309,8.309,0,0,1-8.319,8.319Z"/>
      <path id="Path_1487" data-name="Path 1487" d="M639.637,2034.2h-5.585v-5.259h16.409v5.259H644.9v29.625h-5.259Z"/>
      <path id="Path_1488" data-name="Path 1488" d="M662.376,2028.523a8.341,8.341,0,0,1,8.357,8.357v19.03a8.341,8.341,0,0,1-8.357,8.357,7.956,7.956,0,0,1-5.881-2.447,8.1,8.1,0,0,1-2.42-5.91v-19.03a8.341,8.341,0,0,1,8.3-8.357Zm2.868,8.26a2.969,2.969,0,0,0-3-3,2.942,2.942,0,0,0-2.133.869,2.868,2.868,0,0,0-.888,2.131v19.091a2.88,2.88,0,0,0,.888,2.122,2.93,2.93,0,0,0,2.133.878,2.984,2.984,0,0,0,3-3Z"/>
      <path id="Path_1489" data-name="Path 1489" d="M683.662,2028.944q4.4,0,6.445,2.428a8.778,8.778,0,0,1,1.818,5.891v5.068a8.116,8.116,0,0,1-2.807,6.254l3.9,15.243h-5.673l-3.207-13.177c-.154.012-.313.018-.478.018h-3.016v13.159h-5.26v-34.884Zm3.137,8.415q0-3.042-2.993-3.041h-3.165v11.149h3.165a2.858,2.858,0,0,0,2.126-.888,2.947,2.947,0,0,0,.867-2.133Z"/>
      <path id="Path_1490" data-name="Path 1490" d="M713.114,2055.163a9.784,9.784,0,0,1-1.893,6.236,6.726,6.726,0,0,1-3.615,2.467,9.676,9.676,0,0,1-2.925.4,8.275,8.275,0,0,1-5.126-1.529,8.754,8.754,0,0,1-2.677-3.414,13.494,13.494,0,0,1-1.149-4.963l4.993-.345a7.566,7.566,0,0,0,1.626,4.4,2.661,2.661,0,0,0,2.16.976,3.282,3.282,0,0,0,2.755-1.684,4.232,4.232,0,0,0,.535-2.314,6.443,6.443,0,0,0-1.97-4.341q-1.569-1.471-4.685-4.418a19.337,19.337,0,0,1-3.692-4.532,10.518,10.518,0,0,1-1.167-4.9,8.52,8.52,0,0,1,3.2-7.209,7.942,7.942,0,0,1,4.9-1.473,8.868,8.868,0,0,1,4.82,1.263,7.233,7.233,0,0,1,2.505,2.724,10.268,10.268,0,0,1,1.167,4.027l-5.049.917a5.894,5.894,0,0,0-1.224-3.328,2.554,2.554,0,0,0-2.085-.88,2.423,2.423,0,0,0-2.2,1.282,4.943,4.943,0,0,0-.612,2.563,7.706,7.706,0,0,0,2.066,4.877,18.312,18.312,0,0,0,2.333,2.218q1.834,1.53,2.428,2.143a18.532,18.532,0,0,1,3,3.843,13.878,13.878,0,0,1,.8,1.645A9.742,9.742,0,0,1,713.114,2055.163Z"/>
      <path id="Path_1491" data-name="Path 1491" d="M728.682,2064.267a8.324,8.324,0,0,1-8.339-8.319v-19.106a8.329,8.329,0,1,1,16.658,0v3.979h-5.45v-4.075a3.039,3.039,0,0,0-3.041-3.041,2.877,2.877,0,0,0-2.123.89,2.945,2.945,0,0,0-.88,2.151v19.145a3.022,3.022,0,1,0,6.044,0v-6.866h-2.927v-5.26H737v12.183a8.309,8.309,0,0,1-8.319,8.319Z"/>
      <path id="Path_1492" data-name="Path 1492" d="M746.812,2063.828h-5.259v-34.884h5.259Z"/>
      <path id="Path_1493" data-name="Path 1493" d="M756.776,2063.828h-5.259v-34.884h14.975v5.259h-9.716v9.562h7.1v5.26h-7.1Z"/>
      <path id="Path_1494" data-name="Path 1494" d="M775.691,2034.2h-5.585v-5.259h16.41v5.259h-5.565v29.625h-5.26Z"/>
      <path id="Path_1495" data-name="Path 1495" d="M807.515,2055.163a9.779,9.779,0,0,1-1.894,6.236,6.723,6.723,0,0,1-3.614,2.467,9.688,9.688,0,0,1-2.926.4,8.279,8.279,0,0,1-5.126-1.529,8.754,8.754,0,0,1-2.677-3.414,13.475,13.475,0,0,1-1.148-4.963l4.992-.345a7.58,7.58,0,0,0,1.626,4.4,2.663,2.663,0,0,0,2.16.976,3.279,3.279,0,0,0,2.755-1.684,4.224,4.224,0,0,0,.535-2.314,6.446,6.446,0,0,0-1.969-4.341q-1.569-1.471-4.686-4.418a19.3,19.3,0,0,1-3.691-4.532,10.505,10.505,0,0,1-1.167-4.9,8.519,8.519,0,0,1,3.194-7.209,7.942,7.942,0,0,1,4.895-1.473,8.872,8.872,0,0,1,4.821,1.263,7.249,7.249,0,0,1,2.505,2.724,10.3,10.3,0,0,1,1.167,4.027l-5.049.917a5.9,5.9,0,0,0-1.225-3.328,2.552,2.552,0,0,0-2.085-.88,2.424,2.424,0,0,0-2.2,1.282,4.953,4.953,0,0,0-.611,2.563,7.7,7.7,0,0,0,2.065,4.877,18.45,18.45,0,0,0,2.333,2.218q1.836,1.53,2.429,2.143a18.532,18.532,0,0,1,3,3.843,13.851,13.851,0,0,1,.8,1.645A9.744,9.744,0,0,1,807.515,2055.163Z"/>
    </g>
    <g id="Group_615" data-name="Group 615">
      <path id="Path_1443" data-name="Path 1443" d="M537.4,2084.768a13.452,13.452,0,0,1,1.691-.886,12.359,12.359,0,0,1,1.822-.651.592.592,0,0,1,.618.243.9.9,0,0,1,.1.6,6.687,6.687,0,0,1-.262.953,15.351,15.351,0,0,0-.537,1.783l-.158-.312a.748.748,0,0,0,.466-.127c.2-.1.4-.248.628-.377q.649-.384,1.332-.713a19.463,19.463,0,0,1,2.8-1.119,11.847,11.847,0,0,1,2.979-.541,10.178,10.178,0,0,1,2.985.308,13.127,13.127,0,0,0-2.958.019,12.4,12.4,0,0,0-2.844.7,25.066,25.066,0,0,0-2.709,1.152q-.659.335-1.3.7c-.208.114-.41.255-.657.382a1.154,1.154,0,0,1-.957.133.256.256,0,0,1-.167-.3v-.017a15.046,15.046,0,0,1,.614-1.835,6.75,6.75,0,0,0,.3-.861c.054-.287,0-.42-.219-.406-.582.121-1.207.306-1.8.489A18.741,18.741,0,0,0,537.4,2084.768Z"/>
      <path id="Path_1444" data-name="Path 1444" d="M536.788,2022.816h-.094c.036.071.063.139.094.206Z" fill="#bddeb4"/>
      <path id="Path_1445" data-name="Path 1445" d="M520.71,2035.065c-.433-2.232-1.128-5.848-1.34-7.958a4.651,4.651,0,0,1-.058-.89c0-.042-.006-.092-.006-.129,0,.01.008.025.008.037a5.955,5.955,0,0,1,.081-.822c.254-1.525,2.852-3.874,6.108-3.736s6.568,1.681,6.973,2.63c.283.66.162,3.21-1.741,4.023-.836.358-3.052-.429-4.477-.112a4.763,4.763,0,0,0-2.005,1.656c2.232,1.217,4.941,2.563,7.546,3.855a19.562,19.562,0,0,0,3.237-3.426,20.7,20.7,0,0,0,1.544-3.776v-3.183c-.029-.069-.058-.137-.092-.208-1.125-2.334-4.552-5.542-8.509-5.428-4.916.141-10.352,3.838-13.225,4.489-1.806.41-6.029-.441-8.831-2.347s-.445,3.514-.135,4.169a27.678,27.678,0,0,0,6.686,7.337c.7.468,1.479.93,2.3,1.371a32.535,32.535,0,0,0,3.019,1.419A29.391,29.391,0,0,0,520.71,2035.065Z" fill="#00639b"/>
      <path id="Path_1446" data-name="Path 1446" d="M569,2023.91c.312-.655,2.667-6.074-.135-4.169s-7.023,2.757-8.829,2.347c-2.873-.651-8.309-4.348-13.225-4.489-3.947-.113-7.365,3.075-8.5,5.407-.062.131-.121.26-.171.385v2.767a20.019,20.019,0,0,0,1.614,4.036,18.673,18.673,0,0,0,4.308,4.229c2.567-1.442,5.2-2.944,7.335-4.3-.533-.7-1.5-1.843-2.29-2.018-1.423-.316-3.639.47-4.475.112-1.906-.813-2.026-3.364-1.743-4.023.408-.949,3.72-2.494,6.973-2.63s5.856,2.211,6.11,3.736a6.406,6.406,0,0,1,.081.853c0-.013.006-.027.006-.038v.456a4.67,4.67,0,0,1-.044.487c-.248,2.1-1.246,5.715-1.8,7.968a31.832,31.832,0,0,0,5.107-2.051c.158-.079.318-.16.474-.243a28.077,28.077,0,0,0,2.528-1.488A27.712,27.712,0,0,0,569,2023.91Z" fill="#00639b"/>
      <path id="Path_1447" data-name="Path 1447" d="M534.672,2071.9c.6-.472,1.242-.919,1.908-1.352v-.836a38.13,38.13,0,0,1-4.93-3.589,3.6,3.6,0,0,0-.666,2.638C531.358,2069.955,532.646,2070.413,534.672,2071.9Z" fill="#0be"/>
      <path id="Path_1448" data-name="Path 1448" d="M538.14,2075.034c3.272,3.7.818,7.233-.042,8.294a.76.76,0,0,1-.158.306,4.013,4.013,0,0,0,.487-.287c1.03-.676,3.106-2.261,3.3-2.809a7.683,7.683,0,0,0,1.275-2.877c.246-1.974-.826-3.591-2.467-5.06-.6.477-1.388,1.08-2.4,1.854Z" fill="#0be"/>
      <path id="Path_1449" data-name="Path 1449" d="M538.14,2062.3a15.918,15.918,0,0,1,4.381,4.173,6.6,6.6,0,0,0,1.868-2.713c.035-.181.083-.36.112-.545.229-1.65-1.073-3.139-3.218-4.785-1.011.693-2.082,1.439-3.143,2.282Z" fill="#0be"/>
      <path id="Path_1450" data-name="Path 1450" d="M544.495,2064.034l-.426,1.706C544.225,2065.176,544.366,2064.606,544.495,2064.034Z" fill="#76c27a"/>
      <path id="Path_1451" data-name="Path 1451" d="M543.272,2068.925" fill="#76c27a"/>
      <path id="Path_1452" data-name="Path 1452" d="M532.581,2058.422c1.161-.83,2.546-1.7,4-2.638v-.607c-2.419-1.583-5.172-2.925-7.225-4.179-1.267,1.015-2.1,2.084-1.929,3.087C527.793,2055.565,530.019,2056.859,532.581,2058.422Z" fill="#0be"/>
      <path id="Path_1453" data-name="Path 1453" d="M519.577,2026.9c-.033-.343-.054-.641-.058-.89A4.82,4.82,0,0,0,519.577,2026.9Z" fill="#0a9f49"/>
      <path id="Path_1454" data-name="Path 1454" d="M524.254,2029.765a4.763,4.763,0,0,1,2-1.656c1.425-.316,3.641.47,4.477.112,1.9-.813,2.024-3.364,1.741-4.023-.406-.949-3.718-2.494-6.973-2.63s-5.854,2.211-6.108,3.736a5.957,5.957,0,0,0-.081.822C519.38,2026.885,521.427,2028.221,524.254,2029.765Z" fill="#0087c7"/>
      <path id="Path_1455" data-name="Path 1455" d="M538.346,2036.64v.9c.258-.148.524-.3.8-.452C538.891,2036.94,538.629,2036.794,538.346,2036.64Z" fill="#0be"/>
      <path id="Path_1456" data-name="Path 1456" d="M530.985,2042.149c1.238-.765,2.575-1.568,3.882-2.442.449-.3,1.034-.659,1.712-1.061v-2.623c-1.437-.745-3.083-1.562-4.781-2.4-2.6-1.292-5.313-2.638-7.546-3.855-2.827-1.543-4.876-2.881-4.939-3.638,0-.013-.008-.027-.008-.037a.968.968,0,0,0,.006.129c0,.25.025.547.058.89.212,2.11.907,5.725,1.34,7.958.1.532.191.992.254,1.327C521.293,2037.722,526.575,2040.236,530.985,2042.149Z" fill="#0be"/>
      <path id="Path_1457" data-name="Path 1457" d="M546.095,2049.988a4.848,4.848,0,0,0,2.13-2.372,10.967,10.967,0,0,0,.316-1.35c.193-1.39-.868-2.742-2.584-4.165-2.627,1.483-5.236,2.84-6.661,3.578C541.495,2046.672,544.647,2048.271,546.095,2049.988Z" fill="#0be"/>
      <path id="Path_1458" data-name="Path 1458" d="M556.266,2026.049v0Z" fill="#76c27a"/>
      <path id="Path_1459" data-name="Path 1459" d="M556.258,2026.365c-.01.152-.025.314-.046.489C556.233,2026.717,556.247,2026.548,556.258,2026.365Z" fill="#76c27a"/>
      <path id="Path_1460" data-name="Path 1460" d="M556.054,2026.157a6.42,6.42,0,0,0-.081-.853c-.254-1.525-2.854-3.874-6.11-3.736s-6.566,1.681-6.973,2.63c-.283.66-.162,3.21,1.743,4.023.836.358,3.052-.429,4.475-.112.786.175,1.758,1.315,2.29,2.018C554.1,2028.417,556.023,2026.952,556.054,2026.157Z" fill="#0be"/>
      <g id="Group_584" data-name="Group 584">
        <path id="Path_1461" data-name="Path 1461" d="M534.343,2036.185v27.326a139.584,139.584,0,0,0,1.814,16.693h2.476a139.584,139.584,0,0,0,1.814-16.693v-27.326Z" fill-rule="evenodd" fill="url(#linear-gradient)"/>
        <g id="Group_602" data-name="Group 602">
          <g id="Group_601" data-name="Group 601" clip-path="url(#clip-path)">
            <g id="Group_583" data-name="Group 583">
              <rect id="Rectangle_33" data-name="Rectangle 33" width="6.105" height="44.019" transform="translate(534.342 2036.185)" fill="url(#linear-gradient-2)"/>
            </g>
          </g>
        </g>
      </g>
      <g id="Group_586" data-name="Group 586">
        <g id="Group_604" data-name="Group 604">
          <g id="Group_603" data-name="Group 603" clip-path="url(#clip-path-2)">
            <g id="Group_585" data-name="Group 585">
              <rect id="Rectangle_34" data-name="Rectangle 34" width="1.618" height="25.661" transform="translate(533.066 2007.154)" fill="url(#linear-gradient-3)"/>
            </g>
          </g>
        </g>
      </g>
      <g id="Group_588" data-name="Group 588">
        <path id="Path_1464" data-name="Path 1464" d="M534.342,2035.325v-22.612l.232-5.461v.038h5.64l.233,5.518v22.517Z" fill-rule="evenodd" fill="url(#linear-gradient-4)"/>
        <g id="Group_606" data-name="Group 606">
          <g id="Group_605" data-name="Group 605" clip-path="url(#clip-path-3)">
            <g id="Group_587" data-name="Group 587">
              <rect id="Rectangle_35" data-name="Rectangle 35" width="6.105" height="28.073" transform="translate(534.342 2007.252)" fill="url(#linear-gradient-5)"/>
            </g>
          </g>
        </g>
      </g>
      <g id="Group_590" data-name="Group 590">
        <path id="Path_1466" data-name="Path 1466" d="M536.157,2080.2l.5,3.012h1.473l.5-3.012Z" fill-rule="evenodd" fill="url(#linear-gradient-6)"/>
        <g id="Group_608" data-name="Group 608">
          <g id="Group_607" data-name="Group 607" clip-path="url(#clip-path-4)">
            <g id="Group_589" data-name="Group 589">
              <rect id="Rectangle_36" data-name="Rectangle 36" width="2.476" height="3.012" transform="translate(536.157 2080.204)" fill="url(#linear-gradient-7)"/>
            </g>
          </g>
        </g>
      </g>
      <g id="Group_592" data-name="Group 592">
        <g id="Group_610" data-name="Group 610">
          <g id="Group_609" data-name="Group 609" clip-path="url(#clip-path-5)">
            <g id="Group_591" data-name="Group 591">
              <rect id="Rectangle_37" data-name="Rectangle 37" width="5.646" height="1.589" transform="translate(534.575 2005.701)" fill="url(#linear-gradient-8)"/>
            </g>
          </g>
        </g>
      </g>
      <g id="Group_594" data-name="Group 594">
        <g id="Group_612" data-name="Group 612">
          <g id="Group_611" data-name="Group 611" clip-path="url(#clip-path-6)">
            <g id="Group_593" data-name="Group 593">
              <rect id="Rectangle_38" data-name="Rectangle 38" width="6.105" height="0.86" transform="translate(534.342 2035.324)" fill="url(#linear-gradient-9)"/>
            </g>
          </g>
        </g>
      </g>
      <g id="Group_596" data-name="Group 596">
        <g id="Group_614" data-name="Group 614">
          <g id="Group_613" data-name="Group 613" clip-path="url(#clip-path-7)">
            <g id="Group_595" data-name="Group 595">
              <rect id="Rectangle_40" data-name="Rectangle 40" width="1.119" height="1.519" transform="translate(536.835 2083.216)" fill="url(#linear-gradient-10)"/>
            </g>
          </g>
        </g>
      </g>
      <path id="Path_1470" data-name="Path 1470" d="M538.14,2037.743c-.562.32-1.084.622-1.56.9-.678.4-1.263.761-1.712,1.061-1.306.874-2.644,1.677-3.882,2.442-3.094,1.91-5.561,3.572-5.3,5.434.339,2.1,1.361,4.46,1.741,6.5-.171-1,.662-2.072,1.929-3.087a35.912,35.912,0,0,1,7.225-4.036c.789-.348,1.361-.587,1.56-.682l.063-.031c.077-.046.476-.25,1.094-.568,1.425-.738,4.034-2.095,6.661-3.578,3.816-2.155,7.66-4.569,7.941-5.708.065-.345.175-.815.308-1.363.553-2.253,1.552-5.871,1.8-7.968.021-.173.035-.337.044-.487v-.456c0,.01-.006.025-.006.038-.031.795-1.951,2.259-4.656,3.969-2.141,1.352-4.768,2.854-7.335,4.3-1.806,1.013-3.576,1.993-5.126,2.869C538.664,2037.446,538.4,2037.595,538.14,2037.743Z" fill="#0087c7"/>
      <path id="Path_1471" data-name="Path 1471" d="M546.095,2049.988c-2.039,1.427-5.174,2.936-7.955,4.775-.052.033-.1.066-.156.1-.472.316-.94.62-1.4.919-1.456.94-2.842,1.808-4,2.638-2.039,1.462-3.383,2.823-3.175,4.314.327,2.016,1.207,4.017,1.581,6.025a3.6,3.6,0,0,1,.666-2.638c1.065-1.621,3.15-3.021,4.93-4.271.553-.387,1.08-.761,1.531-1.122l.029-.023c1.061-.843,2.132-1.589,3.143-2.282,2.609-1.785,4.791-3.189,5.2-4.818.381-2.039,1.365-3.917,1.758-6.025l-.01.033A4.856,4.856,0,0,1,546.095,2049.988Z" fill="#0087c7"/>
      <path id="Path_1472" data-name="Path 1472" d="M542.519,2066.469a28.863,28.863,0,0,1-4.381,3.094c-.522.324-1.046.651-1.56.986-.666.433-1.311.88-1.908,1.352-2.018,1.585-3.493,3.447-3.331,6.058a3.476,3.476,0,0,0,.94,2.4c.212.5,2.484,2.01,3.732,2.813.478.308.811.516.811.516h0a1.2,1.2,0,0,0-.225-.466c-1.024-1.435-4.864-3.7-.021-7.6.314-.252.657-.51,1.046-.776l.514-.393c1.011-.773,1.8-1.377,2.4-1.854,2.057-1.625,2.078-1.866,2.455-3.178l.073-.289h0l.133-.537c.2-.793.431-1.723.664-2.648l.424-1.706.194-.768c-.025.1-.06.187-.092.281A6.575,6.575,0,0,1,542.519,2066.469Z" fill="#0087c7"/>
    </g>
  </g>
</svg>
