<svg xmlns="http://www.w3.org/2000/svg" width="246.814" height="230.643" viewBox="0 0 246.814 230.643">
  <g id="Group_548" data-name="Group 548" transform="translate(-309.389 7.433)">
    <g id="Group_2" data-name="Group 2" transform="translate(333.329 -7.433)">
      <path id="Path_1" data-name="Path 1" d="M497.044,7.606s-12.489,11.3-34.565,11.3a69.559,69.559,0,0,1-14.034-1.465c-29.28-6.021-40.336-18.969-40.336-18.969s-11.056,12.948-40.336,18.969a69.558,69.558,0,0,1-14.034,1.465c-22.076,0-34.565-11.3-34.565-11.3S317.8,25.037,321.649,53.07h172.92C498.416,25.037,497.044,7.606,497.044,7.606Z" transform="translate(-304.452 25.3)"/>
      <path id="Path_2" data-name="Path 2" d="M328.457,70.937c-3.747-27.578-2.487-44.848-2.411-45.822l.668-8.194,5.94,5.289c.117.1,11.8,10.291,31.969,10.291a66.091,66.091,0,0,0,13.27-1.389c27.336-5.623,38.03-17.544,38.135-17.661l2.946-3.409,2.982,3.409c.109.117,10.8,12.038,38.138,17.661a66.092,66.092,0,0,0,13.27,1.389c20.172,0,31.852-10.191,31.957-10.279l5.957-5.393.66,8.283c.08.978,1.336,18.248-2.407,45.826H520.08c3.659-28.032,2.371-45.749,2.286-46.768l-2.21-29.976L498.7,13.6c-.37.318-9.361,7.78-25.34,7.78A56.134,56.134,0,0,1,462.079,20.2C438.989,15.452,429.744,6,429.724,6L419.734-7.433,408.489,5.744c-.089.093-9.293,9.663-32.581,14.453a56.162,56.162,0,0,1-11.285,1.187c-15.978,0-24.966-7.462-25.167-7.627L318-5.654l-2.383,29.823c-.081,1.018-1.368,18.735,2.286,46.768Z" transform="translate(-315.337 7.433)"/>
      <path id="Path_3" data-name="Path 3" d="M461.981,32.588C444.908,58.7,421.927,74.767,400.386,88.053L398.366,89.3l-2.02-1.248C374.8,74.767,351.824,58.7,334.75,32.588H322.157c18.413,31.59,44.55,50.04,68.932,65.08l7.277,4.488,7.273-4.488c24.382-15.04,50.523-33.494,68.932-65.08Z" transform="translate(-294.709 128.487)"/>
      <path id="Path_4" data-name="Path 4" d="M385.308,84.358c22.675-13.99,43.379-29.2,58.834-51.77H326.474C341.929,55.155,362.633,70.368,385.308,84.358Z" transform="translate(-281.651 128.487)"/>
    </g>
    <g id="Group_6" data-name="Group 6" transform="translate(317.769 84.271)">
      <g id="Group_3" data-name="Group 3" transform="translate(0 0.064)">
        <path id="Path_5" data-name="Path 5" d="M313.443,37.593h-1.972c2.073-10.271,2.306-11.865,4.379-22.148H318.4l4.375,22.148h-1.98l-1.107-5.767h-5.111Zm1.364-7.067h4.629L317.11,17.478Z" transform="translate(-311.471 -15.135)"/>
        <path id="Path_6" data-name="Path 6" d="M314.914,37.593V15.445h1.505l7.011,17.54V15.445h1.658V37.593h-1.465L316.6,20.424v17.17Z" transform="translate(-301.057 -15.135)"/>
        <path id="Path_7" data-name="Path 7" d="M322.112,37.593V17.015H317.8v-1.57h10.617v1.57h-4.351V37.593Z" transform="translate(-292.321 -15.135)"/>
        <path id="Path_8" data-name="Path 8" d="M320.794,37.593V15.445h1.956V37.593Z" transform="translate(-283.271 -15.135)"/>
        <path id="Path_9" data-name="Path 9" d="M322.219,37.593V15.445h2.407l4.27,19.122c1.751-8.363,2.624-10.754,4.27-19.122h2.407V37.593h-1.739V19.872l-4.089,17.721h-1.7l-4.093-17.709V37.593Z" transform="translate(-278.961 -15.135)"/>
        <path id="Path_10" data-name="Path 10" d="M326.474,37.593V15.445h1.956V37.593Z" transform="translate(-266.091 -15.135)"/>
        <path id="Path_11" data-name="Path 11" d="M327.812,31.4V22.126c0-3.743,1.324-6.758,5.623-6.758,3.993,0,5.2,3.015,5.2,6.758v.9h-1.868v-1.34c0-2.7-.761-4.745-3.332-4.745-2.882,0-3.667,2.045-3.667,4.745V31.841c0,2.7.785,4.761,3.667,4.761,2.572,0,3.332-2.057,3.332-4.761V30.324h1.868V31.4c0,3.719-1.107,6.77-5.2,6.77C329.035,38.172,327.812,35.121,327.812,31.4Z" transform="translate(-262.044 -15.368)"/>
        <path id="Path_12" data-name="Path 12" d="M331.338,37.593V15.445h5.9c3.844,0,4.745,2.652,4.745,5.727,0,2.266-.652,4.48-3.087,5.365l3.421,11.056h-2.081l-3.232-10.81H333.29v10.81Zm1.952-12.38h3.94c2.342,0,2.805-2.032,2.805-4.105,0-2.2-.519-4.093-2.805-4.093h-3.94Z" transform="translate(-251.378 -15.135)"/>
        <path id="Path_13" data-name="Path 13" d="M334.673,31.4V22.126c0-3.743,1.348-6.758,5.647-6.758s5.651,3.015,5.651,6.758V31.4c0,3.719-1.248,6.77-5.651,6.77S334.673,35.121,334.673,31.4Zm9.345.439V21.687c0-2.624-.817-4.745-3.7-4.745s-3.691,2.121-3.691,4.745V31.841c0,2.624.809,4.761,3.691,4.761S344.018,34.465,344.018,31.841Z" transform="translate(-241.291 -15.368)"/>
        <path id="Path_14" data-name="Path 14" d="M338.333,37.593V15.445h4.757c3.952,0,5.007,2.846,5.007,5.623,0,1.686-.813,3.8-2.395,4.52,2.2.885,2.845,3.526,2.845,5.4,0,3.514-.745,6.6-5.067,6.6Zm1.952-12.638h3.139c1.98,0,2.576-1.863,2.576-3.848,0-2.278-.708-4.17-3.168-4.17h-2.548Zm0,11.145h3.5c2.306,0,2.805-2.383,2.805-5.111,0-2.4-.463-4.528-2.805-4.528h-3.5Z" transform="translate(-230.22 -15.135)"/>
        <path id="Path_15" data-name="Path 15" d="M341.627,37.593V15.445h1.956V37.593Z" transform="translate(-220.257 -15.135)"/>
        <path id="Path_16" data-name="Path 16" d="M344.719,37.593h-1.972c2.073-10.271,2.306-11.865,4.379-22.148h2.548l4.375,22.148h-1.98l-1.107-5.767H345.85Zm1.364-7.067h4.629l-2.326-13.048Z" transform="translate(-216.869 -15.135)"/>
        <path id="Path_17" data-name="Path 17" d="M346.189,37.593V15.445h1.956V36.024h6.19v1.57Z" transform="translate(-206.458 -15.135)"/>
      </g>
      <g id="Group_4" data-name="Group 4" transform="translate(0.024 31.852)">
        <path id="Path_18" data-name="Path 18" d="M313.5,46.108h-2.025c2.133-10.553,2.371-12.2,4.5-22.764H318.6l4.492,22.764h-2.037l-1.135-5.924h-5.252Zm1.4-7.261h4.765l-2.395-13.41Z" transform="translate(-311.477 -23.03)"/>
        <path id="Path_19" data-name="Path 19" d="M315.006,46.108V23.344h1.546l7.212,18.027V23.344h1.706V46.108h-1.513l-7.22-17.645V46.108Z" transform="translate(-300.803 -23.03)"/>
        <path id="Path_20" data-name="Path 20" d="M322.392,46.108V24.962h-4.427V23.344h10.911v1.618H324.4V46.108Z" transform="translate(-291.852 -23.03)"/>
        <path id="Path_21" data-name="Path 21" d="M321.033,46.108V23.344h2.012V46.108Z" transform="translate(-282.572 -23.03)"/>
        <path id="Path_22" data-name="Path 22" d="M322.494,46.108V23.344h4.894c4.061,0,5.144,2.926,5.144,5.784,0,1.731-.833,3.9-2.459,4.641,2.262.914,2.922,3.622,2.922,5.554,0,3.614-.765,6.786-5.212,6.786ZM324.5,33.12h3.232c2.037,0,2.644-1.916,2.644-3.956,0-2.338-.728-4.282-3.252-4.282H324.5Zm0,11.454h3.6c2.367,0,2.882-2.447,2.882-5.252,0-2.471-.475-4.657-2.882-4.657h-3.6Z" transform="translate(-278.153 -23.03)"/>
        <path id="Path_23" data-name="Path 23" d="M327.549,46.108h-2.025c2.133-10.553,2.371-12.2,4.5-22.764h2.624l4.492,22.764H335.1l-1.135-5.924h-5.252Zm1.4-7.261h4.765l-2.395-13.41Z" transform="translate(-268.985 -23.03)"/>
        <path id="Path_24" data-name="Path 24" d="M328.923,39.743V30.209c0-3.848,1.364-6.943,5.779-6.943,4.1,0,5.345,3.1,5.345,6.943v.926h-1.92V29.758c0-2.777-.781-4.878-3.425-4.878-2.962,0-3.771,2.1-3.771,4.878V40.194c0,2.777.809,4.894,3.771,4.894,2.644,0,3.425-2.117,3.425-4.894V38.633h1.92v1.111c0,3.824-1.143,6.959-5.345,6.959C330.183,46.7,328.923,43.567,328.923,39.743Z" transform="translate(-258.707 -23.266)"/>
        <path id="Path_25" data-name="Path 25" d="M336.372,46.108V24.962h-4.431V23.344h10.915v1.618h-4.472V46.108Z" transform="translate(-249.579 -23.03)"/>
        <path id="Path_26" data-name="Path 26" d="M335.013,46.108V23.344h7.933v1.618h-5.924v8.621h4.234V35.1h-4.234v9.39h5.924v1.614Z" transform="translate(-240.286 -23.03)"/>
        <path id="Path_27" data-name="Path 27" d="M337.662,46.108V23.344h6.069c3.956,0,4.878,2.725,4.878,5.888,0,2.326-.672,4.6-3.171,5.514l3.522,11.362h-2.145L343.494,35H339.67V46.108Zm2.008-12.726h4.049c2.407,0,2.882-2.085,2.882-4.218,0-2.258-.531-4.2-2.882-4.2H339.67Z" transform="translate(-232.274 -23.03)"/>
        <path id="Path_28" data-name="Path 28" d="M341.166,46.108V23.344h2.013V46.108Z" transform="translate(-221.675 -23.03)"/>
        <path id="Path_29" data-name="Path 29" d="M344.338,46.108h-2.024c2.133-10.553,2.371-12.2,4.5-22.764h2.624l4.491,22.764h-2.036l-1.135-5.924H345.5Zm1.4-7.261H350.5l-2.395-13.41Z" transform="translate(-218.203 -23.03)"/>
        <path id="Path_30" data-name="Path 30" d="M345.843,46.108V23.344h2.008v21.15h6.363v1.614Z" transform="translate(-207.528 -23.03)"/>
      </g>
      <g id="Group_5" data-name="Group 5" transform="translate(155.178 0)">
        <path id="Path_31" data-name="Path 31" d="M350.027,70.1V15.352h13.395c9.768,0,12.948,6.842,12.948,14.731,0,7.8-2.544,15.684-12.98,15.684h-8.524V70.1Zm4.838-28.218,9.1.032c5.534.032,7.571-3.819,7.571-11.74,0-7.6-2.515-10.943-7.571-10.943h-9.1Z" transform="translate(-350.027 -15.352)"/>
        <path id="Path_32" data-name="Path 32" d="M358.085,70.1V15.352h19.089v3.884H362.923V39.979H373.1v3.658H362.923V66.225h14.252V70.1Z" transform="translate(-325.654 -15.352)"/>
        <path id="Path_33" data-name="Path 33" d="M364.461,70.1V15.352h3.723l17.339,43.367V15.352h4.1V70.1H386L368.627,27.664V70.1Z" transform="translate(-306.368 -15.352)"/>
      </g>
    </g>
    <path id="Path_34" data-name="Path 34" d="M309.389,13.551c20.566-.829,41.133-1.219,61.7-1.541s41.137-.3,61.7-.471c20.567.157,41.137.141,61.7.463l30.854.563c10.283.334,20.566.527,30.85.986-10.283.455-20.567.652-30.85.986L494.5,15.1c-20.567.322-41.137.306-61.7.463-20.566-.169-41.137-.137-61.7-.467S329.955,14.38,309.389,13.551Z" transform="translate(0 57.386)"/>
    <path id="Path_35" data-name="Path 35" d="M309.389,34.039c20.566-.829,41.133-1.219,61.7-1.541s41.137-.3,61.7-.471c20.567.161,41.137.145,61.7.463l30.854.563c10.283.334,20.566.531,30.85.986-10.283.455-20.567.652-30.85.986l-30.854.559c-20.567.322-41.137.306-61.7.463-20.566-.165-41.137-.137-61.7-.467S329.955,34.868,309.389,34.039Z" transform="translate(0 119.357)"/>
  </g>
</svg>
