<svg id="Layer_1" data-name="Layer 1" xmlns="http://www.w3.org/2000/svg" xmlns:xlink="http://www.w3.org/1999/xlink" viewBox="0 0 25.42 31.5"><defs><style>.cls-1{fill:none;}.cls-2{fill:#bddeb4;}.cls-3{fill:#00639b;}.cls-4{fill:#0be;}.cls-5{fill:#76c27a;}.cls-6{fill:#0a9f49;}.cls-7{fill:#0087c7;}.cls-13,.cls-16,.cls-8{fill-rule:evenodd;}.cls-8{fill:url(#linear-gradient);}.cls-9{clip-path:url(#clip-path);}.cls-10{fill:url(#linear-gradient-2);}.cls-11{clip-path:url(#clip-path-2);}.cls-12{fill:url(#linear-gradient-3);}.cls-13{fill:url(#linear-gradient-4);}.cls-14{clip-path:url(#clip-path-3);}.cls-15{fill:url(#linear-gradient-5);}.cls-16{fill:url(#linear-gradient-6);}.cls-17{clip-path:url(#clip-path-4);}.cls-18{fill:url(#linear-gradient-7);}.cls-19{clip-path:url(#clip-path-5);}.cls-20{fill:url(#linear-gradient-8);}.cls-21{clip-path:url(#clip-path-6);}.cls-22{fill:url(#linear-gradient-9);}.cls-23{clip-path:url(#clip-path-7);}.cls-24{fill:url(#linear-gradient-10);}</style><linearGradient id="linear-gradient" x1="-249.09" y1="428.03" x2="-249.02" y2="428.03" gradientTransform="matrix(6.1, 0, 0, -44.02, 1464.02, 18861.97)" gradientUnits="userSpaceOnUse"><stop offset="0" stop-color="#c77351"/><stop offset="0.2" stop-color="#d97f60"/><stop offset="0.39" stop-color="#e39d8c"/><stop offset="0.54" stop-color="#c77351"/><stop offset="0.69" stop-color="#d97f60"/><stop offset="0.83" stop-color="#e39d8c"/><stop offset="1" stop-color="#c77351"/></linearGradient><clipPath id="clip-path" transform="translate(-3.29 -0.25)"><path class="cls-1" d="M14.82,12.05V22.63a53.6,53.6,0,0,0,.7,6.46h1a53.6,53.6,0,0,0,.7-6.46V12.05Z"/></clipPath><linearGradient id="linear-gradient-2" x1="-264.64" y1="428.03" x2="-264.64" y2="428.03" gradientTransform="matrix(6.11, 0, 0, -44.02, 1460.99, 18861.65)" xlink:href="#linear-gradient"/><clipPath id="clip-path-2" transform="translate(-3.29 -0.25)"><path class="cls-1" d="M14.35,10.61v-8c0-.25,0-1.12,0-1.52a.24.24,0,0,1,.17-.29h.06c.17,0,.32,0,.32,0V.9s-.15,0-.32,0V9.61h.07c.12,0,.3.64-.13,1.14-.16,0-.17,0-.17-.14"/></clipPath><linearGradient id="linear-gradient-3" x1="-347.87" y1="421.05" x2="-347.83" y2="421.05" gradientTransform="matrix(1.62, 0, 0, -25.66, 198.87, 10810.17)" gradientUnits="userSpaceOnUse"><stop offset="0" stop-color="#963"/><stop offset="0.17" stop-color="#b98633"/><stop offset="0.3" stop-color="#c93"/><stop offset="0.41" stop-color="#ffc"/><stop offset="0.77" stop-color="#c93"/><stop offset="1" stop-color="#633"/></linearGradient><linearGradient id="linear-gradient-4" x1="-249.09" y1="422.41" x2="-249.03" y2="422.41" gradientTransform="matrix(6.1, 0, 0, -28.07, 1464.28, 11864.61)" xlink:href="#linear-gradient"/><clipPath id="clip-path-3" transform="translate(-3.29 -0.25)"><polygon class="cls-1" points="14.82 11.72 14.82 2.96 14.91 0.85 14.91 0.86 17.09 0.86 17.18 3 17.18 11.72 14.82 11.72"/></clipPath><linearGradient id="linear-gradient-5" x1="-264.64" y1="422.41" x2="-264.64" y2="422.41" gradientTransform="matrix(6.11, 0, 0, -28.07, 1460.99, 11864.31)" xlink:href="#linear-gradient"/><linearGradient id="linear-gradient-6" x1="-191.63" y1="317.45" x2="-191.47" y2="317.45" gradientTransform="matrix(2.47, 0, 0, -3.01, 445.51, 985.84)" gradientUnits="userSpaceOnUse"><stop offset="0"/><stop offset="0.32"/><stop offset="0.5" stop-color="#4c4c4c"/><stop offset="0.74"/><stop offset="1"/></linearGradient><clipPath id="clip-path-4" transform="translate(-3.29 -0.25)"><polygon class="cls-1" points="15.52 29.09 15.71 30.26 16.29 30.26 16.48 29.09 15.52 29.09"/></clipPath><linearGradient id="linear-gradient-7" x1="-287.81" y1="317.46" x2="-287.79" y2="317.46" gradientTransform="matrix(2.48, 0, 0, -3.01, 443.06, 985.61)" xlink:href="#linear-gradient-6"/><clipPath id="clip-path-5" transform="translate(-3.29 -0.25)"><path class="cls-1" d="M17.09.86V.33A.08.08,0,0,0,17,.25H15a.08.08,0,0,0-.08.08V.86Z"/></clipPath><linearGradient id="linear-gradient-8" x1="-264.47" y1="181.84" x2="-264.47" y2="181.84" gradientTransform="matrix(5.65, 0, 0, -1.59, 1332.24, 289.25)" xlink:href="#linear-gradient-6"/><clipPath id="clip-path-6" transform="translate(-3.29 -0.25)"><rect class="cls-1" x="14.82" y="11.72" width="2.36" height="0.33"/></clipPath><linearGradient id="linear-gradient-9" x1="-264.65" y1="-13.18" x2="-264.65" y2="-13.18" gradientTransform="matrix(6.11, 0, 0, -0.86, 1460.99, 0.3)" xlink:href="#linear-gradient-6"/><clipPath id="clip-path-7" transform="translate(-3.29 -0.25)"><path class="cls-1" d="M16,30.84c.1,0,.16-.29.21-.58h-.44c.06.29.13.59.23.58"/></clipPath><linearGradient id="linear-gradient-10" x1="-480.03" y1="201.37" x2="-479.96" y2="201.37" gradientTransform="matrix(1.12, 0, 0, -1.52, 62.42, 336.18)" gradientUnits="userSpaceOnUse"><stop offset="0" stop-color="#4c4c4c"/><stop offset="0.04" stop-color="#e5e5e5"/><stop offset="0.18" stop-color="#7f7f7f"/><stop offset="0.41" stop-color="#333"/><stop offset="0.56" stop-color="#fff"/><stop offset="0.65" stop-color="#b2b2b2"/><stop offset="0.91" stop-color="#e5e5e5"/><stop offset="1" stop-color="#999"/></linearGradient></defs><g id="Group_615" data-name="Group 615"><path id="Path_1443" data-name="Path 1443" d="M16,30.86a5.13,5.13,0,0,1,.66-.34,4.5,4.5,0,0,1,.7-.25.22.22,0,0,1,.24.09.37.37,0,0,1,0,.23,2.24,2.24,0,0,1-.1.37q-.12.34-.21.69l-.06-.12a.24.24,0,0,0,.18-.05l.24-.14a5.21,5.21,0,0,1,.52-.28,7.15,7.15,0,0,1,1.08-.43,4.56,4.56,0,0,1,1.16-.21,3.72,3.72,0,0,1,1.15.12,5.43,5.43,0,0,0-1.14,0,4.56,4.56,0,0,0-1.1.28,8,8,0,0,0-1.05.44l-.51.27-.25.15a.44.44,0,0,1-.37.05.1.1,0,0,1-.07-.11h0c.07-.24.15-.48.24-.71a2,2,0,0,0,.12-.34c0-.11,0-.16-.09-.15a6.5,6.5,0,0,0-.69.19A5.74,5.74,0,0,0,16,30.86Z" transform="translate(-3.29 -0.25)"/><path id="Path_1444" data-name="Path 1444" class="cls-2" d="M15.77,6.88h0l0,.08Z" transform="translate(-3.29 -0.25)"/><path id="Path_1445" data-name="Path 1445" class="cls-3" d="M9.54,11.62C9.37,10.75,9.1,9.35,9,8.54a2.06,2.06,0,0,1,0-.35v0a1.66,1.66,0,0,1,0-.32A2.39,2.39,0,0,1,11.4,6.39a4,4,0,0,1,2.7,1A1.39,1.39,0,0,1,13.42,9c-.32.14-1.18-.17-1.73-.05a1.89,1.89,0,0,0-.78.65c.87.47,1.92,1,2.92,1.49a7.94,7.94,0,0,0,1.26-1.33,8.11,8.11,0,0,0,.59-1.46V7l0-.08a3.88,3.88,0,0,0-3.3-2.1c-1.9,0-4,1.48-5.12,1.73a5.46,5.46,0,0,1-3.41-.91C2.73,5,3.64,7.05,3.76,7.3a10.79,10.79,0,0,0,2.59,2.84c.27.18.57.36.89.53a12.47,12.47,0,0,0,1.17.55A11.68,11.68,0,0,0,9.54,11.62Z" transform="translate(-3.29 -0.25)"/><path id="Path_1446" data-name="Path 1446" class="cls-3" d="M28.24,7.3c.12-.25,1-2.35-.06-1.61a5.49,5.49,0,0,1-3.41.9c-1.12-.25-3.22-1.68-5.12-1.73A3.91,3.91,0,0,0,16.35,7l-.06.15V8.17a7.81,7.81,0,0,0,.62,1.56,7.42,7.42,0,0,0,1.67,1.64c1-.56,2-1.14,2.84-1.67a2.13,2.13,0,0,0-.89-.78c-.55-.12-1.4.19-1.73.05a1.38,1.38,0,0,1-.67-1.56,4,4,0,0,1,2.7-1,2.38,2.38,0,0,1,2.36,1.45,1.84,1.84,0,0,1,0,.33v.16c0,.06,0,.13,0,.19-.1.81-.48,2.21-.7,3.08a12,12,0,0,0,2-.79l.18-.1a8.64,8.64,0,0,0,1-.57A10.79,10.79,0,0,0,28.24,7.3Z" transform="translate(-3.29 -0.25)"/><path id="Path_1447" data-name="Path 1447" class="cls-4" d="M15,25.88c.23-.18.48-.36.73-.52V25a13.61,13.61,0,0,1-1.9-1.39,1.39,1.39,0,0,0-.26,1C13.66,25.13,14.16,25.3,15,25.88Z" transform="translate(-3.29 -0.25)"/><path id="Path_1448" data-name="Path 1448" class="cls-4" d="M16.29,27.09a2.34,2.34,0,0,1,0,3.21.23.23,0,0,1-.06.12,1.18,1.18,0,0,0,.19-.11,5.28,5.28,0,0,0,1.28-1.09,2.84,2.84,0,0,0,.49-1.11,2.27,2.27,0,0,0-1-2l-.93.72Z" transform="translate(-3.29 -0.25)"/><path id="Path_1449" data-name="Path 1449" class="cls-4" d="M16.29,22.16A6.21,6.21,0,0,1,18,23.78a2.63,2.63,0,0,0,.73-1.05c0-.07,0-.14,0-.21.09-.64-.41-1.22-1.24-1.86-.4.27-.81.56-1.22.89Z" transform="translate(-3.29 -0.25)"/><path id="Path_1450" data-name="Path 1450" class="cls-5" d="M18.75,22.83l-.17.66C18.64,23.28,18.7,23.06,18.75,22.83Z" transform="translate(-3.29 -0.25)"/><path id="Path_1451" data-name="Path 1451" class="cls-5" d="M18.28,24.73" transform="translate(-3.29 -0.25)"/><path id="Path_1452" data-name="Path 1452" class="cls-4" d="M14.14,20.66c.45-.32,1-.66,1.55-1V19.4c-.94-.61-2-1.13-2.8-1.61-.49.39-.82.8-.75,1.19C12.28,19.55,13.14,20.06,14.14,20.66Z" transform="translate(-3.29 -0.25)"/><path id="Path_1453" data-name="Path 1453" class="cls-6" d="M9.1,8.46c0-.14,0-.25,0-.35A2.06,2.06,0,0,0,9.1,8.46Z" transform="translate(-3.29 -0.25)"/><path id="Path_1454" data-name="Path 1454" class="cls-7" d="M10.91,9.57a1.83,1.83,0,0,1,.78-.65c.55-.12,1.41.19,1.73.05a1.38,1.38,0,0,0,.67-1.56,4,4,0,0,0-2.7-1A2.38,2.38,0,0,0,9,7.84a1.66,1.66,0,0,0,0,.32C9,8.45,9.82,9,10.91,9.57Z" transform="translate(-3.29 -0.25)"/><path id="Path_1455" data-name="Path 1455" class="cls-4" d="M16.37,12.23v.35l.31-.18Z" transform="translate(-3.29 -0.25)"/><path id="Path_1456" data-name="Path 1456" class="cls-4" d="M13.52,14.36c.48-.3,1-.61,1.5-.94l.66-.42V12c-.55-.29-1.19-.61-1.85-.93-1-.5-2.05-1-2.92-1.49C9.82,9,9,8.45,9,8.16v0c0,.1,0,.22,0,.35.08.82.35,2.22.52,3.08,0,.21.07.38.1.51C9.77,12.65,11.81,13.62,13.52,14.36Z" transform="translate(-3.29 -0.25)"/><path id="Path_1457" data-name="Path 1457" class="cls-4" d="M19.37,17.4a1.88,1.88,0,0,0,.82-.92,3.16,3.16,0,0,0,.13-.53c.07-.53-.34-1.06-1-1.61-1,.58-2,1.1-2.58,1.39A8.15,8.15,0,0,1,19.37,17.4Z" transform="translate(-3.29 -0.25)"/><path id="Path_1458" data-name="Path 1458" class="cls-5" d="M23.31,8.13Z" transform="translate(-3.29 -0.25)"/><path id="Path_1459" data-name="Path 1459" class="cls-5" d="M23.3,8.25c0,.06,0,.12,0,.19S23.3,8.32,23.3,8.25Z" transform="translate(-3.29 -0.25)"/><path id="Path_1460" data-name="Path 1460" class="cls-4" d="M23.22,8.17a1.84,1.84,0,0,0,0-.33,2.38,2.38,0,0,0-2.36-1.45,4,4,0,0,0-2.7,1A1.39,1.39,0,0,0,18.8,9c.33.14,1.18-.17,1.74-.05a2.13,2.13,0,0,1,.88.79C22.47,9,23.21,8.48,23.22,8.17Z" transform="translate(-3.29 -0.25)"/><g id="Group_584" data-name="Group 584"><path id="Path_1461" data-name="Path 1461" class="cls-8" d="M14.82,12.05V22.63a53.6,53.6,0,0,0,.7,6.46h1a53.6,53.6,0,0,0,.7-6.46V12.05Z" transform="translate(-3.29 -0.25)"/><g id="Group_602" data-name="Group 602"><g class="cls-9"><g id="Group_601" data-name="Group 601"><g id="Group_583" data-name="Group 583"><rect id="Rectangle_33" data-name="Rectangle 33" class="cls-10" x="11.53" y="11.8" width="2.36" height="17.04"/></g></g></g></g></g><g id="Group_586" data-name="Group 586"><g id="Group_604" data-name="Group 604"><g class="cls-11"><g id="Group_603" data-name="Group 603"><g id="Group_585" data-name="Group 585"><rect id="Rectangle_34" data-name="Rectangle 34" class="cls-12" x="11.03" y="0.56" width="0.63" height="9.94"/></g></g></g></g></g><g id="Group_588" data-name="Group 588"><path id="Path_1464" data-name="Path 1464" class="cls-13" d="M14.82,11.72V3L14.91.85h2.18L17.18,3v8.72Z" transform="translate(-3.29 -0.25)"/><g id="Group_606" data-name="Group 606"><g class="cls-14"><g id="Group_605" data-name="Group 605"><g id="Group_587" data-name="Group 587"><rect id="Rectangle_35" data-name="Rectangle 35" class="cls-15" x="11.53" y="0.6" width="2.36" height="10.87"/></g></g></g></g></g><g id="Group_590" data-name="Group 590"><path id="Path_1466" data-name="Path 1466" class="cls-16" d="M15.52,29.09l.19,1.17h.57l.2-1.17Z" transform="translate(-3.29 -0.25)"/><g id="Group_608" data-name="Group 608"><g class="cls-17"><g id="Group_607" data-name="Group 607"><g id="Group_589" data-name="Group 589"><rect id="Rectangle_36" data-name="Rectangle 36" class="cls-18" x="12.23" y="28.85" width="0.96" height="1.17"/></g></g></g></g></g><g id="Group_592" data-name="Group 592"><g id="Group_610" data-name="Group 610"><g class="cls-19"><g id="Group_609" data-name="Group 609"><g id="Group_591" data-name="Group 591"><rect id="Rectangle_37" data-name="Rectangle 37" class="cls-20" x="11.62" width="2.19" height="0.62"/></g></g></g></g></g><g id="Group_594" data-name="Group 594"><g id="Group_612" data-name="Group 612"><g class="cls-21"><g id="Group_611" data-name="Group 611"><g id="Group_593" data-name="Group 593"><rect id="Rectangle_38" data-name="Rectangle 38" class="cls-22" x="11.53" y="11.47" width="2.36" height="0.33"/></g></g></g></g></g><g id="Group_596" data-name="Group 596"><g id="Group_614" data-name="Group 614"><g class="cls-23"><g id="Group_613" data-name="Group 613"><g id="Group_595" data-name="Group 595"><rect id="Rectangle_40" data-name="Rectangle 40" class="cls-24" x="12.49" y="30.01" width="0.43" height="0.59"/></g></g></g></g></g><path id="Path_1470" data-name="Path 1470" class="cls-7" d="M16.29,12.65l-.61.35-.66.41c-.5.34-1,.65-1.5.95-1.2.74-2.15,1.38-2,2.1s.52,1.73.67,2.52c-.07-.39.26-.8.75-1.2a14.2,14.2,0,0,1,2.8-1.56l.6-.26h0l.43-.22c.55-.29,1.56-.81,2.58-1.39,1.47-.83,3-1.77,3.07-2.21l.12-.53c.21-.87.6-2.27.7-3.08,0-.07,0-.13,0-.19V8.17c0,.31-.75.87-1.8,1.53-.83.53-1.85,1.11-2.84,1.67l-2,1.11Z" transform="translate(-3.29 -0.25)"/><path id="Path_1471" data-name="Path 1471" class="cls-7" d="M19.37,17.4c-.79.55-2,1.13-3.08,1.84l-.06,0-.54.36c-.57.36-1.1.7-1.55,1-.79.57-1.31,1.09-1.23,1.67.12.78.47,1.56.61,2.33a1.39,1.39,0,0,1,.26-1A7.21,7.21,0,0,1,15.69,22c.21-.15.42-.3.59-.44h0c.41-.32.83-.61,1.22-.88,1-.69,1.85-1.23,2-1.86.15-.79.53-1.52.68-2.34v0A2,2,0,0,1,19.37,17.4Z" transform="translate(-3.29 -0.25)"/><path id="Path_1472" data-name="Path 1472" class="cls-7" d="M18,23.78A10.5,10.5,0,0,1,16.29,25l-.61.39c-.25.16-.5.34-.73.52a2.7,2.7,0,0,0-1.29,2.35,1.27,1.27,0,0,0,.36.92,6.92,6.92,0,0,0,1.44,1.09l.32.2h0a.76.76,0,0,0-.09-.18c-.4-.55-1.88-1.43,0-2.94a4.85,4.85,0,0,1,.41-.3l.2-.15.93-.72c.79-.63.8-.72,1-1.23l0-.11h0l.05-.21c.07-.31.16-.67.25-1l.17-.66.07-.29,0,.11A2.63,2.63,0,0,1,18,23.78Z" transform="translate(-3.29 -0.25)"/></g></svg>