<svg xmlns="http://www.w3.org/2000/svg" xmlns:xlink="http://www.w3.org/1999/xlink" width="606.259" height="593.267" viewBox="0 0 606.259 593.267">
  <defs>
    <radialGradient id="radial-gradient" cx="0.403" cy="0.465" r="0.512" gradientTransform="translate(0)" gradientUnits="objectBoundingBox">
      <stop offset="0.366" stop-color="#c90005"/>
      <stop offset="0.58" stop-color="#970a01"/>
      <stop offset="0.678" stop-color="#801000"/>
      <stop offset="0.97" stop-color="#c90005"/>
    </radialGradient>
    <radialGradient id="radial-gradient-2" cx="-1.831" cy="6.998" r="7.3" gradientTransform="translate(0.135) scale(0.731 1)" xlink:href="#radial-gradient"/>
    <radialGradient id="radial-gradient-3" cx="-4.783" cy="4.454" r="6.274" gradientTransform="translate(0.028) scale(0.944 1)" xlink:href="#radial-gradient"/>
    <radialGradient id="radial-gradient-4" cx="-8.048" cy="1.547" r="5.288" gradientTransform="translate(-0.202) scale(1.403 1)" xlink:href="#radial-gradient"/>
    <radialGradient id="radial-gradient-5" cx="-7.665" cy="-1.257" r="5.404" gradientTransform="translate(-0.16) scale(1.319 1)" xlink:href="#radial-gradient"/>
    <radialGradient id="radial-gradient-6" cx="-4.903" cy="-4.268" r="6.124" gradientTransform="translate(0.005) scale(0.989 1)" xlink:href="#radial-gradient"/>
    <radialGradient id="radial-gradient-7" cx="-1.869" cy="-7.064" r="7.386" gradientTransform="translate(0.141) scale(0.718 1)" xlink:href="#radial-gradient"/>
    <radialGradient id="radial-gradient-8" cx="0.888" cy="-7.013" r="7.361" gradientTransform="translate(0.139) scale(0.721 1)" xlink:href="#radial-gradient"/>
    <radialGradient id="radial-gradient-9" cx="3.41" cy="-4.624" r="6.596" gradientTransform="translate(0.069) scale(0.862 1)" xlink:href="#radial-gradient"/>
    <radialGradient id="radial-gradient-10" cx="6.026" cy="-1.336" r="5.429" gradientTransform="translate(-0.151) scale(1.302 1)" xlink:href="#radial-gradient"/>
    <radialGradient id="radial-gradient-11" cx="6.172" cy="1.485" r="5.329" gradientTransform="translate(-0.186) scale(1.372 1)" xlink:href="#radial-gradient"/>
    <radialGradient id="radial-gradient-12" cx="3.658" cy="4.392" r="6.05" gradientTransform="translate(-0.007) scale(1.013 1)" xlink:href="#radial-gradient"/>
    <radialGradient id="radial-gradient-13" cx="0.909" cy="7.068" r="7.246" gradientTransform="translate(0.131) scale(0.739 1)" xlink:href="#radial-gradient"/>
    <radialGradient id="radial-gradient-14" cx="-0.946" cy="9.359" r="11.04" gradientTransform="translate(0.152) scale(0.697 1)" xlink:href="#radial-gradient"/>
    <radialGradient id="radial-gradient-15" cx="-4.501" cy="7.306" r="10.057" gradientTransform="translate(0.097) scale(0.806 1)" xlink:href="#radial-gradient"/>
    <radialGradient id="radial-gradient-16" cx="-8.365" cy="3.458" r="8.394" gradientTransform="translate(-0.07) scale(1.141 1)" xlink:href="#radial-gradient"/>
    <radialGradient id="radial-gradient-17" cx="-11.152" cy="-0.026" r="7.692" gradientTransform="translate(-0.218) scale(1.437 1)" xlink:href="#radial-gradient"/>
    <radialGradient id="radial-gradient-18" cx="-8.409" cy="-3.622" r="8.411" gradientTransform="translate(-0.068) scale(1.136 1)" xlink:href="#radial-gradient"/>
    <radialGradient id="radial-gradient-19" cx="-4.615" cy="-7.271" r="9.601" gradientTransform="translate(0.064) scale(0.873 1)" xlink:href="#radial-gradient"/>
    <radialGradient id="radial-gradient-20" cx="-0.971" cy="-9.695" r="10.929" gradientTransform="translate(0.146) scale(0.708 1)" xlink:href="#radial-gradient"/>
    <radialGradient id="radial-gradient-21" cx="2.395" cy="-7.652" r="9.966" gradientTransform="translate(0.091) scale(0.819 1)" xlink:href="#radial-gradient"/>
    <radialGradient id="radial-gradient-22" cx="5.498" cy="-3.887" r="8.821" gradientTransform="translate(-0.012) scale(1.025 1)" xlink:href="#radial-gradient"/>
    <radialGradient id="radial-gradient-23" cx="8.021" cy="-0.01" r="7.694" gradientTransform="translate(-0.218) scale(1.436 1)" xlink:href="#radial-gradient"/>
    <radialGradient id="radial-gradient-24" cx="6.288" cy="3.342" r="7.931" gradientTransform="translate(-0.157) scale(1.315 1)" xlink:href="#radial-gradient"/>
    <radialGradient id="radial-gradient-25" cx="2.531" cy="6.97" r="9.529" gradientTransform="translate(0.058) scale(0.884 1)" xlink:href="#radial-gradient"/>
  </defs>
  <g id="Group_556" data-name="Group 556" transform="translate(-416 -2721.109)">
    <g id="Group_552" data-name="Group 552" transform="translate(576.889 2921.323)">
      <g id="Group_550" data-name="Group 550" transform="translate(9.184 9.329)">
        <path id="Path_1390" data-name="Path 1390" d="M320.883,484.587l-.006-5.261c-32.593,0-25.853.023-28.275-13.726,10.083-6.563,18.2-9.828,43.052-16.5l-2.09-7.775c-49.984,13.388-44.322,8.77-49.589-1.639,4.364-4.226,9.6-7.775,21.426-14.609l-2.636-4.555c-11.778,6.8-17.094,9.994-23.085,11.578-5.945-9.442-14.941-7.838,21.872-44.677l-5.7-5.687c-36.988,36.985-32.524,29.23-45.329,21.089,1.67-5.822,4.432-11.515,11.235-23.308l-4.558-2.628c-15.679,27.159-12.056,21.661-24.549,17.068-.48-11.367.892-20.282,7.3-44.245l-7.778-2.076c-13.274,49.544-13.357,41.414-27,40.719-1.7-6.231-2.219-12.447-2.219-26.948H197.7c0,14.475.117,20.571-1.853,26.936-11.5.543-14.658,9.453-28.36-41.709l-7.784,2.085c6.643,24.792,9.073,32.887,7.52,45.546a93.027,93.027,0,0,0-9.162,4.046c-4.223-4.364-7.775-9.6-14.6-21.423l-4.561,2.634c6.8,11.775,9.991,17.094,11.578,23.082-9.479,5.968-7.864,14.938-44.668-21.869l-5.693,5.7c43.1,43.1,29.87,52.612-2.219,34.088l-2.631,4.558c11.81,6.82,17.234,9.825,21.609,14.24-4.907,9.588.872,16.3-48.78,3.005l-2.082,7.778c23.857,6.394,32.375,8.433,42.06,15.416a94.086,94.086,0,0,0-1.341,11.581c-6.228,1.7-12.445,2.222-26.948,2.225v5.261c14.475,0,20.571-.114,26.936,1.856.546,11.555,9.439,14.655-41.711,28.363l2.09,7.778c49.981-13.391,44.325-8.759,49.592,1.641-4.366,4.226-9.6,7.775-21.426,14.606L97.9,543.39c11.778-6.8,17.1-9.991,23.085-11.578,5.971,9.482,14.935,7.864-21.867,44.671l5.693,5.693c36.759-36.759,32.45-29.273,45.326-21.089-1.67,5.822-4.429,11.515-11.235,23.308l4.555,2.628c6.823-11.812,9.828-17.234,14.246-21.609,9.571,4.9,16.3-.889,3.005,48.783l7.772,2.079c6.4-23.857,8.438-32.372,15.418-42.063,12.49,2.21,13.8-4.078,13.806,28.3l5.264,0c0-32.6-.017-25.855,13.726-28.28,6.563,10.082,9.831,18.2,16.491,43.052l7.781-2.087c-6.643-24.792-9.073-32.887-7.52-45.549,10.206-3.857,8.273-9.436,23.765,17.386l4.555-2.636c-15.684-27.165-12.8-21.123-2.07-29.916,10.357,5.341,17.34,10.886,35.166,28.7l5.693-5.7c-36.77-36.764-29.278-32.455-21.094-45.329,5.822,1.67,11.518,4.432,23.313,11.238l2.625-4.558c-11.815-6.823-17.234-9.828-21.609-14.243,4.9-9.568-.9-16.3,48.786-3l2.079-7.778c-23.86-6.4-32.375-8.435-42.063-15.418C294.8,485.892,288.511,484.6,320.883,484.587Z" transform="translate(-65.01 -346.64)" fill="url(#radial-gradient)"/>
      </g>
      <path id="Path_1391" data-name="Path 1391" d="M145.561,357c-1.272,4.913-8.032,7.412-15.1,5.582s-11.758-7.3-10.486-12.213,8.029-7.415,15.1-5.582S146.837,352.088,145.561,357Z" transform="translate(46.004 -341.866)" fill="url(#radial-gradient-2)"/>
      <path id="Path_1392" data-name="Path 1392" d="M164.077,375.841c-3.283,3.875-10.451,3.194-16.025-1.518s-7.426-11.678-4.146-15.556,10.454-3.194,16.025,1.518S167.357,371.963,164.077,375.841Z" transform="translate(87.867 -319.435)" fill="url(#radial-gradient-3)"/>
      <path id="Path_1393" data-name="Path 1393" d="M167.367,402.613c-5,.887-10.083-4.221-11.358-11.407s1.75-13.728,6.745-14.618,10.083,4.224,11.358,11.407S172.365,401.726,167.367,402.613Z" transform="translate(112.843 -281.806)" fill="url(#radial-gradient-4)"/>
      <path id="Path_1394" data-name="Path 1394" d="M160.582,427.242c-4.79-1.7-6.691-8.644-4.252-15.524s8.3-11.078,13.079-9.385,6.685,8.65,4.249,15.527S165.363,428.94,160.582,427.242Z" transform="translate(112.007 -234.447)" fill="url(#radial-gradient-5)"/>
      <path id="Path_1395" data-name="Path 1395" d="M144.33,444.989c-3.537-3.649-2.156-10.717,3.085-15.8s12.35-6.237,15.887-2.594,2.147,10.717-3.091,15.8S147.858,448.635,144.33,444.989Z" transform="translate(88.024 -192.583)" fill="url(#radial-gradient-6)"/>
      <path id="Path_1396" data-name="Path 1396" d="M120.346,449.064c-1.007-4.981,3.972-10.188,11.126-11.632s13.766,1.418,14.775,6.391-3.978,10.183-11.132,11.63S121.353,454.039,120.346,449.064Z" transform="translate(46.831 -169.184)" fill="url(#radial-gradient-7)"/>
      <path id="Path_1397" data-name="Path 1397" d="M95.164,443.465c1.089-4.967,7.743-7.721,14.875-6.154s12.021,6.854,10.938,11.813-7.749,7.706-14.881,6.148S94.074,448.418,95.164,443.465Z" transform="translate(-0.037 -169.524)" fill="url(#radial-gradient-8)"/>
      <path id="Path_1398" data-name="Path 1398" d="M75.088,428.093c2.731-4.286,9.922-4.587,16.085-.663s8.933,10.569,6.208,14.852-9.925,4.572-16.082.661S72.363,432.37,75.088,428.093Z" transform="translate(-39.033 -192.211)" fill="url(#radial-gradient-9)"/>
      <path id="Path_1399" data-name="Path 1399" d="M66.871,403.045c4.744-1.819,10.7,2.225,13.32,9.045s.881,13.809-3.855,15.627-10.7-2.236-13.32-9.047S62.13,404.858,66.871,403.045Z" transform="translate(-61.798 -233.235)" fill="url(#radial-gradient-10)"/>
      <path id="Path_1400" data-name="Path 1400" d="M74.892,377.362c4.927,1.241,7.472,7.975,5.69,15.058s-7.22,11.8-12.141,10.569-7.466-7.987-5.69-15.061S69.971,376.121,74.892,377.362Z" transform="translate(-61.078 -280.552)" fill="url(#radial-gradient-11)"/>
      <path id="Path_1401" data-name="Path 1401" d="M94.659,357.419c3.663,3.526,2.528,10.635-2.539,15.9-5.05,5.256-12.124,6.66-15.787,3.143s-2.511-10.64,2.545-15.9S91,353.9,94.659,357.419Z" transform="translate(-38.747 -320.873)" fill="url(#radial-gradient-12)"/>
      <path id="Path_1402" data-name="Path 1402" d="M120.533,349.273c1.413,4.881-3.12,10.471-10.134,12.5s-13.834-.286-15.253-5.159,3.14-10.474,10.145-12.507S119.123,344.394,120.533,349.273Z" transform="translate(-0.263 -343.377)" fill="url(#radial-gradient-13)"/>
      <path id="Path_1403" data-name="Path 1403" d="M127.1,355.469c.146,3.463-3.763,6.434-8.741,6.648s-9.125-2.431-9.273-5.891,3.775-6.431,8.747-6.646S126.958,352.006,127.1,355.469Z" transform="translate(26.133 -331.862)" fill="url(#radial-gradient-14)"/>
      <path id="Path_1404" data-name="Path 1404" d="M146.687,366.326c-1.536,3.108-6.391,3.843-10.86,1.644s-6.843-6.505-5.319-9.614,6.4-3.837,10.866-1.641S148.217,363.217,146.687,366.326Z" transform="translate(65.11 -320.929)" fill="url(#radial-gradient-15)"/>
      <path id="Path_1405" data-name="Path 1405" d="M157.753,386.438c-2.877,1.936-7.455.154-10.234-3.978s-2.7-9.047.174-10.983,7.458-.146,10.237,3.983S160.629,384.505,157.753,386.438Z" transform="translate(93.811 -292.571)" fill="url(#radial-gradient-16)"/>
      <path id="Path_1406" data-name="Path 1406" d="M158.169,408.871c-3.466-.066-6.2-4.149-6.1-9.13s2.977-8.959,6.44-8.9,6.194,4.161,6.1,9.133S161.632,408.936,158.169,408.871Z" transform="translate(106.051 -255.114)" fill="url(#radial-gradient-17)"/>
      <path id="Path_1407" data-name="Path 1407" d="M147.977,427.243c-2.862-1.959-2.905-6.871-.1-10.983s7.409-5.856,10.268-3.9,2.894,6.874.089,10.983S150.833,429.2,147.977,427.243Z" transform="translate(94.405 -216.597)" fill="url(#radial-gradient-18)"/>
      <path id="Path_1408" data-name="Path 1408" d="M130.591,439.6c-1.913-2.894-.1-7.457,4.049-10.211s9.065-2.636,10.98.252.092,7.46-4.055,10.211S132.5,442.486,130.591,439.6Z" transform="translate(64.704 -187.14)" fill="url(#radial-gradient-19)"/>
      <path id="Path_1409" data-name="Path 1409" d="M109.254,441.334c-.5-3.431,3.085-6.788,8.021-7.506s9.319,1.487,9.819,4.918-3.1,6.783-8.024,7.5S109.749,444.76,109.254,441.334Z" transform="translate(26.36 -175.437)" fill="url(#radial-gradient-20)"/>
      <path id="Path_1410" data-name="Path 1410" d="M89.4,430.681c1.616-3.071,6.488-3.683,10.9-1.361s6.668,6.674,5.056,9.745-6.494,3.669-10.9,1.355S87.794,433.744,89.4,430.681Z" transform="translate(-11.429 -186.187)" fill="url(#radial-gradient-21)"/>
      <path id="Path_1411" data-name="Path 1411" d="M75.153,413.315c2.542-2.362,7.343-1.327,10.737,2.322s4.086,8.507,1.547,10.872-7.34,1.313-10.732-2.325S72.617,415.674,75.153,413.315Z" transform="translate(-39.801 -215.685)" fill="url(#radial-gradient-22)"/>
      <path id="Path_1412" data-name="Path 1412" d="M74,390.742c3.471-.074,6.362,3.9,6.465,8.882s-2.619,9.067-6.085,9.139-6.351-3.909-6.46-8.882S70.539,390.81,74,390.742Z" transform="translate(-50.42 -255.306)" fill="url(#radial-gradient-23)"/>
      <path id="Path_1413" data-name="Path 1413" d="M83.594,370.511c3.26,1.181,4.527,5.928,2.831,10.614s-5.7,7.515-8.964,6.334-4.521-5.931-2.834-10.609C76.331,372.172,80.337,369.33,83.594,370.511Z" transform="translate(-39.332 -293.42)" fill="url(#radial-gradient-24)"/>
      <path id="Path_1414" data-name="Path 1414" d="M104.194,357.352c1.976,2.854.257,7.455-3.843,10.294s-9,2.82-10.978-.034-.243-7.455,3.843-10.288S102.221,354.5,104.194,357.352Z" transform="translate(-12.035 -321.375)" fill="url(#radial-gradient-25)"/>
      <g id="Group_551" data-name="Group 551" transform="translate(58.926 62.582)">
        <path id="Path_1415" data-name="Path 1415" d="M157.049,427.358c0,5.722-11.661,10.363-26.044,10.363s-26.044-4.641-26.044-10.363,11.664-10.366,26.044-10.366S157.049,421.633,157.049,427.358Z" transform="translate(-40.463 -269.073)" fill="#241f1a" style="mix-blend-mode: color-dodge;isolation: isolate"/>
        <path id="Path_1416" data-name="Path 1416" d="M143.253,373.933c0,4.79-9.757,8.67-21.789,8.67s-21.786-3.88-21.786-8.67,9.754-8.67,21.786-8.67S143.253,369.143,143.253,373.933Z" transform="translate(-50.289 -365.263)" fill="#241f1a" style="mix-blend-mode: color-dodge;isolation: isolate"/>
        <path id="Path_1417" data-name="Path 1417" d="M119.209,441.192c-4.478,3.563-15.367-2.676-24.323-13.937s-12.573-23.271-8.1-26.831,15.37,2.676,24.32,13.929S123.692,437.629,119.209,441.192Z" transform="translate(-77.821 -301.743)" fill="#241f1a" style="mix-blend-mode: color-dodge;isolation: isolate"/>
        <path id="Path_1418" data-name="Path 1418" d="M151.852,399.882c5.616,2.714,5.859,13.831.543,24.826s-14.172,17.717-19.788,15-5.859-13.828-.543-24.826S146.233,397.169,151.852,399.882Z" transform="translate(2.809 -302.008)" fill="#241f1a" style="mix-blend-mode: color-dodge;isolation: isolate"/>
        <path id="Path_1419" data-name="Path 1419" d="M108.334,374.314c5.619,2.714,5.859,13.829.543,24.826s-14.172,17.717-19.788,15-5.856-13.828-.543-24.829S102.718,371.6,108.334,374.314Z" transform="translate(-78.11 -349.551)" fill="#241f1a" style="mix-blend-mode: color-dodge;isolation: isolate"/>
        <path id="Path_1420" data-name="Path 1420" d="M139.191,379.3c4.006-.852,8.607,4.821,10.274,12.668s-.226,14.9-4.235,15.756-8.607-4.824-10.277-12.673S135.182,380.149,139.191,379.3Z" transform="translate(14.182 -339.324)" fill="#241f1a" style="mix-blend-mode: color-dodge;isolation: isolate"/>
        <path id="Path_1421" data-name="Path 1421" d="M123.267,368.811c3.031-2.757,9.865-.177,15.267,5.756s7.323,12.979,4.292,15.739-9.865.177-15.267-5.756S120.236,371.573,123.267,368.811Z" transform="translate(-9.094 -360.721)" fill="#241f1a" style="mix-blend-mode: color-dodge;isolation: isolate"/>
        <path id="Path_1422" data-name="Path 1422" d="M123.331,398.323a12.589,12.589,0,1,1-12.59-12.588A12.589,12.589,0,0,1,123.331,398.323Z" transform="translate(-53.123 -327.194)" fill="#241f1a" style="mix-blend-mode: color-dodge;isolation: isolate"/>
        <path id="Path_1423" data-name="Path 1423" d="M135.618,387.366A11.621,11.621,0,1,1,124,375.745,11.623,11.623,0,0,1,135.618,387.366Z" transform="translate(-26.675 -345.772)" fill="#241f1a" style="mix-blend-mode: color-dodge;isolation: isolate"/>
        <path id="Path_1424" data-name="Path 1424" d="M139.045,396.024a7.746,7.746,0,1,1-7.746-7.749A7.747,7.747,0,0,1,139.045,396.024Z" transform="translate(-5.894 -322.472)" fill="#241f1a" style="mix-blend-mode: color-dodge;isolation: isolate"/>
        <path id="Path_1425" data-name="Path 1425" d="M128.762,406.714a7.262,7.262,0,1,1-7.26-7.263A7.262,7.262,0,0,1,128.762,406.714Z" transform="translate(-23.211 -301.691)" fill="#241f1a" style="mix-blend-mode: color-dodge;isolation: isolate"/>
        <circle id="Ellipse_99" data-name="Ellipse 99" cx="10.652" cy="10.652" r="10.652" transform="translate(47.935 102.118)" fill="#241f1a" style="mix-blend-mode: color-dodge;isolation: isolate"/>
        <circle id="Ellipse_100" data-name="Ellipse 100" cx="7.747" cy="7.747" r="7.747" transform="translate(99.258 118.096)" fill="#241f1a" style="mix-blend-mode: color-dodge;isolation: isolate"/>
        <path id="Path_1426" data-name="Path 1426" d="M108.731,381.966a4.358,4.358,0,1,1-4.358-4.358A4.359,4.359,0,0,1,108.731,381.966Z" transform="translate(-49.66 -342.307)" fill="#241f1a" style="mix-blend-mode: color-dodge;isolation: isolate"/>
        <path id="Path_1427" data-name="Path 1427" d="M107.138,399.119a6.778,6.778,0,1,1-6.78-6.78A6.777,6.777,0,0,1,107.138,399.119Z" transform="translate(-61.624 -314.915)" fill="#241f1a" style="mix-blend-mode: color-dodge;isolation: isolate"/>
        <path id="Path_1428" data-name="Path 1428" d="M125.933,397.087a6.778,6.778,0,1,1-6.777-6.78A6.777,6.777,0,0,1,125.933,397.087Z" transform="translate(-26.675 -318.694)" fill="#241f1a" style="mix-blend-mode: color-dodge;isolation: isolate"/>
        <path id="Path_1429" data-name="Path 1429" d="M144.735,387.268A10.168,10.168,0,1,1,134.566,377.1,10.17,10.17,0,0,1,144.735,387.268Z" transform="translate(-4.32 -343.252)" fill="#241f1a" style="mix-blend-mode: color-dodge;isolation: isolate"/>
        <path id="Path_1430" data-name="Path 1430" d="M147.168,400.592a4.358,4.358,0,1,1-4.358-4.358A4.359,4.359,0,0,1,147.168,400.592Z" transform="translate(21.813 -307.673)" fill="#241f1a" style="mix-blend-mode: color-dodge;isolation: isolate"/>
        <path id="Path_1431" data-name="Path 1431" d="M105.588,423.234a5.326,5.326,0,1,1-5.327-5.327A5.327,5.327,0,0,1,105.588,423.234Z" transform="translate(-59.105 -267.372)" fill="#241f1a" style="mix-blend-mode: color-dodge;isolation: isolate"/>
        <circle id="Ellipse_101" data-name="Ellipse 101" cx="5.326" cy="5.326" r="5.326" transform="translate(0 76.456)" fill="#241f1a" style="mix-blend-mode: color-dodge;isolation: isolate"/>
      </g>
    </g>
    <g id="Group_553" data-name="Group 553" transform="translate(495.76 2721.109)">
      <g id="Group_550-2" data-name="Group 550" transform="translate(5.188 5.27)">
        <path id="Path_1390-2" data-name="Path 1390" d="M209.545,424.563l0-2.972c-18.411,0-14.6.013-15.972-7.753,5.7-3.707,10.281-5.552,24.319-9.318l-1.181-4.392c-28.234,7.563-25.036,4.954-28.012-.926,2.465-2.387,5.422-4.392,12.1-8.252l-1.489-2.573c-6.653,3.841-9.656,5.645-13.04,6.54-3.358-5.334-8.44-4.427,12.355-25.237l-3.218-3.213c-20.893,20.892-18.372,16.511-25.6,11.912.943-3.289,2.5-6.5,6.346-13.166l-2.575-1.484c-8.856,15.342-6.81,12.236-13.867,9.641-.271-6.421.5-11.457,4.125-24.993l-4.393-1.173c-7.5,27.986-7.545,23.394-15.25,23-.961-3.52-1.253-7.031-1.253-15.222h-2.975c0,8.176.066,11.62-1.047,15.216-6.493.307-8.28,5.34-16.02-23.56l-4.4,1.177c3.752,14,5.125,18.577,4.248,25.728a52.565,52.565,0,0,0-5.175,2.286c-2.386-2.465-4.392-5.422-8.247-12.1l-2.576,1.488c3.841,6.652,5.644,9.656,6.54,13.038-5.355,3.371-4.442,8.438-25.232-12.353l-3.216,3.219c24.348,24.348,16.873,29.719-1.253,19.255L82.1,390.951c6.671,3.852,9.735,5.55,12.206,8.044-2.772,5.416.493,9.208-27.554,1.7l-1.176,4.393c13.476,3.612,18.288,4.763,23.759,8.708a53.147,53.147,0,0,0-.758,6.542c-3.518.963-7.03,1.255-15.222,1.257v2.972c8.176,0,11.62-.065,15.216,1.048.309,6.527,5.332,8.278-23.562,16.022l1.181,4.393c28.233-7.564,25.038-4.947,28.013.927-2.466,2.387-5.422,4.392-12.1,8.251l1.486,2.573c6.653-3.841,9.658-5.644,13.04-6.54,3.373,5.356,8.436,4.442-12.352,25.233l3.216,3.216c20.764-20.764,18.33-16.535,25.6-11.912-.943,3.289-2.5,6.5-6.346,13.166l2.573,1.484c3.854-6.673,5.552-9.735,8.047-12.206,5.406,2.767,9.21-.5,1.7,27.556l4.39,1.174c3.613-13.476,4.767-18.286,8.709-23.76,7.055,1.249,7.8-2.3,7.8,15.984l2.974,0c0-18.415-.01-14.6,7.753-15.975,3.707,5.7,5.553,10.281,9.315,24.319l4.4-1.179c-3.752-14-5.125-18.577-4.248-25.729,5.765-2.179,4.673-5.33,13.424,9.821l2.573-1.489c-8.86-15.345-7.228-11.932-1.169-16.9,5.85,3.017,9.795,6.149,19.864,16.214l3.216-3.217c-20.77-20.767-16.538-18.333-11.916-25.6,3.289.943,6.506,2.5,13.169,6.348l1.483-2.575c-6.674-3.854-9.735-5.552-12.206-8.045,2.767-5.4-.51-9.21,27.558-1.7l1.174-4.394c-13.478-3.613-18.288-4.765-23.76-8.709C194.811,425.3,191.259,424.569,209.545,424.563Z" transform="translate(-65.01 -346.64)" fill="url(#radial-gradient)"/>
      </g>
      <path id="Path_1391-2" data-name="Path 1391" d="M134.34,351.428c-.719,2.775-4.537,4.187-8.527,3.153s-6.642-4.122-5.923-6.9,4.536-4.188,8.528-3.153S135.06,348.651,134.34,351.428Z" transform="translate(-26.13 -342.877)" fill="url(#radial-gradient-2)"/>
      <path id="Path_1392-2" data-name="Path 1392" d="M154.595,367.317c-1.854,2.189-5.9,1.8-9.052-.858s-4.195-6.6-2.342-8.787,5.905-1.8,9.052.858S156.447,365.127,154.595,367.317Z" transform="translate(-12.279 -335.456)" fill="url(#radial-gradient-3)"/>
      <path id="Path_1393-2" data-name="Path 1393" d="M162.3,391.246c-2.827.5-5.7-2.384-6.416-6.443s.988-7.755,3.81-8.257,5.7,2.386,6.416,6.443S165.121,390.745,162.3,391.246Z" transform="translate(-4.015 -323.005)" fill="url(#radial-gradient-4)"/>
      <path id="Path_1394-2" data-name="Path 1394" d="M158.27,416.24c-2.706-.959-3.78-4.883-2.4-8.769s4.686-6.257,7.388-5.3,3.776,4.886,2.4,8.771S160.97,417.2,158.27,416.24Z" transform="translate(-4.291 -307.336)" fill="url(#radial-gradient-5)"/>
      <path id="Path_1395-2" data-name="Path 1395" d="M143.477,436.061c-2-2.061-1.218-6.054,1.743-8.924s6.976-3.523,8.974-1.465,1.213,6.054-1.746,8.923S145.47,438.121,143.477,436.061Z" transform="translate(-12.227 -293.484)" fill="url(#radial-gradient-6)"/>
      <path id="Path_1396-2" data-name="Path 1396" d="M120.29,443.839c-.569-2.814,2.244-5.755,6.285-6.571s7.776.8,8.346,3.61-2.247,5.752-6.288,6.569S120.858,446.649,120.29,443.839Z" transform="translate(-25.856 -285.742)" fill="url(#radial-gradient-7)"/>
      <path id="Path_1397-2" data-name="Path 1397" d="M95.1,440.6c.615-2.806,4.374-4.361,8.4-3.476s6.791,3.872,6.178,6.673-4.377,4.353-8.406,3.473S94.482,443.394,95.1,440.6Z" transform="translate(-41.363 -285.855)" fill="url(#radial-gradient-8)"/>
      <path id="Path_1398-2" data-name="Path 1398" d="M74.632,426.6c1.543-2.421,5.6-2.591,9.086-.375s5.046,5.97,3.507,8.39-5.607,2.583-9.084.373S73.093,429.02,74.632,426.6Z" transform="translate(-54.266 -293.361)" fill="url(#radial-gradient-9)"/>
      <path id="Path_1399-2" data-name="Path 1399" d="M64.663,402.856c2.68-1.027,6.044,1.257,7.524,5.109s.5,7.8-2.177,8.827-6.044-1.263-7.524-5.111S61.985,403.88,64.663,402.856Z" transform="translate(-61.798 -306.935)" fill="url(#radial-gradient-10)"/>
      <path id="Path_1400-2" data-name="Path 1400" d="M69.363,377.276c2.783.7,4.221,4.5,3.214,8.506s-4.078,6.666-6.858,5.97S61.5,387.24,62.5,383.244,66.583,376.575,69.363,377.276Z" transform="translate(-61.56 -322.59)" fill="url(#radial-gradient-11)"/>
      <path id="Path_1401-2" data-name="Path 1401" d="M85.754,356.575c2.069,1.992,1.428,6.007-1.434,8.981s-6.849,3.762-8.918,1.775-1.418-6.01,1.438-8.981S83.69,354.587,85.754,356.575Z" transform="translate(-54.171 -335.931)" fill="url(#radial-gradient-12)"/>
      <path id="Path_1402-2" data-name="Path 1402" d="M109.375,346.707c.8,2.757-1.762,5.915-5.724,7.063s-7.815-.162-8.616-2.914,1.774-5.917,5.731-7.065S108.579,343.952,109.375,346.707Z" transform="translate(-41.438 -343.377)" fill="url(#radial-gradient-13)"/>
      <path id="Path_1403-2" data-name="Path 1403" d="M119.264,352.9c.082,1.956-2.126,3.634-4.938,3.755s-5.154-1.373-5.238-3.327,2.132-3.633,4.941-3.754S119.181,350.946,119.264,352.9Z" transform="translate(-32.705 -339.567)" fill="url(#radial-gradient-14)"/>
      <path id="Path_1404-2" data-name="Path 1404" d="M139.446,361.593c-.867,1.756-3.61,2.171-6.135.929s-3.865-3.675-3-5.43,3.613-2.168,6.138-.927S140.31,359.837,139.446,361.593Z" transform="translate(-19.808 -335.95)" fill="url(#radial-gradient-15)"/>
      <path id="Path_1405-2" data-name="Path 1405" d="M152.413,379.59c-1.625,1.094-4.211.087-5.781-2.247s-1.526-5.111.1-6.2,4.213-.082,5.783,2.25S154.038,378.5,152.413,379.59Z" transform="translate(-10.312 -326.567)" fill="url(#radial-gradient-16)"/>
      <path id="Path_1406-2" data-name="Path 1406" d="M155.512,401.027c-1.958-.037-3.5-2.344-3.447-5.158s1.681-5.061,3.638-5.025,3.5,2.35,3.449,5.159S157.469,401.064,155.512,401.027Z" transform="translate(-6.262 -314.174)" fill="url(#radial-gradient-17)"/>
      <path id="Path_1407-2" data-name="Path 1407" d="M147.03,420.418c-1.617-1.106-1.641-3.881-.055-6.2s4.185-3.308,5.8-2.2,1.635,3.883.05,6.2S148.644,421.521,147.03,420.418Z" transform="translate(-10.115 -301.43)" fill="url(#radial-gradient-18)"/>
      <path id="Path_1408-2" data-name="Path 1408" d="M130.259,434.291c-1.081-1.635-.058-4.212,2.287-5.768s5.12-1.489,6.2.142.052,4.214-2.29,5.768S131.34,435.921,130.259,434.291Z" transform="translate(-19.943 -291.683)" fill="url(#radial-gradient-19)"/>
      <path id="Path_1409-2" data-name="Path 1409" d="M109.234,438.009c-.281-1.938,1.743-3.835,4.531-4.24s5.264.84,5.547,2.778-1.753,3.831-4.532,4.237S109.513,439.944,109.234,438.009Z" transform="translate(-32.629 -287.811)" fill="url(#radial-gradient-20)"/>
      <path id="Path_1410-2" data-name="Path 1410" d="M89.179,429.476c.913-1.735,3.665-2.08,6.157-.769s3.767,3.77,2.856,5.5-3.668,2.072-6.156.766S88.269,431.206,89.179,429.476Z" transform="translate(-45.132 -291.368)" fill="url(#radial-gradient-21)"/>
      <path id="Path_1411-2" data-name="Path 1411" d="M74.489,412.763c1.436-1.334,4.148-.749,6.065,1.312s2.308,4.805.874,6.141-4.146.741-6.062-1.313S73.056,414.1,74.489,412.763Z" transform="translate(-54.52 -301.128)" fill="url(#radial-gradient-22)"/>
      <path id="Path_1412-2" data-name="Path 1412" d="M71.353,390.741c1.961-.042,3.594,2.2,3.652,5.017s-1.48,5.122-3.437,5.162-3.587-2.208-3.649-5.017S69.4,390.78,71.353,390.741Z" transform="translate(-58.033 -314.237)" fill="url(#radial-gradient-23)"/>
      <path id="Path_1413-2" data-name="Path 1413" d="M79.367,370.394c1.841.667,2.557,3.348,1.6,6s-3.221,4.245-5.064,3.578-2.554-3.35-1.6-5.993S77.527,369.727,79.367,370.394Z" transform="translate(-54.365 -326.848)" fill="url(#radial-gradient-24)"/>
      <path id="Path_1414-2" data-name="Path 1414" d="M97.391,356.42c1.116,1.612.145,4.211-2.171,5.815s-5.085,1.593-6.2-.019S88.882,358,91.19,356.4,96.276,354.811,97.391,356.42Z" transform="translate(-45.333 -336.097)" fill="url(#radial-gradient-25)"/>
      <g id="Group_551-2" data-name="Group 551" transform="translate(33.286 35.351)">
        <path id="Path_1415-2" data-name="Path 1415" d="M134.384,422.847c0,3.232-6.587,5.854-14.712,5.854s-14.712-2.621-14.712-5.854,6.589-5.855,14.712-5.855S134.384,419.613,134.384,422.847Z" transform="translate(-68.528 -333.437)" fill="#241f1a" style="mix-blend-mode: color-dodge;isolation: isolate"/>
        <path id="Path_1416-2" data-name="Path 1416" d="M124.292,370.16c0,2.706-5.511,4.9-12.308,4.9s-12.307-2.192-12.307-4.9,5.51-4.9,12.307-4.9S124.292,367.455,124.292,370.16Z" transform="translate(-71.779 -365.263)" fill="#241f1a" style="mix-blend-mode: color-dodge;isolation: isolate"/>
        <path id="Path_1417-2" data-name="Path 1417" d="M104.267,423.017c-2.529,2.013-8.68-1.512-13.739-7.873s-7.1-13.145-4.574-15.156,8.682,1.512,13.738,7.868S106.8,421,104.267,423.017Z" transform="translate(-80.889 -344.246)" fill="#241f1a" style="mix-blend-mode: color-dodge;isolation: isolate"/>
        <path id="Path_1418-2" data-name="Path 1418" d="M141.574,399.62c3.172,1.533,3.31,7.813.307,14.024s-8.005,10.008-11.178,8.475-3.31-7.811-.307-14.024S138.4,398.088,141.574,399.62Z" transform="translate(-54.211 -344.334)" fill="#241f1a" style="mix-blend-mode: color-dodge;isolation: isolate"/>
        <path id="Path_1419-2" data-name="Path 1419" d="M98.057,374.052c3.174,1.533,3.31,7.811.307,14.024s-8.005,10.008-11.178,8.475-3.308-7.811-.307-14.025S94.884,372.52,98.057,374.052Z" transform="translate(-80.984 -360.064)" fill="#241f1a" style="mix-blend-mode: color-dodge;isolation: isolate"/>
        <path id="Path_1420-2" data-name="Path 1420" d="M137.084,379.26c2.263-.481,4.862,2.723,5.8,7.156s-.128,8.417-2.392,8.9-4.862-2.725-5.805-7.159S134.819,379.742,137.084,379.26Z" transform="translate(-50.448 -356.681)" fill="#241f1a" style="mix-blend-mode: color-dodge;isolation: isolate"/>
        <path id="Path_1421-2" data-name="Path 1421" d="M122.642,368.33c1.712-1.557,5.573-.1,8.624,3.251s4.137,7.332,2.424,8.89-5.573.1-8.624-3.252S120.93,369.89,122.642,368.33Z" transform="translate(-58.149 -363.76)" fill="#241f1a" style="mix-blend-mode: color-dodge;isolation: isolate"/>
        <path id="Path_1422-2" data-name="Path 1422" d="M112.375,392.846a7.111,7.111,0,1,1-7.112-7.11A7.111,7.111,0,0,1,112.375,392.846Z" transform="translate(-72.717 -352.667)" fill="#241f1a" style="mix-blend-mode: color-dodge;isolation: isolate"/>
        <path id="Path_1423-2" data-name="Path 1423" d="M125.5,382.309a6.564,6.564,0,1,1-6.564-6.564A6.565,6.565,0,0,1,125.5,382.309Z" transform="translate(-63.966 -358.814)" fill="#241f1a" style="mix-blend-mode: color-dodge;isolation: isolate"/>
        <path id="Path_1424-2" data-name="Path 1424" d="M132.3,392.652a4.376,4.376,0,1,1-4.376-4.377A4.376,4.376,0,0,1,132.3,392.652Z" transform="translate(-57.09 -351.105)" fill="#241f1a" style="mix-blend-mode: color-dodge;isolation: isolate"/>
        <path id="Path_1425-2" data-name="Path 1425" d="M122.443,403.554a4.1,4.1,0,1,1-4.1-4.1A4.1,4.1,0,0,1,122.443,403.554Z" transform="translate(-62.82 -344.229)" fill="#241f1a" style="mix-blend-mode: color-dodge;isolation: isolate"/>
        <circle id="Ellipse_99-2" data-name="Ellipse 99" cx="6.017" cy="6.017" r="6.017" transform="translate(27.077 57.683)" fill="#241f1a" style="mix-blend-mode: color-dodge;isolation: isolate"/>
        <circle id="Ellipse_100-2" data-name="Ellipse 100" cx="4.376" cy="4.376" r="4.376" transform="translate(56.068 66.709)" fill="#241f1a" style="mix-blend-mode: color-dodge;isolation: isolate"/>
        <path id="Path_1426-2" data-name="Path 1426" d="M104.938,380.07a2.462,2.462,0,1,1-2.462-2.462A2.462,2.462,0,0,1,104.938,380.07Z" transform="translate(-71.571 -357.668)" fill="#241f1a" style="mix-blend-mode: color-dodge;isolation: isolate"/>
        <path id="Path_1427-2" data-name="Path 1427" d="M101.239,396.169a3.829,3.829,0,1,1-3.83-3.83A3.828,3.828,0,0,1,101.239,396.169Z" transform="translate(-75.53 -348.605)" fill="#241f1a" style="mix-blend-mode: color-dodge;isolation: isolate"/>
        <path id="Path_1428-2" data-name="Path 1428" d="M120.034,394.137a3.829,3.829,0,1,1-3.828-3.83A3.828,3.828,0,0,1,120.034,394.137Z" transform="translate(-63.966 -349.855)" fill="#241f1a" style="mix-blend-mode: color-dodge;isolation: isolate"/>
        <path id="Path_1429-2" data-name="Path 1429" d="M135.886,382.844a5.744,5.744,0,1,1-5.744-5.744A5.745,5.745,0,0,1,135.886,382.844Z" transform="translate(-56.57 -357.98)" fill="#241f1a" style="mix-blend-mode: color-dodge;isolation: isolate"/>
        <path id="Path_1430-2" data-name="Path 1430" d="M143.375,398.7a2.462,2.462,0,1,1-2.462-2.462A2.462,2.462,0,0,1,143.375,398.7Z" transform="translate(-47.923 -346.208)" fill="#241f1a" style="mix-blend-mode: color-dodge;isolation: isolate"/>
        <path id="Path_1431-2" data-name="Path 1431" d="M100.953,420.916a3.008,3.008,0,1,1-3.009-3.009A3.009,3.009,0,0,1,100.953,420.916Z" transform="translate(-74.696 -332.874)" fill="#241f1a" style="mix-blend-mode: color-dodge;isolation: isolate"/>
        <circle id="Ellipse_101-2" data-name="Ellipse 101" cx="3.009" cy="3.009" r="3.009" transform="translate(0 43.188)" fill="#241f1a" style="mix-blend-mode: color-dodge;isolation: isolate"/>
      </g>
    </g>
    <g id="Group_554" data-name="Group 554" transform="translate(416 3075.36)">
      <g id="Group_550-3" data-name="Group 550" transform="translate(5.188 5.27)">
        <path id="Path_1390-3" data-name="Path 1390" d="M209.545,424.563l0-2.972c-18.411,0-14.6.013-15.972-7.753,5.7-3.707,10.281-5.552,24.319-9.318l-1.181-4.392c-28.234,7.563-25.036,4.954-28.012-.926,2.465-2.387,5.422-4.392,12.1-8.252l-1.489-2.573c-6.653,3.841-9.656,5.645-13.04,6.54-3.358-5.334-8.44-4.427,12.355-25.237l-3.218-3.213c-20.893,20.892-18.372,16.511-25.6,11.912.943-3.289,2.5-6.5,6.346-13.166l-2.575-1.484c-8.856,15.342-6.81,12.236-13.867,9.641-.271-6.421.5-11.457,4.125-24.993l-4.393-1.173c-7.5,27.986-7.545,23.394-15.25,23-.961-3.52-1.253-7.031-1.253-15.222h-2.975c0,8.176.066,11.62-1.047,15.216-6.493.307-8.28,5.34-16.02-23.56l-4.4,1.177c3.752,14,5.125,18.577,4.248,25.728a52.565,52.565,0,0,0-5.175,2.286c-2.386-2.465-4.392-5.422-8.247-12.1l-2.576,1.488c3.841,6.652,5.644,9.656,6.54,13.038-5.355,3.371-4.442,8.438-25.232-12.353l-3.216,3.219c24.348,24.348,16.873,29.719-1.253,19.255L82.1,390.951c6.671,3.852,9.735,5.55,12.206,8.044-2.772,5.416.493,9.208-27.554,1.7l-1.176,4.393c13.476,3.612,18.288,4.763,23.759,8.708a53.147,53.147,0,0,0-.758,6.542c-3.518.963-7.03,1.255-15.222,1.257v2.972c8.176,0,11.62-.065,15.216,1.048.309,6.527,5.332,8.278-23.562,16.022l1.181,4.393c28.233-7.564,25.038-4.947,28.013.927-2.466,2.387-5.422,4.392-12.1,8.251l1.486,2.573c6.653-3.841,9.658-5.644,13.04-6.54,3.373,5.356,8.436,4.442-12.352,25.233l3.216,3.216c20.764-20.764,18.33-16.535,25.6-11.912-.943,3.289-2.5,6.5-6.346,13.166l2.573,1.484c3.854-6.673,5.552-9.735,8.047-12.206,5.406,2.767,9.21-.5,1.7,27.556l4.39,1.174c3.613-13.476,4.767-18.286,8.709-23.76,7.055,1.249,7.8-2.3,7.8,15.984l2.974,0c0-18.415-.01-14.6,7.753-15.975,3.707,5.7,5.553,10.281,9.315,24.319l4.4-1.179c-3.752-14-5.125-18.577-4.248-25.729,5.765-2.179,4.673-5.33,13.424,9.821l2.573-1.489c-8.86-15.345-7.228-11.932-1.169-16.9,5.85,3.017,9.795,6.149,19.864,16.214l3.216-3.217c-20.77-20.767-16.538-18.333-11.916-25.6,3.289.943,6.506,2.5,13.169,6.348l1.483-2.575c-6.674-3.854-9.735-5.552-12.206-8.045,2.767-5.4-.51-9.21,27.558-1.7l1.174-4.394c-13.478-3.613-18.288-4.765-23.76-8.709C194.811,425.3,191.259,424.569,209.545,424.563Z" transform="translate(-65.01 -346.64)" fill="url(#radial-gradient)"/>
      </g>
      <path id="Path_1391-3" data-name="Path 1391" d="M134.34,351.428c-.719,2.775-4.537,4.187-8.527,3.153s-6.642-4.122-5.923-6.9,4.536-4.188,8.528-3.153S135.06,348.651,134.34,351.428Z" transform="translate(-26.13 -342.877)" fill="url(#radial-gradient-2)"/>
      <path id="Path_1392-3" data-name="Path 1392" d="M154.595,367.317c-1.854,2.189-5.9,1.8-9.052-.858s-4.195-6.6-2.342-8.787,5.905-1.8,9.052.858S156.447,365.127,154.595,367.317Z" transform="translate(-12.279 -335.456)" fill="url(#radial-gradient-3)"/>
      <path id="Path_1393-3" data-name="Path 1393" d="M162.3,391.246c-2.827.5-5.7-2.384-6.416-6.443s.988-7.755,3.81-8.257,5.7,2.386,6.416,6.443S165.121,390.745,162.3,391.246Z" transform="translate(-4.015 -323.005)" fill="url(#radial-gradient-4)"/>
      <path id="Path_1394-3" data-name="Path 1394" d="M158.27,416.24c-2.706-.959-3.78-4.883-2.4-8.769s4.686-6.257,7.388-5.3,3.776,4.886,2.4,8.771S160.97,417.2,158.27,416.24Z" transform="translate(-4.291 -307.336)" fill="url(#radial-gradient-5)"/>
      <path id="Path_1395-3" data-name="Path 1395" d="M143.477,436.061c-2-2.061-1.218-6.054,1.743-8.924s6.976-3.523,8.974-1.465,1.213,6.054-1.746,8.923S145.47,438.121,143.477,436.061Z" transform="translate(-12.227 -293.484)" fill="url(#radial-gradient-6)"/>
      <path id="Path_1396-3" data-name="Path 1396" d="M120.29,443.839c-.569-2.814,2.244-5.755,6.285-6.571s7.776.8,8.346,3.61-2.247,5.752-6.288,6.569S120.858,446.649,120.29,443.839Z" transform="translate(-25.856 -285.742)" fill="url(#radial-gradient-7)"/>
      <path id="Path_1397-3" data-name="Path 1397" d="M95.1,440.6c.615-2.806,4.374-4.361,8.4-3.476s6.791,3.872,6.178,6.673-4.377,4.353-8.406,3.473S94.482,443.394,95.1,440.6Z" transform="translate(-41.363 -285.855)" fill="url(#radial-gradient-8)"/>
      <path id="Path_1398-3" data-name="Path 1398" d="M74.632,426.6c1.543-2.421,5.6-2.591,9.086-.375s5.046,5.97,3.507,8.39-5.607,2.583-9.084.373S73.093,429.02,74.632,426.6Z" transform="translate(-54.266 -293.361)" fill="url(#radial-gradient-9)"/>
      <path id="Path_1399-3" data-name="Path 1399" d="M64.663,402.856c2.68-1.027,6.044,1.257,7.524,5.109s.5,7.8-2.177,8.827-6.044-1.263-7.524-5.111S61.985,403.88,64.663,402.856Z" transform="translate(-61.798 -306.935)" fill="url(#radial-gradient-10)"/>
      <path id="Path_1400-3" data-name="Path 1400" d="M69.363,377.276c2.783.7,4.221,4.5,3.214,8.506s-4.078,6.666-6.858,5.97S61.5,387.24,62.5,383.244,66.583,376.575,69.363,377.276Z" transform="translate(-61.56 -322.59)" fill="url(#radial-gradient-11)"/>
      <path id="Path_1401-3" data-name="Path 1401" d="M85.754,356.575c2.069,1.992,1.428,6.007-1.434,8.981s-6.849,3.762-8.918,1.775-1.418-6.01,1.438-8.981S83.69,354.587,85.754,356.575Z" transform="translate(-54.171 -335.931)" fill="url(#radial-gradient-12)"/>
      <path id="Path_1402-3" data-name="Path 1402" d="M109.375,346.707c.8,2.757-1.762,5.915-5.724,7.063s-7.815-.162-8.616-2.914,1.774-5.917,5.731-7.065S108.579,343.952,109.375,346.707Z" transform="translate(-41.438 -343.377)" fill="url(#radial-gradient-13)"/>
      <path id="Path_1403-3" data-name="Path 1403" d="M119.264,352.9c.082,1.956-2.126,3.634-4.938,3.755s-5.154-1.373-5.238-3.327,2.132-3.633,4.941-3.754S119.181,350.946,119.264,352.9Z" transform="translate(-32.705 -339.567)" fill="url(#radial-gradient-14)"/>
      <path id="Path_1404-3" data-name="Path 1404" d="M139.446,361.593c-.867,1.756-3.61,2.171-6.135.929s-3.865-3.675-3-5.43,3.613-2.168,6.138-.927S140.31,359.837,139.446,361.593Z" transform="translate(-19.808 -335.95)" fill="url(#radial-gradient-15)"/>
      <path id="Path_1405-3" data-name="Path 1405" d="M152.413,379.59c-1.625,1.094-4.211.087-5.781-2.247s-1.526-5.111.1-6.2,4.213-.082,5.783,2.25S154.038,378.5,152.413,379.59Z" transform="translate(-10.312 -326.567)" fill="url(#radial-gradient-16)"/>
      <path id="Path_1406-3" data-name="Path 1406" d="M155.512,401.027c-1.958-.037-3.5-2.344-3.447-5.158s1.681-5.061,3.638-5.025,3.5,2.35,3.449,5.159S157.469,401.064,155.512,401.027Z" transform="translate(-6.262 -314.174)" fill="url(#radial-gradient-17)"/>
      <path id="Path_1407-3" data-name="Path 1407" d="M147.03,420.418c-1.617-1.106-1.641-3.881-.055-6.2s4.185-3.308,5.8-2.2,1.635,3.883.05,6.2S148.644,421.521,147.03,420.418Z" transform="translate(-10.115 -301.43)" fill="url(#radial-gradient-18)"/>
      <path id="Path_1408-3" data-name="Path 1408" d="M130.259,434.291c-1.081-1.635-.058-4.212,2.287-5.768s5.12-1.489,6.2.142.052,4.214-2.29,5.768S131.34,435.921,130.259,434.291Z" transform="translate(-19.943 -291.683)" fill="url(#radial-gradient-19)"/>
      <path id="Path_1409-3" data-name="Path 1409" d="M109.234,438.009c-.281-1.938,1.743-3.835,4.531-4.24s5.264.84,5.547,2.778-1.753,3.831-4.532,4.237S109.513,439.944,109.234,438.009Z" transform="translate(-32.629 -287.811)" fill="url(#radial-gradient-20)"/>
      <path id="Path_1410-3" data-name="Path 1410" d="M89.179,429.476c.913-1.735,3.665-2.08,6.157-.769s3.767,3.77,2.856,5.5-3.668,2.072-6.156.766S88.269,431.206,89.179,429.476Z" transform="translate(-45.132 -291.368)" fill="url(#radial-gradient-21)"/>
      <path id="Path_1411-3" data-name="Path 1411" d="M74.489,412.763c1.436-1.334,4.148-.749,6.065,1.312s2.308,4.805.874,6.141-4.146.741-6.062-1.313S73.056,414.1,74.489,412.763Z" transform="translate(-54.52 -301.128)" fill="url(#radial-gradient-22)"/>
      <path id="Path_1412-3" data-name="Path 1412" d="M71.353,390.741c1.961-.042,3.594,2.2,3.652,5.017s-1.48,5.122-3.437,5.162-3.587-2.208-3.649-5.017S69.4,390.78,71.353,390.741Z" transform="translate(-58.033 -314.237)" fill="url(#radial-gradient-23)"/>
      <path id="Path_1413-3" data-name="Path 1413" d="M79.367,370.394c1.841.667,2.557,3.348,1.6,6s-3.221,4.245-5.064,3.578-2.554-3.35-1.6-5.993S77.527,369.727,79.367,370.394Z" transform="translate(-54.365 -326.848)" fill="url(#radial-gradient-24)"/>
      <path id="Path_1414-3" data-name="Path 1414" d="M97.391,356.42c1.116,1.612.145,4.211-2.171,5.815s-5.085,1.593-6.2-.019S88.882,358,91.19,356.4,96.276,354.811,97.391,356.42Z" transform="translate(-45.333 -336.097)" fill="url(#radial-gradient-25)"/>
      <g id="Group_551-3" data-name="Group 551" transform="translate(33.286 35.351)">
        <path id="Path_1415-3" data-name="Path 1415" d="M134.384,422.847c0,3.232-6.587,5.854-14.712,5.854s-14.712-2.621-14.712-5.854,6.589-5.855,14.712-5.855S134.384,419.613,134.384,422.847Z" transform="translate(-68.528 -333.437)" fill="#241f1a" style="mix-blend-mode: color-dodge;isolation: isolate"/>
        <path id="Path_1416-3" data-name="Path 1416" d="M124.292,370.16c0,2.706-5.511,4.9-12.308,4.9s-12.307-2.192-12.307-4.9,5.51-4.9,12.307-4.9S124.292,367.455,124.292,370.16Z" transform="translate(-71.779 -365.263)" fill="#241f1a" style="mix-blend-mode: color-dodge;isolation: isolate"/>
        <path id="Path_1417-3" data-name="Path 1417" d="M104.267,423.017c-2.529,2.013-8.68-1.512-13.739-7.873s-7.1-13.145-4.574-15.156,8.682,1.512,13.738,7.868S106.8,421,104.267,423.017Z" transform="translate(-80.889 -344.246)" fill="#241f1a" style="mix-blend-mode: color-dodge;isolation: isolate"/>
        <path id="Path_1418-3" data-name="Path 1418" d="M141.574,399.62c3.172,1.533,3.31,7.813.307,14.024s-8.005,10.008-11.178,8.475-3.31-7.811-.307-14.024S138.4,398.088,141.574,399.62Z" transform="translate(-54.211 -344.334)" fill="#241f1a" style="mix-blend-mode: color-dodge;isolation: isolate"/>
        <path id="Path_1419-3" data-name="Path 1419" d="M98.057,374.052c3.174,1.533,3.31,7.811.307,14.024s-8.005,10.008-11.178,8.475-3.308-7.811-.307-14.025S94.884,372.52,98.057,374.052Z" transform="translate(-80.984 -360.064)" fill="#241f1a" style="mix-blend-mode: color-dodge;isolation: isolate"/>
        <path id="Path_1420-3" data-name="Path 1420" d="M137.084,379.26c2.263-.481,4.862,2.723,5.8,7.156s-.128,8.417-2.392,8.9-4.862-2.725-5.805-7.159S134.819,379.742,137.084,379.26Z" transform="translate(-50.448 -356.681)" fill="#241f1a" style="mix-blend-mode: color-dodge;isolation: isolate"/>
        <path id="Path_1421-3" data-name="Path 1421" d="M122.642,368.33c1.712-1.557,5.573-.1,8.624,3.251s4.137,7.332,2.424,8.89-5.573.1-8.624-3.252S120.93,369.89,122.642,368.33Z" transform="translate(-58.149 -363.76)" fill="#241f1a" style="mix-blend-mode: color-dodge;isolation: isolate"/>
        <path id="Path_1422-3" data-name="Path 1422" d="M112.375,392.846a7.111,7.111,0,1,1-7.112-7.11A7.111,7.111,0,0,1,112.375,392.846Z" transform="translate(-72.717 -352.667)" fill="#241f1a" style="mix-blend-mode: color-dodge;isolation: isolate"/>
        <path id="Path_1423-3" data-name="Path 1423" d="M125.5,382.309a6.564,6.564,0,1,1-6.564-6.564A6.565,6.565,0,0,1,125.5,382.309Z" transform="translate(-63.966 -358.814)" fill="#241f1a" style="mix-blend-mode: color-dodge;isolation: isolate"/>
        <path id="Path_1424-3" data-name="Path 1424" d="M132.3,392.652a4.376,4.376,0,1,1-4.376-4.377A4.376,4.376,0,0,1,132.3,392.652Z" transform="translate(-57.09 -351.105)" fill="#241f1a" style="mix-blend-mode: color-dodge;isolation: isolate"/>
        <path id="Path_1425-3" data-name="Path 1425" d="M122.443,403.554a4.1,4.1,0,1,1-4.1-4.1A4.1,4.1,0,0,1,122.443,403.554Z" transform="translate(-62.82 -344.229)" fill="#241f1a" style="mix-blend-mode: color-dodge;isolation: isolate"/>
        <circle id="Ellipse_99-3" data-name="Ellipse 99" cx="6.017" cy="6.017" r="6.017" transform="translate(27.077 57.683)" fill="#241f1a" style="mix-blend-mode: color-dodge;isolation: isolate"/>
        <circle id="Ellipse_100-3" data-name="Ellipse 100" cx="4.376" cy="4.376" r="4.376" transform="translate(56.068 66.709)" fill="#241f1a" style="mix-blend-mode: color-dodge;isolation: isolate"/>
        <path id="Path_1426-3" data-name="Path 1426" d="M104.938,380.07a2.462,2.462,0,1,1-2.462-2.462A2.462,2.462,0,0,1,104.938,380.07Z" transform="translate(-71.571 -357.668)" fill="#241f1a" style="mix-blend-mode: color-dodge;isolation: isolate"/>
        <path id="Path_1427-3" data-name="Path 1427" d="M101.239,396.169a3.829,3.829,0,1,1-3.83-3.83A3.828,3.828,0,0,1,101.239,396.169Z" transform="translate(-75.53 -348.605)" fill="#241f1a" style="mix-blend-mode: color-dodge;isolation: isolate"/>
        <path id="Path_1428-3" data-name="Path 1428" d="M120.034,394.137a3.829,3.829,0,1,1-3.828-3.83A3.828,3.828,0,0,1,120.034,394.137Z" transform="translate(-63.966 -349.855)" fill="#241f1a" style="mix-blend-mode: color-dodge;isolation: isolate"/>
        <path id="Path_1429-3" data-name="Path 1429" d="M135.886,382.844a5.744,5.744,0,1,1-5.744-5.744A5.745,5.745,0,0,1,135.886,382.844Z" transform="translate(-56.57 -357.98)" fill="#241f1a" style="mix-blend-mode: color-dodge;isolation: isolate"/>
        <path id="Path_1430-3" data-name="Path 1430" d="M143.375,398.7a2.462,2.462,0,1,1-2.462-2.462A2.462,2.462,0,0,1,143.375,398.7Z" transform="translate(-47.923 -346.208)" fill="#241f1a" style="mix-blend-mode: color-dodge;isolation: isolate"/>
        <path id="Path_1431-3" data-name="Path 1431" d="M100.953,420.916a3.008,3.008,0,1,1-3.009-3.009A3.009,3.009,0,0,1,100.953,420.916Z" transform="translate(-74.696 -332.874)" fill="#241f1a" style="mix-blend-mode: color-dodge;isolation: isolate"/>
        <circle id="Ellipse_101-3" data-name="Ellipse 101" cx="3.009" cy="3.009" r="3.009" transform="translate(0 43.188)" fill="#241f1a" style="mix-blend-mode: color-dodge;isolation: isolate"/>
      </g>
    </g>
    <g id="Group_555" data-name="Group 555" transform="translate(900.714 3195.496)">
      <g id="Group_550-4" data-name="Group 550" transform="translate(5.188 5.27)">
        <path id="Path_1390-4" data-name="Path 1390" d="M171.056,402.626l0-2.135c-13.508,0-10.715.009-11.718-5.571,4.179-2.663,7.543-3.989,17.843-6.7l-.866-3.155c-20.716,5.434-18.369,3.559-20.552-.665,1.808-1.715,3.978-3.155,8.88-5.929l-1.093-1.849c-4.881,2.76-7.085,4.056-9.567,4.7-2.464-3.832-6.192-3.181,9.065-18.132l-2.361-2.308c-15.329,15.01-13.479,11.863-18.786,8.559.692-2.363,1.837-4.673,4.656-9.459l-1.889-1.067c-6.5,11.023-5,8.791-10.174,6.927-.2-4.613.37-8.232,3.027-17.957l-3.223-.843c-5.5,20.107-5.536,16.808-11.189,16.526-.705-2.529-.92-5.052-.92-10.937H120c0,5.875.049,8.349-.768,10.932-4.764.22-6.075,3.837-11.754-16.927l-3.226.846c2.753,10.062,3.76,13.347,3.117,18.485a38.977,38.977,0,0,0-3.8,1.642c-1.75-1.771-3.222-3.9-6.051-8.695l-1.89,1.069c2.818,4.779,4.141,6.938,4.8,9.368-3.929,2.422-3.259,6.063-18.513-8.876l-2.36,2.313c17.864,17.494,12.38,21.352-.92,13.835l-1.09,1.85c4.894,2.768,7.143,3.988,8.956,5.779-2.034,3.891.361,6.616-20.217,1.22l-.863,3.157c9.887,2.595,13.418,3.422,17.432,6.256a37.428,37.428,0,0,0-.556,4.7c-2.581.692-5.158.9-11.168.9v2.135c6,0,8.526-.046,11.164.753.226,4.69,3.912,5.948-17.287,11.511l.866,3.157c20.714-5.435,18.37-3.555,20.553.666-1.81,1.715-3.978,3.155-8.88,5.928l1.09,1.849c4.881-2.76,7.086-4.055,9.567-4.7,2.475,3.848,6.19,3.191-9.062,18.13l2.36,2.311c15.235-14.919,13.449-11.88,18.785-8.559-.692,2.363-1.836,4.673-4.656,9.459l1.888,1.066c2.828-4.794,4.073-6.994,5.9-8.77,3.967,1.988,6.757-.361,1.246,19.8l3.221.844c2.651-9.682,3.5-13.138,6.39-17.071,5.177.9,5.72-1.655,5.722,11.484h2.182c0-13.231-.007-10.493,5.689-11.478,2.72,4.092,4.074,7.387,6.834,17.473l3.225-.847c-2.753-10.062-3.76-13.347-3.117-18.486,4.23-1.565,3.428-3.83,9.849,7.056l1.888-1.07c-6.5-11.025-5.3-8.573-.858-12.141,4.292,2.168,7.186,4.418,14.574,11.649l2.36-2.312c-15.239-14.921-12.134-13.172-8.743-18.4,2.413.678,4.774,1.8,9.662,4.561l1.088-1.85c-4.9-2.769-7.143-3.989-8.956-5.781,2.03-3.883-.374-6.617,20.219-1.219l.862-3.157c-9.889-2.6-13.418-3.424-17.433-6.258C160.245,403.155,157.639,402.631,171.056,402.626Z" transform="translate(-65.01 -346.64)" fill="url(#radial-gradient)"/>
      </g>
      <path id="Path_1391-4" data-name="Path 1391" d="M134.34,351.428c-.719,2.775-4.537,4.187-8.527,3.153s-6.642-4.122-5.923-6.9,4.536-4.188,8.528-3.153S135.06,348.651,134.34,351.428Z" transform="translate(-51.964 -342.877)" fill="url(#radial-gradient-2)"/>
      <path id="Path_1392-4" data-name="Path 1392" d="M154.595,367.317c-1.854,2.189-5.9,1.8-9.052-.858s-4.195-6.6-2.342-8.787,5.905-1.8,9.052.858S156.447,365.127,154.595,367.317Z" transform="translate(-52.991 -335.456)" fill="url(#radial-gradient-3)"/>
      <path id="Path_1393-4" data-name="Path 1393" d="M162.3,391.246c-2.827.5-5.7-2.384-6.416-6.443s.988-7.755,3.81-8.257,5.7,2.386,6.416,6.443S165.121,390.745,162.3,391.246Z" transform="translate(-44.727 -338.653)" fill="url(#radial-gradient-4)"/>
      <path id="Path_1394-4" data-name="Path 1394" d="M158.27,416.24c-2.706-.959-3.78-4.883-2.4-8.769s4.686-6.257,7.388-5.3,3.776,4.886,2.4,8.771S160.97,417.2,158.27,416.24Z" transform="translate(-45.003 -334.959)" fill="url(#radial-gradient-5)"/>
      <path id="Path_1395-4" data-name="Path 1395" d="M143.477,436.061c-2-2.061-1.218-6.054,1.743-8.924s6.976-3.523,8.974-1.465,1.213,6.054-1.746,8.923S145.47,438.121,143.477,436.061Z" transform="translate(-52.939 -336.522)" fill="url(#radial-gradient-6)"/>
      <path id="Path_1396-4" data-name="Path 1396" d="M120.29,443.839c-.569-2.814,2.244-5.755,6.285-6.571s7.776.8,8.346,3.61-2.247,5.752-6.288,6.569S120.858,446.649,120.29,443.839Z" transform="translate(-51.904 -328.78)" fill="url(#radial-gradient-7)"/>
      <path id="Path_1397-4" data-name="Path 1397" d="M95.1,440.6c.615-2.806,4.374-4.361,8.4-3.476s6.791,3.872,6.178,6.673-4.377,4.353-8.406,3.473S94.482,443.394,95.1,440.6Z" transform="translate(-56.17 -328.892)" fill="url(#radial-gradient-8)"/>
      <path id="Path_1398-4" data-name="Path 1398" d="M74.632,426.6c1.543-2.421,5.6-2.591,9.086-.375s5.046,5.97,3.507,8.39-5.607,2.583-9.084.373S73.093,429.02,74.632,426.6Z" transform="translate(-54.266 -336.399)" fill="url(#radial-gradient-9)"/>
      <path id="Path_1399-4" data-name="Path 1399" d="M64.663,402.856c2.68-1.027,6.044,1.257,7.524,5.109s.5,7.8-2.177,8.827-6.044-1.263-7.524-5.111S61.985,403.88,64.663,402.856Z" transform="translate(-61.798 -334.853)" fill="url(#radial-gradient-10)"/>
      <path id="Path_1400-4" data-name="Path 1400" d="M69.363,377.276c2.783.7,4.221,4.5,3.214,8.506s-4.078,6.666-6.858,5.97S61.5,387.24,62.5,383.244,66.583,376.575,69.363,377.276Z" transform="translate(-61.56 -338.544)" fill="url(#radial-gradient-11)"/>
      <path id="Path_1401-4" data-name="Path 1401" d="M85.754,356.575c2.069,1.992,1.428,6.007-1.434,8.981s-6.849,3.762-8.918,1.775-1.418-6.01,1.438-8.981S83.69,354.587,85.754,356.575Z" transform="translate(-54.171 -335.931)" fill="url(#radial-gradient-12)"/>
      <path id="Path_1402-4" data-name="Path 1402" d="M109.375,346.707c.8,2.757-1.762,5.915-5.724,7.063s-7.815-.162-8.616-2.914,1.774-5.917,5.731-7.065S108.579,343.952,109.375,346.707Z" transform="translate(-56.179 -343.377)" fill="url(#radial-gradient-13)"/>
      <path id="Path_1403-4" data-name="Path 1403" d="M119.264,352.9c.082,1.956-2.126,3.634-4.938,3.755s-5.154-1.373-5.238-3.327,2.132-3.633,4.941-3.754S119.181,350.946,119.264,352.9Z" transform="translate(-53.152 -339.567)" fill="url(#radial-gradient-14)"/>
      <path id="Path_1404-4" data-name="Path 1404" d="M139.446,361.593c-.867,1.756-3.61,2.171-6.135.929s-3.865-3.675-3-5.43,3.613-2.168,6.138-.927S140.31,359.837,139.446,361.593Z" transform="translate(-49.219 -335.95)" fill="url(#radial-gradient-15)"/>
      <path id="Path_1405-4" data-name="Path 1405" d="M152.413,379.59c-1.625,1.094-4.211.087-5.781-2.247s-1.526-5.111.1-6.2,4.213-.082,5.783,2.25S154.038,378.5,152.413,379.59Z" transform="translate(-51.024 -339.015)" fill="url(#radial-gradient-16)"/>
      <path id="Path_1406-4" data-name="Path 1406" d="M155.512,401.027c-1.958-.037-3.5-2.344-3.447-5.158s1.681-5.061,3.638-5.025,3.5,2.35,3.449,5.159S157.469,401.064,155.512,401.027Z" transform="translate(-46.974 -335.92)" fill="url(#radial-gradient-17)"/>
      <path id="Path_1407-4" data-name="Path 1407" d="M147.03,420.418c-1.617-1.106-1.641-3.881-.055-6.2s4.185-3.308,5.8-2.2,1.635,3.883.05,6.2S148.644,421.521,147.03,420.418Z" transform="translate(-50.827 -332.488)" fill="url(#radial-gradient-18)"/>
      <path id="Path_1408-4" data-name="Path 1408" d="M130.259,434.291c-1.081-1.635-.058-4.212,2.287-5.768s5.12-1.489,6.2.142.052,4.214-2.29,5.768S131.34,435.921,130.259,434.291Z" transform="translate(-49.2 -334.721)" fill="url(#radial-gradient-19)"/>
      <path id="Path_1409-4" data-name="Path 1409" d="M109.234,438.009c-.281-1.938,1.743-3.835,4.531-4.24s5.264.84,5.547,2.778-1.753,3.831-4.532,4.237S109.513,439.944,109.234,438.009Z" transform="translate(-53.123 -330.849)" fill="url(#radial-gradient-20)"/>
      <path id="Path_1410-4" data-name="Path 1410" d="M89.179,429.476c.913-1.735,3.665-2.08,6.157-.769s3.767,3.77,2.856,5.5-3.668,2.072-6.156.766S88.269,431.206,89.179,429.476Z" transform="translate(-56.801 -334.406)" fill="url(#radial-gradient-21)"/>
      <path id="Path_1411-4" data-name="Path 1411" d="M74.489,412.763c1.436-1.334,4.148-.749,6.065,1.312s2.308,4.805.874,6.141-4.146.741-6.062-1.313S73.056,414.1,74.489,412.763Z" transform="translate(-54.52 -332.321)" fill="url(#radial-gradient-22)"/>
      <path id="Path_1412-4" data-name="Path 1412" d="M71.353,390.741c1.961-.042,3.594,2.2,3.652,5.017s-1.48,5.122-3.437,5.162-3.587-2.208-3.649-5.017S69.4,390.78,71.353,390.741Z" transform="translate(-58.033 -335.936)" fill="url(#radial-gradient-23)"/>
      <path id="Path_1413-4" data-name="Path 1413" d="M79.367,370.394c1.841.667,2.557,3.348,1.6,6s-3.221,4.245-5.064,3.578-2.554-3.35-1.6-5.993S77.527,369.727,79.367,370.394Z" transform="translate(-54.365 -339.132)" fill="url(#radial-gradient-24)"/>
      <path id="Path_1414-4" data-name="Path 1414" d="M97.391,356.42c1.116,1.612.145,4.211-2.171,5.815s-5.085,1.593-6.2-.019S88.882,358,91.19,356.4,96.276,354.811,97.391,356.42Z" transform="translate(-56.838 -336.097)" fill="url(#radial-gradient-25)"/>
      <g id="Group_551-4" data-name="Group 551" transform="translate(13.001 12.525)">
        <path id="Path_1415-4" data-name="Path 1415" d="M134.384,422.847c0,3.232-6.587,5.854-14.712,5.854s-14.712-2.621-14.712-5.854,6.589-5.855,14.712-5.855S134.384,419.613,134.384,422.847Z" transform="translate(-68.528 -333.437)" fill="#241f1a" style="mix-blend-mode: color-dodge;isolation: isolate"/>
        <path id="Path_1416-4" data-name="Path 1416" d="M124.292,370.16c0,2.706-5.511,4.9-12.308,4.9s-12.307-2.192-12.307-4.9,5.51-4.9,12.307-4.9S124.292,367.455,124.292,370.16Z" transform="translate(-71.779 -365.263)" fill="#241f1a" style="mix-blend-mode: color-dodge;isolation: isolate"/>
        <path id="Path_1417-4" data-name="Path 1417" d="M104.267,423.017c-2.529,2.013-8.68-1.512-13.739-7.873s-7.1-13.145-4.574-15.156,8.682,1.512,13.738,7.868S106.8,421,104.267,423.017Z" transform="translate(-80.889 -344.246)" fill="#241f1a" style="mix-blend-mode: color-dodge;isolation: isolate"/>
        <path id="Path_1418-4" data-name="Path 1418" d="M141.574,399.62c3.172,1.533,3.31,7.813.307,14.024s-8.005,10.008-11.178,8.475-3.31-7.811-.307-14.024S138.4,398.088,141.574,399.62Z" transform="translate(-54.211 -344.334)" fill="#241f1a" style="mix-blend-mode: color-dodge;isolation: isolate"/>
        <path id="Path_1419-4" data-name="Path 1419" d="M98.057,374.052c3.174,1.533,3.31,7.811.307,14.024s-8.005,10.008-11.178,8.475-3.308-7.811-.307-14.025S94.884,372.52,98.057,374.052Z" transform="translate(-80.984 -360.064)" fill="#241f1a" style="mix-blend-mode: color-dodge;isolation: isolate"/>
        <path id="Path_1420-4" data-name="Path 1420" d="M137.084,379.26c2.263-.481,4.862,2.723,5.8,7.156s-.128,8.417-2.392,8.9-4.862-2.725-5.805-7.159S134.819,379.742,137.084,379.26Z" transform="translate(-50.448 -356.681)" fill="#241f1a" style="mix-blend-mode: color-dodge;isolation: isolate"/>
        <path id="Path_1421-4" data-name="Path 1421" d="M122.642,368.33c1.712-1.557,5.573-.1,8.624,3.251s4.137,7.332,2.424,8.89-5.573.1-8.624-3.252S120.93,369.89,122.642,368.33Z" transform="translate(-58.149 -363.76)" fill="#241f1a" style="mix-blend-mode: color-dodge;isolation: isolate"/>
        <path id="Path_1422-4" data-name="Path 1422" d="M112.375,392.846a7.111,7.111,0,1,1-7.112-7.11A7.111,7.111,0,0,1,112.375,392.846Z" transform="translate(-72.717 -352.667)" fill="#241f1a" style="mix-blend-mode: color-dodge;isolation: isolate"/>
        <path id="Path_1423-4" data-name="Path 1423" d="M125.5,382.309a6.564,6.564,0,1,1-6.564-6.564A6.565,6.565,0,0,1,125.5,382.309Z" transform="translate(-63.966 -358.814)" fill="#241f1a" style="mix-blend-mode: color-dodge;isolation: isolate"/>
        <path id="Path_1424-4" data-name="Path 1424" d="M132.3,392.652a4.376,4.376,0,1,1-4.376-4.377A4.376,4.376,0,0,1,132.3,392.652Z" transform="translate(-57.09 -351.105)" fill="#241f1a" style="mix-blend-mode: color-dodge;isolation: isolate"/>
        <path id="Path_1425-4" data-name="Path 1425" d="M122.443,403.554a4.1,4.1,0,1,1-4.1-4.1A4.1,4.1,0,0,1,122.443,403.554Z" transform="translate(-62.82 -344.229)" fill="#241f1a" style="mix-blend-mode: color-dodge;isolation: isolate"/>
        <circle id="Ellipse_99-4" data-name="Ellipse 99" cx="6.017" cy="6.017" r="6.017" transform="translate(27.077 57.683)" fill="#241f1a" style="mix-blend-mode: color-dodge;isolation: isolate"/>
        <circle id="Ellipse_100-4" data-name="Ellipse 100" cx="4.376" cy="4.376" r="4.376" transform="translate(56.068 66.709)" fill="#241f1a" style="mix-blend-mode: color-dodge;isolation: isolate"/>
        <path id="Path_1426-4" data-name="Path 1426" d="M104.938,380.07a2.462,2.462,0,1,1-2.462-2.462A2.462,2.462,0,0,1,104.938,380.07Z" transform="translate(-71.571 -357.668)" fill="#241f1a" style="mix-blend-mode: color-dodge;isolation: isolate"/>
        <path id="Path_1427-4" data-name="Path 1427" d="M101.239,396.169a3.829,3.829,0,1,1-3.83-3.83A3.828,3.828,0,0,1,101.239,396.169Z" transform="translate(-75.53 -348.605)" fill="#241f1a" style="mix-blend-mode: color-dodge;isolation: isolate"/>
        <path id="Path_1428-4" data-name="Path 1428" d="M120.034,394.137a3.829,3.829,0,1,1-3.828-3.83A3.828,3.828,0,0,1,120.034,394.137Z" transform="translate(-63.966 -349.855)" fill="#241f1a" style="mix-blend-mode: color-dodge;isolation: isolate"/>
        <path id="Path_1429-4" data-name="Path 1429" d="M135.886,382.844a5.744,5.744,0,1,1-5.744-5.744A5.745,5.745,0,0,1,135.886,382.844Z" transform="translate(-56.57 -357.98)" fill="#241f1a" style="mix-blend-mode: color-dodge;isolation: isolate"/>
        <path id="Path_1430-4" data-name="Path 1430" d="M143.375,398.7a2.462,2.462,0,1,1-2.462-2.462A2.462,2.462,0,0,1,143.375,398.7Z" transform="translate(-47.923 -346.208)" fill="#241f1a" style="mix-blend-mode: color-dodge;isolation: isolate"/>
        <path id="Path_1431-4" data-name="Path 1431" d="M100.953,420.916a3.008,3.008,0,1,1-3.009-3.009A3.009,3.009,0,0,1,100.953,420.916Z" transform="translate(-74.696 -332.874)" fill="#241f1a" style="mix-blend-mode: color-dodge;isolation: isolate"/>
        <circle id="Ellipse_101-4" data-name="Ellipse 101" cx="3.009" cy="3.009" r="3.009" transform="translate(0 43.188)" fill="#241f1a" style="mix-blend-mode: color-dodge;isolation: isolate"/>
      </g>
    </g>
  </g>
</svg>
