<svg xmlns="http://www.w3.org/2000/svg" xmlns:xlink="http://www.w3.org/1999/xlink" width="278.375" height="81.375" viewBox="0 0 278.375 81.375">
  <defs>
    <linearGradient id="linear-gradient" y1="0.5" x2="1" y2="0.5" gradientUnits="objectBoundingBox">
      <stop offset="0" stop-color="#c77351"/>
      <stop offset="0.198" stop-color="#d97f60"/>
      <stop offset="0.394" stop-color="#e39d8c"/>
      <stop offset="0.54" stop-color="#c77351"/>
      <stop offset="0.685" stop-color="#d97f60"/>
      <stop offset="0.831" stop-color="#e39d8c"/>
      <stop offset="1" stop-color="#c77351"/>
    </linearGradient>
    <linearGradient id="linear-gradient-2" x1="0" y1="0.5" x2="1" y2="0.5" xlink:href="#linear-gradient"/>
    <linearGradient id="linear-gradient-3" y1="0.5" x2="1" y2="0.5" gradientUnits="objectBoundingBox">
      <stop offset="0"/>
      <stop offset="0.32"/>
      <stop offset="0.5" stop-color="#4c4c4c"/>
      <stop offset="0.74"/>
      <stop offset="1"/>
    </linearGradient>
    <clipPath id="clip-path">
      <path id="Path_1462" data-name="Path 1462" d="M917.259,1951.906v27.326a139.526,139.526,0,0,0,1.814,16.693h2.476a139.5,139.5,0,0,0,1.814-16.693v-27.326Z" transform="translate(-917.259 -1951.906)" fill="url(#linear-gradient)" clip-rule="evenodd"/>
    </clipPath>
    <linearGradient id="linear-gradient-5" x1="-245.181" y1="-49.031" x2="-245.146" y2="-49.031" xlink:href="#linear-gradient"/>
    <clipPath id="clip-path-2">
      <path id="Path_1463" data-name="Path 1463" d="M916.687,1963.25v-20.589c-.015-.628.012-2.881,0-3.913a.618.618,0,0,1,.6-.791c.433,0,.822-.01.822.087v.123c0,.1-.389.144-.822.144v22.356h.181c.3,0,.768,1.66-.339,2.941-.422,0-.439-.012-.439-.358" transform="translate(-916.674 -1937.957)" fill="none" clip-rule="evenodd"/>
    </clipPath>
    <linearGradient id="linear-gradient-6" x1="-922.608" y1="-83.416" x2="-922.475" y2="-83.416" gradientUnits="objectBoundingBox">
      <stop offset="0" stop-color="#963"/>
      <stop offset="0.17" stop-color="#b98633"/>
      <stop offset="0.3" stop-color="#c93"/>
      <stop offset="0.41" stop-color="#ffc"/>
      <stop offset="0.77" stop-color="#c93"/>
      <stop offset="1" stop-color="#633"/>
    </linearGradient>
    <clipPath id="clip-path-3">
      <path id="Path_1465" data-name="Path 1465" d="M917.259,1966.071v-22.612l.232-5.461v.038h5.64l.233,5.518v22.517Z" transform="translate(-917.259 -1937.998)" fill="url(#linear-gradient-2)" clip-rule="evenodd"/>
    </clipPath>
    <linearGradient id="linear-gradient-8" x1="-245.181" y1="-76.179" x2="-245.146" y2="-76.179" xlink:href="#linear-gradient"/>
    <clipPath id="clip-path-4">
      <path id="Path_1467" data-name="Path 1467" d="M918.131,1973.065l.5,3.012h1.473l.5-3.012Z" transform="translate(-918.131 -1973.065)" fill="url(#linear-gradient-3)" clip-rule="evenodd"/>
    </clipPath>
    <linearGradient id="linear-gradient-10" x1="-614.262" y1="-789.892" x2="-614.176" y2="-789.892" xlink:href="#linear-gradient-3"/>
    <clipPath id="clip-path-5">
      <path id="Path_1468" data-name="Path 1468" d="M923.016,1938.842v-1.379a.209.209,0,0,0-.21-.21H917.58a.211.211,0,0,0-.21.21v1.379Z" transform="translate(-917.37 -1937.253)" fill="none" clip-rule="evenodd"/>
    </clipPath>
    <linearGradient id="linear-gradient-11" x1="-265.491" y1="-1612.008" x2="-265.454" y2="-1612.008" xlink:href="#linear-gradient-3"/>
    <clipPath id="clip-path-6">
      <rect id="Rectangle_39" data-name="Rectangle 39" width="6.105" height="0.86" fill="none"/>
    </clipPath>
    <linearGradient id="linear-gradient-12" x1="-245.313" y1="-3378.982" x2="-245.279" y2="-3378.982" xlink:href="#linear-gradient-3"/>
    <clipPath id="clip-path-7">
      <path id="Path_1469" data-name="Path 1469" d="M919.033,1976.011c.277-.048.418-.747.543-1.5h-1.119c.135.762.316,1.519.576,1.5" transform="translate(-918.457 -1974.513)" fill="none" clip-rule="evenodd"/>
    </clipPath>
    <linearGradient id="linear-gradient-13" x1="-1291.684" y1="-1307.28" x2="-1291.491" y2="-1307.28" gradientUnits="objectBoundingBox">
      <stop offset="0" stop-color="#4c4c4c"/>
      <stop offset="0.04" stop-color="#e5e5e5"/>
      <stop offset="0.18" stop-color="#7f7f7f"/>
      <stop offset="0.41" stop-color="#333"/>
      <stop offset="0.56" stop-color="#fff"/>
      <stop offset="0.65" stop-color="#b2b2b2"/>
      <stop offset="0.91" stop-color="#e5e5e5"/>
      <stop offset="1" stop-color="#999"/>
    </linearGradient>
  </defs>
  <g id="Group_597" data-name="Group 597" transform="translate(-902.946 -1937.253)">
    <path id="Path_1443" data-name="Path 1443" d="M918.726,1976.065a13.468,13.468,0,0,1,1.691-.886,12.417,12.417,0,0,1,1.822-.651.591.591,0,0,1,.618.243.9.9,0,0,1,.1.605,6.7,6.7,0,0,1-.262.953,15.392,15.392,0,0,0-.537,1.783L922,1977.8a.747.747,0,0,0,.466-.127c.2-.1.4-.248.628-.377.433-.256.878-.493,1.332-.713a19.453,19.453,0,0,1,2.8-1.119,11.806,11.806,0,0,1,2.979-.541,10.186,10.186,0,0,1,2.985.308,13.137,13.137,0,0,0-2.958.019,12.422,12.422,0,0,0-2.844.7,25.034,25.034,0,0,0-2.709,1.152q-.658.334-1.3.7c-.208.114-.41.255-.657.382a1.154,1.154,0,0,1-.957.133.256.256,0,0,1-.167-.3l0-.017a15.043,15.043,0,0,1,.614-1.835,6.692,6.692,0,0,0,.3-.861c.054-.287,0-.42-.219-.406-.582.121-1.207.306-1.8.489S919.311,1975.817,918.726,1976.065Z" transform="translate(17.048 40.255)"/>
    <path id="Path_1444" data-name="Path 1444" d="M918.483,1945.48l-.094,0c.036.071.063.139.094.206Z" transform="translate(16.684 8.888)" fill="#bddeb4"/>
    <path id="Path_1445" data-name="Path 1445" d="M919.089,1960.44c-.433-2.232-1.128-5.848-1.34-7.958a4.682,4.682,0,0,1-.058-.89c0-.042-.006-.092-.006-.129,0,.01.008.025.008.037a5.985,5.985,0,0,1,.081-.822c.254-1.525,2.852-3.874,6.108-3.736s6.568,1.681,6.973,2.63c.283.66.162,3.21-1.741,4.023-.836.358-3.052-.429-4.477-.112a4.767,4.767,0,0,0-2.005,1.656c2.232,1.217,4.941,2.563,7.546,3.855a19.515,19.515,0,0,0,3.237-3.426,20.674,20.674,0,0,0,1.544-3.776v-3.183c-.029-.069-.058-.137-.092-.208-1.125-2.334-4.552-5.542-8.509-5.428-4.916.141-10.352,3.838-13.225,4.489-1.806.41-6.029-.441-8.831-2.347s-.445,3.514-.135,4.169a27.685,27.685,0,0,0,6.686,7.337c.7.468,1.479.93,2.3,1.371a32.543,32.543,0,0,0,3.019,1.419A29.343,29.343,0,0,0,919.089,1960.44Z" transform="translate(0 6.177)" fill="#00639b"/>
    <path id="Path_1446" data-name="Path 1446" d="M949.944,1949.285c.312-.655,2.667-6.074-.135-4.169s-7.023,2.757-8.829,2.347c-2.873-.651-8.309-4.348-13.225-4.489-3.947-.113-7.365,3.075-8.5,5.407-.062.131-.121.26-.171.385v2.767a20.069,20.069,0,0,0,1.614,4.036,18.7,18.7,0,0,0,4.308,4.229c2.567-1.442,5.195-2.944,7.335-4.3-.533-.7-1.5-1.843-2.29-2.018-1.423-.316-3.639.47-4.475.112-1.906-.813-2.026-3.364-1.743-4.023.408-.949,3.72-2.494,6.973-2.63s5.856,2.211,6.11,3.736a6.5,6.5,0,0,1,.081.853c0-.013.006-.027.006-.038,0,.042,0,.094,0,.137,0,.089,0,.17,0,.252l0,.067a4.836,4.836,0,0,1-.044.487c-.248,2.1-1.246,5.715-1.8,7.968a31.852,31.852,0,0,0,5.107-2.051c.158-.079.318-.16.474-.243a28.21,28.21,0,0,0,2.528-1.488A27.706,27.706,0,0,0,949.944,1949.285Z" transform="translate(17.435 6.177)" fill="#00639b"/>
    <path id="Path_1447" data-name="Path 1447" d="M919.356,1972.074c.6-.472,1.242-.919,1.908-1.352v-.836a38.011,38.011,0,0,1-4.93-3.589,3.6,3.6,0,0,0-.666,2.638C916.042,1970.129,917.33,1970.587,919.356,1972.074Z" transform="translate(13.695 31.378)" fill="#0be"/>
    <path id="Path_1448" data-name="Path 1448" d="M919.188,1971.843c3.272,3.7.818,7.233-.042,8.294a.755.755,0,0,1-.158.306,4.052,4.052,0,0,0,.487-.287c1.03-.676,3.106-2.261,3.3-2.809a7.677,7.677,0,0,0,1.275-2.877c.246-1.974-.826-3.591-2.467-5.06-.6.477-1.388,1.08-2.4,1.854Z" transform="translate(17.331 34.743)" fill="#0be"/>
    <path id="Path_1449" data-name="Path 1449" d="M919.084,1966.467a15.912,15.912,0,0,1,4.381,4.173,6.583,6.583,0,0,0,1.868-2.713c.035-.181.083-.36.112-.545.229-1.65-1.073-3.139-3.218-4.785-1.011.693-2.082,1.439-3.143,2.282Z" transform="translate(17.435 27.381)" fill="#0be"/>
    <path id="Path_1450" data-name="Path 1450" d="M922.36,1965.293l-.426,1.706C922.09,1966.435,922.231,1965.865,922.36,1965.293Z" transform="translate(20.514 30.293)" fill="#76c27a"/>
    <path id="Path_1451" data-name="Path 1451" d="M921.551,1967.644h0Z" transform="translate(20.1 32.833)" fill="#76c27a"/>
    <path id="Path_1452" data-name="Path 1452" d="M919.1,1966.451c1.161-.83,2.546-1.7,4-2.638v-.607c-2.419-1.583-5.172-2.925-7.225-4.179-1.267,1.015-2.1,2.084-1.929,3.087C914.312,1963.594,916.538,1964.888,919.1,1966.451Z" transform="translate(11.86 23.523)" fill="#0be"/>
    <path id="Path_1453" data-name="Path 1453" d="M910.192,1947.905c-.033-.343-.054-.641-.058-.89A4.86,4.86,0,0,0,910.192,1947.905Z" transform="translate(7.764 10.547)" fill="#0a9f49"/>
    <path id="Path_1454" data-name="Path 1454" d="M914.974,1953.08a4.767,4.767,0,0,1,2.005-1.656c1.425-.316,3.641.47,4.477.112,1.9-.813,2.024-3.364,1.741-4.023-.406-.949-3.718-2.494-6.973-2.63s-5.854,2.211-6.108,3.736a5.985,5.985,0,0,0-.081.822C910.1,1950.2,912.147,1951.536,914.974,1953.08Z" transform="translate(7.659 8.237)" fill="#0087c7"/>
    <path id="Path_1455" data-name="Path 1455" d="M919.183,1952.125v.895c.258-.148.524-.3.8-.452C919.728,1952.425,919.466,1952.279,919.183,1952.125Z" transform="translate(17.542 16.067)" fill="#0be"/>
    <path id="Path_1456" data-name="Path 1456" d="M921.71,1963.113c1.238-.765,2.575-1.568,3.882-2.442.449-.3,1.034-.659,1.712-1.061v-2.623c-1.437-.745-3.083-1.562-4.781-2.4-2.6-1.292-5.313-2.638-7.546-3.855-2.827-1.543-4.876-2.881-4.939-3.638,0-.013-.008-.027-.008-.037,0,.037,0,.087.006.129,0,.25.025.547.058.89.212,2.11.907,5.725,1.34,7.958.1.532.191.992.254,1.327C912.018,1958.686,917.3,1961.2,921.71,1963.113Z" transform="translate(7.654 10.588)" fill="#0be"/>
    <path id="Path_1457" data-name="Path 1457" d="M926.439,1962.637a4.848,4.848,0,0,0,2.13-2.372,11,11,0,0,0,.316-1.35c.193-1.39-.868-2.742-2.584-4.165-2.627,1.483-5.236,2.84-6.661,3.578C921.839,1959.321,924.991,1960.92,926.439,1962.637Z" transform="translate(18.035 18.903)" fill="#0be"/>
    <path id="Path_1458" data-name="Path 1458" d="M927.8,1947.034c0,.081,0,.162,0,.252C927.8,1947.2,927.8,1947.123,927.8,1947.034Z" transform="translate(26.845 10.567)" fill="#76c27a"/>
    <path id="Path_1459" data-name="Path 1459" d="M927.817,1947.186c-.01.152-.025.314-.046.489C927.792,1947.538,927.806,1947.369,927.817,1947.186Z" transform="translate(26.82 10.731)" fill="#76c27a"/>
    <path id="Path_1460" data-name="Path 1460" d="M934.591,1949.472a6.5,6.5,0,0,0-.081-.853c-.254-1.525-2.854-3.874-6.11-3.736s-6.566,1.681-6.973,2.63c-.283.66-.162,3.21,1.743,4.023.836.358,3.052-.429,4.475-.112.786.175,1.758,1.315,2.29,2.018C932.64,1951.732,934.56,1950.267,934.591,1949.472Z" transform="translate(19.842 8.237)" fill="#0be"/>
    <g id="Group_584" data-name="Group 584" transform="translate(932.722 1967.737)">
      <path id="Path_1461" data-name="Path 1461" d="M917.259,1951.906v27.326a139.526,139.526,0,0,0,1.814,16.693h2.476a139.5,139.5,0,0,0,1.814-16.693v-27.326Z" transform="translate(-917.259 -1951.906)" fill-rule="evenodd" fill="url(#linear-gradient)"/>
      <g id="Group_583" data-name="Group 583" clip-path="url(#clip-path)">
        <rect id="Rectangle_33" data-name="Rectangle 33" width="6.105" height="44.019" transform="translate(-0.001 0)" fill="url(#linear-gradient-5)"/>
      </g>
    </g>
    <g id="Group_586" data-name="Group 586" transform="translate(931.505 1938.717)">
      <g id="Group_585" data-name="Group 585" clip-path="url(#clip-path-2)">
        <rect id="Rectangle_34" data-name="Rectangle 34" width="1.618" height="25.661" transform="translate(-0.06 -0.011)" fill="url(#linear-gradient-6)"/>
      </g>
    </g>
    <g id="Group_588" data-name="Group 588" transform="translate(932.721 1938.804)">
      <path id="Path_1464" data-name="Path 1464" d="M917.259,1966.071v-22.612l.232-5.461v.038h5.64l.233,5.518v22.517Z" transform="translate(-917.259 -1937.998)" fill-rule="evenodd" fill="url(#linear-gradient-2)"/>
      <g id="Group_587" data-name="Group 587" clip-path="url(#clip-path-3)">
        <rect id="Rectangle_35" data-name="Rectangle 35" width="6.105" height="28.073" fill="url(#linear-gradient-8)"/>
      </g>
    </g>
    <g id="Group_590" data-name="Group 590" transform="translate(934.536 2011.756)">
      <path id="Path_1466" data-name="Path 1466" d="M918.131,1973.065l.5,3.012h1.473l.5-3.012Z" transform="translate(-918.131 -1973.065)" fill-rule="evenodd" fill="url(#linear-gradient-3)"/>
      <g id="Group_589" data-name="Group 589" clip-path="url(#clip-path-4)">
        <rect id="Rectangle_36" data-name="Rectangle 36" width="2.476" height="3.012" fill="url(#linear-gradient-10)"/>
      </g>
    </g>
    <g id="Group_592" data-name="Group 592" transform="translate(932.953 1937.253)">
      <g id="Group_591" data-name="Group 591" clip-path="url(#clip-path-5)">
        <rect id="Rectangle_37" data-name="Rectangle 37" width="5.646" height="1.589" transform="translate(0.001 0)" fill="url(#linear-gradient-11)"/>
      </g>
    </g>
    <g id="Group_594" data-name="Group 594" transform="translate(932.721 1966.876)">
      <g id="Group_593" data-name="Group 593" clip-path="url(#clip-path-6)">
        <rect id="Rectangle_38" data-name="Rectangle 38" width="6.105" height="0.86" fill="url(#linear-gradient-12)"/>
      </g>
    </g>
    <g id="Group_596" data-name="Group 596" transform="translate(935.214 2014.767)">
      <g id="Group_595" data-name="Group 595" clip-path="url(#clip-path-7)">
        <rect id="Rectangle_40" data-name="Rectangle 40" width="1.119" height="1.519" transform="translate(0 0.001)" fill="url(#linear-gradient-13)"/>
      </g>
    </g>
    <path id="Path_1470" data-name="Path 1470" d="M925.562,1958.691c-.562.32-1.084.622-1.56.9-.678.4-1.263.761-1.712,1.061-1.306.874-2.644,1.677-3.882,2.442-3.094,1.91-5.561,3.572-5.3,5.434.339,2.095,1.361,4.46,1.741,6.5-.171-1,.662-2.072,1.929-3.087a35.914,35.914,0,0,1,7.225-4.036c.789-.348,1.361-.587,1.56-.682l.063-.031c.077-.046.476-.25,1.094-.568,1.425-.738,4.034-2.095,6.661-3.578,3.816-2.155,7.66-4.569,7.941-5.708.065-.345.175-.815.308-1.363.553-2.253,1.552-5.871,1.8-7.968.021-.173.035-.337.044-.487l0-.067c0-.089,0-.171,0-.252,0-.044,0-.1,0-.137,0,.01-.006.025-.006.038-.031.795-1.951,2.259-4.656,3.969-2.141,1.352-4.768,2.854-7.335,4.3-1.806,1.013-3.576,1.993-5.126,2.869C926.086,1958.394,925.82,1958.543,925.562,1958.691Z" transform="translate(10.957 10.604)" fill="#0087c7"/>
    <path id="Path_1471" data-name="Path 1471" d="M931.588,1959.79c-2.039,1.427-5.174,2.936-7.955,4.775-.052.033-.1.066-.156.1-.472.316-.94.62-1.4.919-1.456.94-2.842,1.808-4,2.638-2.039,1.462-3.383,2.823-3.175,4.314.327,2.016,1.207,4.017,1.581,6.025a3.6,3.6,0,0,1,.666-2.638c1.065-1.621,3.15-3.021,4.93-4.271.553-.387,1.08-.761,1.531-1.122l.029-.023c1.061-.843,2.132-1.589,3.143-2.282,2.609-1.785,4.791-3.189,5.195-4.818.381-2.039,1.365-3.917,1.758-6.025l-.01.033A4.848,4.848,0,0,1,931.588,1959.79Z" transform="translate(12.886 21.75)" fill="#0087c7"/>
    <path id="Path_1472" data-name="Path 1472" d="M927,1968.018a28.894,28.894,0,0,1-4.381,3.094c-.522.324-1.046.651-1.56.986-.666.433-1.311.88-1.908,1.352-2.018,1.585-3.493,3.447-3.331,6.058a3.476,3.476,0,0,0,.94,2.4c.212.5,2.484,2.01,3.732,2.813.478.308.811.516.811.516v0a1.182,1.182,0,0,0-.225-.466c-1.024-1.435-4.864-3.7-.021-7.6.314-.252.657-.51,1.046-.776l.514-.393c1.011-.773,1.8-1.377,2.4-1.854,2.057-1.625,2.078-1.866,2.455-3.178l.073-.289h0l.133-.537c.2-.793.431-1.723.664-2.648l.424-1.706.194-.768c-.025.1-.06.187-.092.281A6.583,6.583,0,0,1,927,1968.018Z" transform="translate(13.898 30.003)" fill="#0087c7"/>
    <path id="Path_1473" data-name="Path 1473" d="M950.582,1977.122a7.96,7.96,0,0,1-2.4,5.819,7.832,7.832,0,0,1-5.76,2.417h-8.161V1950.9h8.161a7.816,7.816,0,0,1,5.779,2.417,7.979,7.979,0,0,1,2.378,5.8Zm-11.124,3.1h3.127a2.758,2.758,0,0,0,2.091-.9,2.969,2.969,0,0,0,.847-2.1V1959.2a2.9,2.9,0,0,0-.868-2.107,2.812,2.812,0,0,0-2.07-.878h-3.127Z" transform="translate(33.835 14.747)"/>
    <path id="Path_1474" data-name="Path 1474" d="M952.458,1950.7a8.236,8.236,0,0,1,8.255,8.255v18.794a8.226,8.226,0,1,1-16.452,0v-18.794a8.236,8.236,0,0,1,8.2-8.255Zm2.833,8.157a2.934,2.934,0,0,0-2.965-2.965,2.9,2.9,0,0,0-2.105.859,2.832,2.832,0,0,0-.88,2.105v18.854a2.836,2.836,0,0,0,.88,2.1,2.878,2.878,0,0,0,2.105.868,2.948,2.948,0,0,0,2.965-2.965Z" transform="translate(44.635 14.532)"/>
    <path id="Path_1475" data-name="Path 1475" d="M962.556,1986.019a8.193,8.193,0,0,1-8.236-8.218V1958.93a8.227,8.227,0,1,1,16.454,0v3.93h-5.382v-4.023a3,3,0,0,0-3.006-3,2.844,2.844,0,0,0-2.1.88,2.911,2.911,0,0,0-.868,2.124v18.908a2.966,2.966,0,0,0,2.965,2.985,2.918,2.918,0,0,0,2.126-.87,2.858,2.858,0,0,0,.88-2.115V1973h5.382v4.8a7.87,7.87,0,0,1-2.42,5.827A7.951,7.951,0,0,1,962.556,1986.019Z" transform="translate(55.503 14.521)"/>
    <path id="Path_1476" data-name="Path 1476" d="M969.462,1956.1h-5.517V1950.9h16.208v5.195h-5.5v29.26h-5.195Z" transform="translate(65.901 14.747)"/>
    <path id="Path_1477" data-name="Path 1477" d="M981.65,1950.7a8.236,8.236,0,0,1,8.253,8.255v18.794a8.226,8.226,0,1,1-16.452,0v-18.794a8.236,8.236,0,0,1,8.2-8.255Zm2.833,8.157a2.934,2.934,0,0,0-2.967-2.965,2.909,2.909,0,0,0-2.105.859,2.83,2.83,0,0,0-.878,2.105v18.854a2.835,2.835,0,0,0,.878,2.1,2.885,2.885,0,0,0,2.105.868,2.948,2.948,0,0,0,2.967-2.965Z" transform="translate(76.171 14.532)"/>
    <path id="Path_1478" data-name="Path 1478" d="M991.746,1950.9q4.347,0,6.366,2.4a8.669,8.669,0,0,1,1.8,5.819v5.005a8.009,8.009,0,0,1-2.773,6.177l3.849,15.053h-5.6l-3.166-13.015c-.154.012-.31.019-.472.019h-2.981v13h-5.195V1950.9Zm3.1,8.311q0-3-2.956-3h-3.127v11.011h3.127a2.817,2.817,0,0,0,2.1-.878,2.905,2.905,0,0,0,.857-2.107Z" transform="translate(87.099 14.747)"/>
    <path id="Path_1479" data-name="Path 1479" d="M1003.606,1986.019a8.222,8.222,0,0,1-8.236-8.218V1958.93a8.226,8.226,0,1,1,16.452,0v3.93h-5.382v-4.023a3,3,0,0,0-3-3,2.844,2.844,0,0,0-2.1.88,2.911,2.911,0,0,0-.867,2.124v18.908a2.965,2.965,0,0,0,2.964,2.985,2.921,2.921,0,0,0,2.126-.87,2.855,2.855,0,0,0,.878-2.115v-6.78h-2.889v-5.2h8.271V1977.8a7.868,7.868,0,0,1-2.417,5.827A7.952,7.952,0,0,1,1003.606,1986.019Z" transform="translate(99.852 14.521)"/>
    <path id="Path_1480" data-name="Path 1480" d="M1010.636,1985.358h-5.2V1950.9h5.2Z" transform="translate(110.73 14.747)"/>
    <path id="Path_1481" data-name="Path 1481" d="M1015.365,1985.358h-5.195V1950.9h14.789v5.195h-9.595v9.445h7.009v5.2h-7.009Z" transform="translate(115.841 14.747)"/>
    <path id="Path_1482" data-name="Path 1482" d="M1024.51,1956.1h-5.515V1950.9H1035.2v5.195h-5.5v29.26h-5.2Z" transform="translate(125.376 14.747)"/>
    <path id="Path_1483" data-name="Path 1483" d="M1045.673,1977.017a9.655,9.655,0,0,1-1.872,6.158,6.635,6.635,0,0,1-3.568,2.436,9.56,9.56,0,0,1-2.89.4,8.162,8.162,0,0,1-5.063-1.512,8.608,8.608,0,0,1-2.644-3.372,13.333,13.333,0,0,1-1.134-4.9l4.93-.341a7.478,7.478,0,0,0,1.606,4.346,2.625,2.625,0,0,0,2.135.961,3.242,3.242,0,0,0,2.721-1.66,4.214,4.214,0,0,0,.526-2.286,6.361,6.361,0,0,0-1.945-4.29q-1.548-1.451-4.629-4.363a19.109,19.109,0,0,1-3.645-4.477,10.367,10.367,0,0,1-1.15-4.835,8.416,8.416,0,0,1,3.154-7.121,7.848,7.848,0,0,1,4.835-1.454,8.762,8.762,0,0,1,4.762,1.246,7.154,7.154,0,0,1,2.473,2.692,10.139,10.139,0,0,1,1.152,3.976l-4.989.907a5.81,5.81,0,0,0-1.208-3.287,2.517,2.517,0,0,0-2.058-.87,2.39,2.39,0,0,0-2.172,1.267,4.884,4.884,0,0,0-.605,2.53,7.619,7.619,0,0,0,2.039,4.818,18.16,18.16,0,0,0,2.307,2.19q1.813,1.511,2.4,2.116a18.261,18.261,0,0,1,2.966,3.8,14.229,14.229,0,0,1,.795,1.625A9.743,9.743,0,0,1,1045.673,1977.017Z" transform="translate(135.646 14.532)"/>
  </g>
</svg>
